<svg width="75" height="75" viewBox="0 0 75 75" fill="none" xmlns="http://www.w3.org/2000/svg">
<path fill-rule="evenodd" clip-rule="evenodd" d="M38.4116 61.4479C38.3447 59.2101 36.4688 57.4467 34.2156 57.5136C31.9656 57.5804 30.1962 59.4473 30.2631 61.6851C30.3269 63.9261 32.2059 65.6864 34.4559 65.6226C36.7059 65.5557 38.4784 63.6858 38.4116 61.4479Z" stroke="black" stroke-width="4" stroke-linecap="round" stroke-linejoin="round"/>
<path d="M11.9141 21.0615L18.4177 22.971L32.5775 57.9307" stroke="black" stroke-width="4" stroke-linecap="round" stroke-linejoin="round"/>
<path d="M38.1289 60.0507L63.0914 50.0444" stroke="black" stroke-width="4" stroke-linecap="round" stroke-linejoin="round"/>
<path fill-rule="evenodd" clip-rule="evenodd" d="M52.9187 46.5602L44.5178 49.8011C41.5928 50.9324 38.9506 49.5792 37.8134 46.6605L35.8066 41.4064C34.6666 38.4874 35.6912 35.7236 38.6281 34.5896L47.0262 31.3483C49.9634 30.2142 52.5934 31.5702 53.7306 34.4892L55.7403 39.7433C56.8775 42.6621 55.8559 45.4258 52.9187 46.5602Z" stroke="black" stroke-width="4" stroke-linecap="round" stroke-linejoin="round"/>
<path fill-rule="evenodd" clip-rule="evenodd" d="M44.1784 24.9857L35.7775 28.2269C32.8525 29.358 30.2103 28.005 29.0732 25.0861L27.0664 19.8321C25.9262 16.9132 26.9509 14.1494 29.888 13.0153L38.2859 9.77409C41.2231 8.63999 43.8531 9.99606 44.9903 12.9149L47 18.1689C48.1372 21.0848 47.1156 23.8517 44.1784 24.9857Z" stroke="black" stroke-width="4" stroke-linecap="round" stroke-linejoin="round"/>
</svg>
