<svg width="75" height="75" viewBox="0 0 75 75" fill="none" xmlns="http://www.w3.org/2000/svg">
<path fill-rule="evenodd" clip-rule="evenodd" d="M54.5085 31.5431C51.4342 31.5431 48.9438 34.0353 48.9438 37.1075C48.9438 40.1834 51.4348 42.675 54.5085 42.675H66.4057C67.7004 42.675 68.7495 43.7244 68.7495 45.0188C68.7495 46.3134 67.7004 47.3625 66.4057 47.3625H54.5085C48.8435 47.3625 44.2563 42.77 44.2563 37.1075C44.2563 31.4475 48.8442 26.8555 54.5085 26.8555H66.4057C67.7004 26.8555 68.7495 27.9048 68.7495 29.1992C68.7495 30.4936 67.7004 31.5431 66.4057 31.5431H54.5085Z" fill="black"/>
<path fill-rule="evenodd" clip-rule="evenodd" d="M51.541 36.9385C51.541 35.6441 52.5904 34.5947 53.8848 34.5947H53.8938C55.1882 34.5947 56.2376 35.6441 56.2376 36.9385C56.2376 38.2329 55.1882 39.2822 53.8938 39.2822H53.8848C52.5904 39.2822 51.541 38.2329 51.541 36.9385Z" fill="black"/>
<path fill-rule="evenodd" clip-rule="evenodd" d="M25.5806 13.8672C18.3556 13.8672 12.5 19.7228 12.5 26.9478V48.0397C12.5 55.2647 18.3556 61.1203 25.5806 61.1203H50.9809C58.2059 61.1203 64.0616 55.2647 64.0616 48.0397V26.9478C64.0616 19.7228 58.2059 13.8672 50.9809 13.8672H25.5806ZM7.8125 26.9478C7.8125 17.134 15.7668 9.17969 25.5806 9.17969H50.9809C60.7947 9.17969 68.7491 17.134 68.7491 26.9478V48.0397C68.7491 57.8534 60.7947 65.8078 50.9809 65.8078H25.5806C15.7668 65.8078 7.8125 57.8534 7.8125 48.0397V26.9478Z" fill="black"/>
<path fill-rule="evenodd" clip-rule="evenodd" d="M21.1455 24.8657C21.1455 23.5713 22.1949 22.522 23.4893 22.522H39.3605C40.6549 22.522 41.7043 23.5713 41.7043 24.8657C41.7043 26.1601 40.6549 27.2095 39.3605 27.2095H23.4893C22.1949 27.2095 21.1455 26.1601 21.1455 24.8657Z" fill="black"/>
</svg>
