<svg width="80" height="80" viewBox="0 0 80 80" fill="none" xmlns="http://www.w3.org/2000/svg">
<circle cx="40" cy="40" r="40" fill="#1A1916"/>
<path fill-rule="evenodd" clip-rule="evenodd" d="M56.3777 23.6877C55.4409 23.0791 54.2749 22.9874 53.2519 23.4402L47.75 25.8859C47.6785 25.9171 47.6309 25.9904 47.6309 26.0692V57.069C47.6309 57.2139 47.7775 57.311 47.9114 57.2542C49.2515 56.662 54.9697 54.1339 54.9697 54.1339C56.7334 53.3492 57.8737 51.5965 57.8737 49.666V26.4469C57.8737 25.3286 57.3145 24.2964 56.3777 23.6877Z" fill="white"/>
<path fill-rule="evenodd" clip-rule="evenodd" d="M32.0855 22.7491C30.7453 23.3413 25.029 25.8676 25.029 25.8676C23.2653 26.6541 22.125 28.4086 22.125 30.3409V53.5565C22.125 54.6748 22.686 55.7088 23.6228 56.3175C24.5597 56.9261 25.7257 57.0178 26.7487 56.5631L32.245 54.1193C32.3183 54.0863 32.3642 54.0148 32.3642 53.936V22.9343C32.3642 22.7894 32.2175 22.6904 32.0855 22.7491Z" fill="white"/>
<path fill-rule="evenodd" clip-rule="evenodd" d="M35.3736 22.6419C35.2434 22.5942 35.1133 22.695 35.1133 22.8325V53.7718C35.1133 53.8561 35.1554 53.9276 35.2343 53.9551C36.2389 54.32 43.1836 56.839 44.6209 57.3596C44.7529 57.4073 44.8812 57.3083 44.8812 57.169V26.2297C44.8812 26.1454 44.8391 26.0739 44.7602 26.0464C43.7556 25.6815 36.8109 23.1625 35.3736 22.6419Z" fill="white"/>
</svg>
