<svg width="80" height="80" viewBox="0 0 80 80" fill="none" xmlns="http://www.w3.org/2000/svg">
<circle cx="40" cy="40" r="40" fill="#1A1916"/>
<g clip-path="url(#clip0_294_6770)">
<path d="M42.9625 17.7778C30.7093 17.7778 20.7402 27.7469 20.7402 40.0001C20.7402 52.2532 30.7093 62.2223 42.9625 62.2223C47.1725 62.2223 51.2714 61.0382 54.8154 58.8003L53.3316 56.4511C50.2324 58.4097 46.6463 59.4446 42.9625 59.4446C32.2407 59.4446 23.518 50.722 23.518 40.0001C23.518 29.2783 32.2406 20.5556 42.9625 20.5556C53.6843 20.5556 62.4069 29.2782 62.4069 40.0001V41.389C62.4069 43.6866 60.5379 45.5557 58.2402 45.5557C55.9426 45.5557 54.0735 43.6866 54.0735 41.389V31.6668H51.2958V32.7289C49.2575 30.3956 46.2967 28.889 42.9625 28.889C36.8359 28.889 31.8514 33.8735 31.8514 40.0001C31.8514 46.1266 36.8359 51.1111 42.9625 51.1111C47.1134 51.1111 50.6968 48.7964 52.6042 45.4152C53.8652 47.1747 55.9153 48.3334 58.2402 48.3334C62.0691 48.3334 65.1847 45.2179 65.1847 41.3889V40C65.1847 27.7469 55.2156 17.7778 42.9625 17.7778ZM42.9625 48.3334C38.3671 48.3334 34.6292 44.5953 34.6292 40.0001C34.6292 35.4048 38.3672 31.6668 42.9625 31.6668C47.5577 31.6668 51.2958 35.4048 51.2958 40.0001C51.2958 44.5953 47.5577 48.3334 42.9625 48.3334Z" fill="white"/>
</g>
<defs>
<clipPath id="clip0_294_6770">
<rect width="44.4444" height="44.4444" fill="white" transform="translate(20.7402 17.7778)"/>
</clipPath>
</defs>
</svg>
