<svg width="80" height="80" viewBox="0 0 80 80" fill="none" xmlns="http://www.w3.org/2000/svg">
<circle cx="40" cy="40" r="40" fill="#1A1916"/>
<path d="M55.5 47.485V53.673C55.5002 54.1161 55.3323 54.5427 55.0303 54.8668C54.7282 55.191 54.3145 55.3885 53.8725 55.4195C53.1077 55.472 52.483 55.5 52 55.5C36.5352 55.5 24 42.9648 24 27.5C24 27.017 24.0263 26.3923 24.0805 25.6275C24.1115 25.1855 24.309 24.7718 24.6332 24.4697C24.9573 24.1677 25.3839 23.9998 25.827 24H32.015C32.2321 23.9998 32.4415 24.0803 32.6025 24.2258C32.7636 24.3713 32.8648 24.5715 32.8865 24.7875C32.9268 25.19 32.9635 25.5103 32.9985 25.7535C33.3463 28.1806 34.059 30.5412 35.1125 32.7553C35.2788 33.1053 35.1702 33.5235 34.8553 33.7475L31.0788 36.446C33.3878 41.8263 37.6755 46.114 43.0557 48.423L45.7507 44.6535C45.8609 44.4995 46.0216 44.389 46.2049 44.3414C46.3881 44.2937 46.5823 44.3119 46.7535 44.3927C48.9673 45.4443 51.3273 46.1552 53.7535 46.5015C53.9968 46.5365 54.317 46.575 54.716 46.6135C54.9317 46.6356 55.1314 46.737 55.2766 46.898C55.4218 47.059 55.502 47.2682 55.5017 47.485H55.5Z" fill="white"/>
</svg>
