<svg width="80" height="80" viewBox="0 0 80 80" fill="none" xmlns="http://www.w3.org/2000/svg">
<circle cx="40" cy="40" r="40" fill="#0C99E2"/>
<path d="M18.7014 40.7482L27.8976 44.1772L31.4825 55.7114C31.6384 56.4907 32.5736 56.6466 33.1971 56.179L38.3407 51.9706C38.8083 51.503 39.5876 51.503 40.2111 51.9706L49.4072 58.6729C50.0307 59.1405 50.9659 58.8287 51.1218 58.0494L57.9799 25.3173C58.1358 24.538 57.3565 23.7586 56.5771 24.0704L18.7014 38.7219C17.7662 39.0336 17.7662 40.4364 18.7014 40.7482ZM31.0149 42.4627L49.0955 31.3961C49.4072 31.2403 49.719 31.7079 49.4072 31.8637L34.5999 45.7359C34.1323 46.2035 33.6647 46.827 33.6647 47.6063L33.1971 51.3471C33.1971 51.8147 32.4177 51.9706 32.2619 51.3471L30.3914 44.489C29.9238 43.7096 30.2356 42.7744 31.0149 42.4627Z" fill="white"/>
</svg>
