<svg width="80" height="80" viewBox="0 0 80 80" fill="none" xmlns="http://www.w3.org/2000/svg">
<circle cx="40" cy="40" r="40" fill="#7294C7"/>
<path d="M59.613 50.2305C59.613 50.0645 59.447 50.0645 59.447 49.8984C58.7828 48.5701 57.2884 46.9096 55.2958 45.0831C54.2995 44.2529 53.8014 43.5887 53.4693 43.2566C52.9712 42.5924 52.9712 42.0943 53.1372 41.4301C53.3033 40.932 53.9674 40.1017 55.1298 38.6073C55.7939 37.7771 56.126 37.2789 56.6242 36.7808C59.1148 33.4599 60.2772 31.3013 59.9451 30.305L59.7791 30.139C59.613 29.9729 59.4469 29.8069 59.1148 29.8069C58.7828 29.6408 58.2846 29.6408 57.7865 29.8069H51.4768C51.3107 29.8069 51.3107 29.8069 50.9786 29.8069C50.8126 29.8069 50.6465 29.8069 50.6465 29.8069H50.4805H50.3144L50.1484 29.9729C49.9823 30.139 49.9823 30.139 49.9823 30.305C49.3181 32.1315 48.4879 33.6259 47.6577 35.2864C47.1596 36.1166 46.6614 36.9469 46.1633 37.611C45.6651 38.2752 45.333 38.7733 45.0009 39.1054C44.6689 39.4375 44.3368 39.6036 44.1707 39.9357C44.0047 40.1017 43.6726 40.2678 43.6726 40.1017C43.5066 40.1017 43.3405 40.1017 43.3405 39.9357C43.1744 39.7696 43.0084 39.6036 42.8424 39.4375C42.6763 39.2715 42.6763 38.9394 42.5103 38.6073C42.5103 38.2752 42.5103 37.9431 42.5103 37.7771C42.5103 37.611 42.5103 37.1129 42.5103 36.7808C42.5103 36.2827 42.5103 35.9506 42.5103 35.7845C42.5103 35.2864 42.5103 34.6222 42.5103 33.958C42.5103 33.2939 42.5103 32.7957 42.5103 32.4636C42.5103 32.1315 42.5103 31.6334 42.5103 31.3013C42.5103 30.8032 42.5103 30.4711 42.5103 30.305C42.5103 30.139 42.3443 29.8069 42.3443 29.6408C42.1782 29.4748 42.0121 29.3087 41.8461 29.1427C41.68 28.9766 41.348 28.9766 41.1819 28.8106C40.3517 28.6446 39.3554 28.4785 38.1931 28.4785C35.5364 28.4785 33.7099 28.6446 33.0457 28.9767C32.7136 29.1427 32.3815 29.3087 32.2154 29.6408C31.8834 29.9729 31.8833 30.139 32.0494 30.139C32.8796 30.305 33.5438 30.6371 33.8759 31.1352L34.042 31.4673C34.208 31.6334 34.208 31.9655 34.374 32.4636C34.5401 32.9617 34.5401 33.4599 34.5401 34.1241C34.5401 35.1203 34.5401 36.1166 34.5401 36.7808C34.5401 37.611 34.374 38.1092 34.374 38.6073C34.374 39.1054 34.208 39.4375 34.042 39.6036C33.8759 39.9357 33.8759 40.1017 33.7098 40.1017C33.7098 40.1017 33.7098 40.2678 33.5438 40.2678C33.3777 40.2678 33.2117 40.4338 32.8796 40.4338C32.7136 40.4338 32.3815 40.2678 32.2154 40.1017C31.8834 39.9357 31.5513 39.6036 31.3852 39.2715C31.0531 38.9394 30.721 38.4413 30.3889 37.7771C30.0568 37.1129 29.5587 36.4487 29.2266 35.4524L28.8945 34.7883C28.7285 34.4562 28.3964 33.792 28.0643 32.9617C27.7322 32.1315 27.4001 31.4673 27.068 30.6371C26.902 30.305 26.7359 30.139 26.5699 29.9729H26.4038C26.4038 29.9729 26.2378 29.8069 26.0717 29.8069C25.9057 29.8069 25.7397 29.6408 25.5736 29.6408H19.596C18.9318 29.6408 18.5997 29.8069 18.4336 29.9729L18.2676 30.139C18.2676 30.139 18.2676 30.305 18.2676 30.4711C18.2676 30.6371 18.2676 30.8031 18.4336 31.1352C19.2639 33.1278 20.2601 35.1203 21.2564 37.1129C22.2527 38.9394 23.249 40.5999 23.9132 41.7622C24.7434 42.9245 25.4076 44.0868 26.2378 45.0831C27.068 46.0794 27.5661 46.7436 27.7322 47.0756C28.0643 47.4077 28.2303 47.5738 28.3964 47.7398L28.8945 48.238C29.2266 48.5701 29.7247 49.0682 30.3889 49.5663C31.0531 50.0645 31.8833 50.5626 32.7136 51.0607C33.5438 51.5589 34.5401 51.891 35.5364 52.2231C36.6987 52.5552 37.6949 52.7212 38.6912 52.5552H41.1819C41.68 52.5552 42.0122 52.3891 42.3443 52.057L42.5103 51.891C42.5103 51.7249 42.6763 51.7249 42.6763 51.5589C42.6763 51.3928 42.6763 51.2268 42.6763 50.8947C42.6763 50.2305 42.6763 49.7324 42.8424 49.2342C43.0084 48.7361 43.0084 48.404 43.1745 48.0719C43.3405 47.7398 43.5066 47.5738 43.6726 47.4077C43.8386 47.2417 44.0047 47.0756 44.0047 47.0756H44.1707C44.5028 46.9096 45.001 47.0756 45.3331 47.4077C45.8312 47.7398 46.3293 48.238 46.6614 48.7361C46.9935 49.2342 47.4917 49.7324 48.1559 50.3966C48.82 51.0607 49.3182 51.5589 49.6503 51.7249L50.1484 52.057C50.4805 52.2231 50.8126 52.3891 51.3107 52.5552C51.8089 52.7212 52.1409 52.7212 52.473 52.7212L58.1186 52.5552C58.6167 52.5552 59.1149 52.3891 59.447 52.2231C59.779 52.057 59.9451 51.891 59.9451 51.5589C59.9451 51.3928 59.9451 51.0608 59.9451 50.8947C59.613 50.5626 59.613 50.3966 59.613 50.2305Z" fill="white"/>
</svg>
