<svg width="80" height="80" viewBox="0 0 80 80" fill="none" xmlns="http://www.w3.org/2000/svg">
<circle cx="40" cy="40" r="40" fill="#F40000"/>
<path d="M57.4263 37.8263C57.4263 37.0505 57.297 36.1455 57.297 35.1111C57.1677 34.0768 57.0384 33.0424 56.9091 32.1374C56.6505 31.103 56.2626 30.3273 55.4869 29.6808C54.8404 29.0343 53.9354 28.6465 53.0303 28.5172C50.0566 28.1293 45.6606 28 39.7131 28C33.7657 28 29.2404 28.1293 26.396 28.5172C25.4909 28.6465 24.5859 29.0343 23.9394 29.6808C23.2929 30.3273 22.7757 31.103 22.5172 32.1374C22.2586 33.0424 22.1293 33.9475 22.1293 35.1111C22 36.1455 22 37.0505 22 37.8263C22 38.602 22 39.5071 22 40.8C22 42.0929 22 43.1273 22 43.7737C22 44.5495 22.1293 45.4546 22.1293 46.4889C22.2586 47.5232 22.3879 48.5576 22.5172 49.4626C22.7757 50.497 23.1636 51.2727 23.9394 51.9192C24.5859 52.5657 25.4909 52.9535 26.396 53.0828C29.3697 53.4707 33.7657 53.6 39.7131 53.6C45.6606 53.6 50.1859 53.4707 53.0303 53.0828C53.9354 52.9535 54.8404 52.5657 55.4869 51.9192C56.1333 51.2727 56.6505 50.497 56.9091 49.4626C57.1677 48.5576 57.297 47.6525 57.297 46.4889C57.4263 45.4546 57.4263 44.5495 57.4263 43.7737C57.4263 42.998 57.4263 42.0929 57.4263 40.8C57.4263 39.5071 57.4263 38.4727 57.4263 37.8263ZM46.5657 41.8343L36.3515 48.1697C36.2222 48.299 35.9636 48.4283 35.7051 48.4283C35.4465 48.4283 35.3172 48.4283 35.0586 48.299C34.6707 48.0404 34.4121 47.6525 34.4121 47.1354V34.3353C34.4121 33.8182 34.6707 33.4303 35.0586 33.1717C35.4465 32.9131 35.9636 32.9131 36.3515 33.1717L46.5657 39.5071C46.9535 39.7656 47.2121 40.1535 47.2121 40.5414C47.2121 40.9293 46.9535 41.5758 46.5657 41.8343Z" fill="white"/>
</svg>
