<svg width="266" height="273" viewBox="0 0 266 273" fill="none" xmlns="http://www.w3.org/2000/svg">
<path d="M6.98635 2.22981C7.11327 1.13255 6.32666 0.140164 5.2294 0.0132464C4.13215 -0.113671 3.13976 0.672941 3.01284 1.77019L6.98635 2.22981ZM265.5 258.323C266.23 257.495 266.151 256.231 265.323 255.5L251.826 243.591C250.998 242.86 249.734 242.939 249.003 243.768C248.272 244.596 248.351 245.86 249.18 246.59L261.177 257.176L250.591 269.174C249.86 270.002 249.939 271.266 250.768 271.997C251.596 272.728 252.86 272.649 253.59 271.82L265.5 258.323ZM3.01284 1.77019C-4.7783 69.1277 8.00855 136.737 49.1535 185.908C90.3518 235.144 159.668 265.525 264.125 258.996L263.875 255.004C160.331 261.475 92.398 231.356 52.2212 183.342C11.9911 135.263 -0.722098 68.8723 6.98635 2.22981L3.01284 1.77019Z" fill="black"/>
</svg>
