<svg width="350" height="350" viewBox="0 0 350 350" fill="none" xmlns="http://www.w3.org/2000/svg">
<path d="M55.7769 274.088C55.7769 274.088 57.1316 284.624 55.7769 285C54.4222 285.377 27.4788 290.946 27.7798 288.688C28.0809 286.43 46.6703 272.733 46.6703 272.733L55.7769 274.088Z" fill="white"/>
<path d="M53.9688 273.937C54.1946 275.969 54.4204 278.077 54.4956 280.109C54.5709 281.313 54.5709 282.592 54.4204 283.872C54.4204 284.173 54.2698 284.549 54.1193 284.775C54.0441 284.926 54.2698 284.7 54.1193 284.775C54.0441 284.775 53.9688 284.85 53.8935 284.85C49.6037 285.829 45.2385 286.657 40.9487 287.409C38.2393 287.861 35.5299 288.312 32.8205 288.613C32.2184 288.689 31.6916 288.764 31.0895 288.764C30.3369 288.839 30.3369 288.839 29.7348 288.839C29.5843 288.839 28.9822 288.839 29.509 288.839H29.208C28.8317 288.839 29.7348 288.839 29.3585 288.839C28.9822 288.839 29.6595 288.839 29.7348 288.914C29.8101 288.99 29.9606 288.99 29.8853 288.914C30.0358 289.065 29.8101 288.839 29.8101 288.764C29.8101 288.613 29.8853 288.388 29.9606 288.237C30.4121 287.635 30.8637 287.033 31.4658 286.581C33.3473 284.7 35.4546 283.044 37.4867 281.388C41.0992 278.453 44.8622 275.593 48.6253 272.809H45.8406L54.8719 274.163C55.5493 274.238 56.8287 274.464 57.4308 274.163C58.0329 273.862 57.0545 273.787 56.7535 273.712L48.7758 272.583C47.5716 272.432 45.9159 271.981 44.8622 272.507C44.3354 272.884 43.8086 273.26 43.2818 273.712C38.0888 277.55 32.8205 281.464 28.0791 285.904C27.3264 286.506 26.6491 287.259 26.047 288.086C25.746 288.613 25.8965 288.839 26.4986 289.065C27.8533 289.441 29.2832 289.516 30.6379 289.441C32.0679 289.441 33.4226 289.291 34.8525 289.14C41.4002 288.388 47.8727 287.183 54.3451 285.829C55.173 285.678 56.0761 285.452 56.904 285.302C57.6566 285.151 57.9576 284.926 58.1082 284.173C58.2587 282.592 58.2587 281.012 58.1082 279.507C58.0329 278.002 57.8824 276.496 57.7318 274.916L57.6566 274.163C57.5813 273.561 53.8935 273.712 53.9688 273.937Z" fill="#000005"/>
<path d="M92.1275 269.798C92.1275 269.798 90.7728 280.334 92.1275 280.711C93.4822 281.087 121.705 281.087 121.329 278.829C120.952 276.571 101.159 268.443 101.159 268.443L92.1275 269.798Z" fill="white"/>
<path d="M90.3224 269.346C89.9461 271.905 89.7955 274.539 89.7203 277.174C89.7203 278.528 89.645 280.184 90.5482 281.313C91.3008 282.065 92.3544 282.442 93.4081 282.367C99.4289 282.592 105.525 282.517 111.546 282.141C114.406 282.065 117.191 281.84 119.975 281.313C120.878 281.238 121.781 280.937 122.534 280.41C123.437 279.657 122.986 278.603 122.384 277.851C121.48 276.948 120.502 276.195 119.373 275.593C118.018 274.765 116.664 274.088 115.309 273.41C112.223 271.905 109.062 270.475 105.901 269.121C104.848 268.669 103.719 268.217 102.59 267.766C101.913 267.39 101.085 267.164 100.257 267.164C97.5474 267.465 94.838 267.916 92.1286 268.368L91.3008 268.519C90.6987 268.594 90.2471 269.121 90.3224 269.723C90.3224 269.873 90.3976 270.024 90.4729 270.174C90.9997 271.002 91.9028 271.454 92.8812 271.378L101.913 270.024L100.558 269.798C104.246 271.303 107.858 272.884 111.471 274.615C112.75 275.217 114.03 275.819 115.309 276.496C115.836 276.797 116.438 277.098 116.965 277.399L117.642 277.776C117.793 277.851 118.696 278.378 118.169 278.077C118.545 278.302 118.922 278.528 119.223 278.829C119.373 278.905 119.448 279.055 119.599 279.13C119.9 279.281 119.298 278.829 119.524 279.055C119.599 279.13 119.599 279.13 119.674 279.206C119.825 279.431 119.524 278.98 119.524 278.829C119.524 278.98 119.524 278.453 119.599 278.378C119.524 278.603 119.9 278.001 119.674 278.302C119.749 278.227 119.975 278.152 119.674 278.302C119.599 278.302 119.448 278.378 119.373 278.453C118.997 278.603 119.674 278.378 119.223 278.453C118.771 278.528 118.47 278.603 118.018 278.679C117.04 278.829 115.986 278.98 115.008 279.055C112.374 279.281 109.74 279.431 107.256 279.507C102.515 279.657 97.6979 279.808 92.9565 279.582L92.1286 279.507H91.8276C91.8276 279.356 92.4297 279.657 92.2039 279.582C92.7307 279.732 93.107 280.033 93.4081 280.485C93.2576 280.259 93.4833 280.861 93.4081 280.56C93.4081 280.41 93.3328 280.259 93.3328 280.184C93.3328 280.109 93.3328 280.033 93.2575 279.958C93.2575 279.883 93.2576 279.732 93.1823 279.657C93.107 278.905 93.1823 278.227 93.1823 277.475C93.2576 275.141 93.4833 272.884 93.7844 270.551C94.0854 268.594 90.5482 267.39 90.3224 269.346Z" fill="#000005"/>
<path d="M44.2615 169.024C44.2615 169.024 36.2838 273.335 38.2406 273.712C40.1974 274.088 59.991 275.593 60.7436 273.712C61.4962 271.83 69.5491 197.773 69.5491 197.773C69.5491 197.773 87.0849 274.841 89.418 274.841C91.7511 274.841 105.825 271.83 107.33 268.744C108.835 265.659 94.3852 171.808 94.3852 171.808L44.2615 169.024Z" fill="#000005"/>
<path d="M42.8293 168.422C42.6035 171.583 42.3025 174.819 42.0767 177.98C41.4746 185.807 40.9478 193.559 40.421 201.311C39.7436 210.944 39.0663 220.502 38.4642 230.136C37.8621 238.866 37.3353 247.596 36.959 256.326C36.7332 261.444 36.2816 266.637 36.5827 271.755C36.5827 272.432 36.7332 273.11 36.959 273.787C37.4858 275.142 38.5395 275.443 39.8189 275.593C44.3345 276.12 48.9255 276.346 53.5164 276.346C55.6237 276.421 57.6557 276.346 59.763 276.12C60.7414 275.969 61.8703 275.744 62.1714 274.615C62.5477 272.959 62.7735 271.303 62.924 269.648C63.9024 261.745 64.8055 253.918 65.7086 246.016C66.7623 236.457 67.8912 226.975 68.8696 217.416C69.5469 211.471 70.149 205.6 70.8264 199.655C70.8264 199.354 70.9016 199.053 70.9016 198.827L68.117 197.548C68.9449 201.16 69.7727 204.697 70.6006 208.31C72.4821 216.438 74.4389 224.566 76.3204 232.619C78.4277 241.274 80.535 249.854 82.7929 258.434C83.6207 261.67 84.5239 264.906 85.5023 268.218C86.0291 270.25 86.7064 272.282 87.5343 274.238C87.8353 275.142 88.5127 275.969 89.3406 276.496C89.8674 276.647 90.3942 276.722 90.921 276.572C91.8242 276.496 92.652 276.27 93.5552 276.12C96.0388 275.668 98.4471 274.991 100.855 274.238C103.113 273.636 105.221 272.733 107.177 271.529C108.081 271.002 108.683 270.099 108.758 269.045C108.758 268.443 108.758 267.917 108.758 267.314C108.683 265.132 108.457 262.874 108.156 260.691C107.328 253.165 106.35 245.639 105.296 238.113C104.016 228.931 102.737 219.75 101.382 210.568C100.178 202.364 98.974 194.161 97.6945 186.033C97.0172 181.592 96.3398 177.152 95.6625 172.711C95.6625 172.486 95.5872 172.335 95.5872 172.109C95.512 171.357 94.6841 170.228 93.8562 170.153L76.9225 169.249L49.9791 167.744L43.8077 167.368C41.8509 167.293 43.1304 170.679 44.5603 170.755L61.494 171.733L88.4374 173.238L94.6088 173.615L92.8778 171.658C93.3294 174.668 93.781 177.754 94.3078 180.764C95.4367 188.14 96.5656 195.516 97.6193 202.891C98.974 211.922 100.253 220.954 101.533 229.985C102.135 234.275 102.737 238.64 103.339 242.93C103.866 246.768 104.242 250.08 104.769 253.993C105.296 258.434 106.048 263.025 105.973 267.54C105.973 267.615 105.898 267.992 105.973 267.691C106.048 267.39 105.973 267.691 105.973 267.766C105.823 268.067 106.274 267.465 106.048 267.691C105.823 267.917 105.898 267.992 105.597 268.293C103.941 269.648 101.759 270.325 99.8018 270.927C97.4687 271.68 95.0604 272.282 92.5768 272.808C91.6737 273.034 90.7705 273.185 89.7921 273.335L88.9643 273.411C88.7385 273.411 88.588 273.335 89.0395 273.411C89.2653 273.486 89.4911 273.561 89.6416 273.712C89.8674 273.862 90.0179 274.013 90.1684 274.238C89.9427 273.937 90.2437 273.937 90.2437 274.389C90.1684 274.088 90.0179 273.862 89.8674 273.636C89.7169 273.26 89.5663 272.884 89.4911 272.583C89.4158 272.357 89.3406 272.131 89.2653 271.905L89.19 271.755C89.2653 272.131 89.1148 271.604 89.1148 271.529C88.2116 268.82 87.459 266.035 86.7064 263.326C84.5239 255.273 82.4918 247.069 80.535 238.941C78.503 230.512 76.471 222.083 74.5142 213.653C73.3853 208.761 72.2563 203.869 71.1274 198.978L70.9769 198.3C70.8264 197.548 70.2996 196.87 69.6222 196.494C69.1706 196.268 68.3428 196.343 68.2675 197.021C67.8159 201.16 67.3644 205.299 66.9128 209.439C65.9344 218.395 64.8808 227.426 63.9024 236.382C62.924 245.112 61.9456 253.918 60.8919 262.648C60.5909 265.358 60.2146 268.067 59.8383 270.701C59.763 271.379 59.6125 271.981 59.5372 272.658C59.462 273.335 59.462 272.658 59.6878 272.658C59.6125 272.658 59.5372 272.733 59.5372 272.808C59.2362 272.808 59.5372 272.808 59.462 272.884C59.1609 272.959 58.8599 273.034 58.5589 273.11C56.5268 273.335 54.57 273.486 52.538 273.411C50.0544 273.411 47.5708 273.26 45.0872 273.11C43.1304 272.959 41.1736 272.884 39.2168 272.658L38.3889 272.583C38.3137 272.583 38.2384 272.583 38.1631 272.583C37.7116 272.583 38.5395 272.808 38.69 272.884C38.991 273.185 39.2921 273.486 39.5178 273.937C39.8189 274.615 39.6684 274.389 39.5931 274.163C39.5178 273.787 39.5931 274.238 39.5931 274.314C39.5931 274.163 39.5931 274.088 39.5931 273.937C39.5931 273.636 39.5931 273.335 39.5178 272.959C39.5178 272.056 39.5178 271.153 39.5178 270.25C39.5178 267.54 39.6684 264.756 39.7436 261.971C40.1199 253.843 40.5715 245.639 41.0983 237.511C41.7004 227.953 42.3025 218.47 42.9798 208.912C43.5819 200.633 44.184 192.355 44.7861 184.076C45.0872 179.635 45.4635 175.195 45.7645 170.83L45.8398 170.228C45.7645 168.271 43.0551 166.164 42.8293 168.422Z" fill="#000005"/>
<path d="M39.5957 170.604C39.5957 170.604 59.0883 98.5795 80.2366 110.697C117.717 132.071 109.814 180.614 109.814 180.614C109.814 180.614 50.9601 190.172 39.5957 170.604Z" fill="white"/>
<path d="M41.4773 170.378C42.0041 168.421 42.6062 166.54 43.2083 164.583C44.6382 159.842 46.2187 155.175 47.9497 150.585C50.057 144.714 52.3901 138.994 55.0995 133.35C57.5831 127.931 60.5935 122.813 64.1308 117.997C65.636 116.04 67.2918 114.234 69.1733 112.578C70.0012 111.9 70.9043 111.298 71.8074 110.696C72.1837 110.47 72.6353 110.245 73.0116 110.094C73.3879 109.944 73.7642 109.793 74.1405 109.718C74.3663 109.643 73.8395 109.793 74.2158 109.718C73.8395 109.793 74.291 109.718 74.2158 109.718L73.9147 109.793C73.9147 109.793 73.5384 109.868 73.7642 109.793C73.5384 109.793 73.8395 109.793 73.7642 109.793C73.99 109.793 73.8395 109.793 73.9147 109.793L74.6673 109.868C75.5705 110.019 76.4736 110.245 77.3015 110.621C78.9572 111.374 80.4624 112.352 81.9676 113.33C83.7739 114.535 85.5802 115.889 87.2359 117.319C93.1815 122.437 97.9982 128.759 101.385 135.909C104.32 142.155 106.352 148.778 107.481 155.627C108.384 161.046 108.761 166.615 108.61 172.109C108.61 174.969 108.384 177.829 108.008 180.689C108.008 180.839 107.933 180.915 107.933 181.065L109.739 180.538C109.212 180.614 108.685 180.689 108.158 180.764L107.331 180.839C107.707 180.764 107.707 180.764 107.331 180.839L106.728 180.915L104.245 181.216C103.266 181.366 102.213 181.442 101.234 181.592L100.557 181.667C100.482 181.667 100.03 181.743 100.482 181.667L100.03 181.743L98.224 181.893C95.5899 182.119 92.8805 182.345 90.3969 182.495C84.376 182.871 78.2799 182.871 72.1837 182.495C66.1629 182.194 60.2172 181.216 54.4974 179.485C49.4549 177.678 44.2619 175.12 41.4773 170.378C41.3268 170.077 39.8968 170.378 39.5958 170.453C39.4452 170.453 37.7142 170.83 37.7895 170.98C40.2731 175.195 44.7135 177.829 49.2292 179.485C54.8737 181.592 60.9699 182.495 66.9155 183.022C78.5809 184 90.3969 183.323 101.987 182.044C104.621 181.743 107.255 181.442 109.889 180.99C110.115 180.99 111.696 180.839 111.696 180.463C111.997 178.431 112.223 176.324 112.298 174.216C112.524 169.023 112.373 163.83 111.771 158.713C111.018 151.939 109.287 145.241 106.728 138.919C103.793 131.619 99.4282 124.921 93.8589 119.351C90.7732 116.266 87.3112 113.631 83.6234 111.374C81.5161 110.094 79.484 109.116 77.0004 109.041C71.958 108.965 67.1412 111.073 63.7545 114.685C59.7657 118.674 56.7552 123.641 54.0459 128.608C51.0354 134.328 48.4013 140.199 46.0682 146.219C44.0361 151.412 42.1546 156.681 40.4989 162.024C39.5958 164.884 38.6926 167.744 37.94 170.604L37.7895 171.056C37.7895 171.206 39.5205 170.98 39.671 170.98C39.9721 170.83 41.3268 170.754 41.4773 170.378Z" fill="#000005"/>
<path d="M46.4453 73.5925C47.499 70.0553 50.8105 60.1961 56.3045 59.0672C61.7986 57.9383 67.4431 59.5187 67.8947 61.8518C67.8947 61.8518 72.034 61.4755 73.0877 64.1849C75.496 64.7117 77.3776 66.4427 78.1302 68.8511C79.3344 72.8399 78.5817 81.9465 75.5713 81.9465C72.5609 81.9465 72.5609 73.6678 72.5609 73.6678C72.5609 73.6678 71.0557 75.3988 69.2494 74.872C69.2494 74.872 70.6041 77.8824 68.1957 79.9897C65.7874 82.097 61.7986 80.9681 61.7986 80.9681C61.7986 80.9681 39.5213 104.751 40.8008 105.578C42.0802 106.406 56.0035 108.288 56.0035 108.288C56.0035 108.288 46.8969 128.307 42.9081 128.458C38.9192 128.608 9.94379 118.599 13.9326 104.976C17.9215 91.3541 46.4453 73.5925 46.4453 73.5925Z" fill="white"/>
<path d="M48.0981 74.2699C49.0012 71.109 50.2806 68.0986 51.8611 65.3139C52.7642 63.7334 53.8932 62.3787 55.3231 61.3251C57.0541 60.1209 59.3872 60.0456 61.4193 60.1209C62.6234 60.1209 63.8276 60.3467 65.0318 60.7982L65.5586 61.024L65.8596 61.1745L66.0854 61.3251C65.9349 61.2498 66.1607 61.4003 66.1607 61.4003C66.0102 61.2498 66.1607 61.3251 66.1607 61.4756C66.0854 61.3251 66.1607 61.5509 66.1607 61.6261C66.537 62.6798 67.5154 63.3571 68.569 63.3571C68.7948 63.3571 69.0206 63.3571 69.2464 63.3571C69.7732 63.3571 70.3 63.4324 70.7516 63.5829C70.9774 63.5829 71.2032 63.7334 71.3537 63.9592C71.73 64.7871 72.4826 65.4644 73.3857 65.6902L73.6115 65.7655C74.0631 65.916 73.3105 65.6149 73.762 65.7655C73.9878 65.8407 74.2136 65.916 74.3641 65.9912C74.5147 66.0665 73.9878 65.7655 74.4394 66.0665C74.5899 66.1418 74.7404 66.217 74.891 66.3675C74.6652 66.217 75.2673 66.6686 75.4178 66.8191C75.5683 66.9696 75.7188 67.1954 75.7941 67.3459C76.1704 68.0233 76.4714 68.7006 76.5467 69.4532C77.0735 72.3132 76.9983 75.3236 76.2457 78.1835C76.0199 79.1619 75.493 80.065 74.7404 80.6671C74.7404 80.7424 74.891 80.5166 74.7404 80.6671H74.5899C74.6652 80.6671 74.8157 80.6671 74.891 80.6671C74.5899 80.5919 75.493 81.0434 75.4178 80.9682C75.5683 81.0434 75.3425 80.8929 75.3425 80.8929C75.192 80.6671 75.0415 80.3661 74.9662 80.1403C74.3641 78.2588 74.0631 76.3773 74.1383 74.4205C74.1383 73.0658 71.8805 71.5605 70.8269 72.7647C70.9774 72.6142 70.9774 72.6142 70.8269 72.7647C70.6763 72.9152 70.4506 73.0658 70.2248 73.2163C69.8485 73.5173 69.3216 73.6679 68.7948 73.5926C67.8164 73.3668 67.1391 73.9689 67.5154 74.9473C67.5906 75.0226 67.5906 75.1731 67.4401 74.7968C67.5154 74.9473 67.5154 75.0978 67.5906 75.2483C67.6659 75.6246 67.7412 75.9257 67.7412 76.302C67.7412 77.5062 67.0638 78.6351 66.0102 79.2372C64.5802 79.9898 62.8492 80.1403 61.344 79.6135C60.8924 79.4629 60.3656 79.6135 60.0646 79.9898C55.6242 84.8065 51.1838 89.6984 46.8939 94.5904C44.4103 97.2998 42.0772 100.084 39.9699 103.02C39.4431 103.772 38.7657 104.675 39.2173 105.578C40.0452 107.159 42.5288 107.46 44.1092 107.761C48.0981 108.514 52.2374 109.116 56.3015 109.643L54.3447 107.385C53.3663 109.567 52.2374 111.75 51.1838 113.857C49.3775 117.62 47.2702 121.157 44.7866 124.544C44.335 125.146 43.8082 125.673 43.2814 126.2C43.0556 126.426 42.8298 126.576 42.604 126.802L42.303 127.028C42.9051 126.652 43.0556 125.824 42.604 125.222C42.2277 124.619 41.3998 124.469 40.7978 124.921C40.1957 125.372 40.0452 126.125 40.4967 126.727C40.873 127.254 41.6256 127.404 42.1525 127.103C42.0772 127.178 42.0019 127.178 41.8514 127.178C41.7762 127.178 42.2277 127.178 41.9267 127.178C41.6256 127.178 41.2493 127.103 41.7762 127.178C41.2493 127.103 40.7225 127.028 40.2709 126.877C39.5936 126.727 38.9162 126.576 38.2389 126.35L37.7121 126.2L37.4863 126.125L36.2068 125.673C34.3253 124.996 32.5191 124.318 30.7128 123.491C26.9498 121.835 23.4125 119.728 20.2515 117.093C17.7679 114.986 15.3596 112.126 15.2091 108.664C15.0585 104.826 17.6174 101.138 19.8752 98.2782C22.9609 94.4399 26.4229 90.9779 30.186 87.8922C35.68 83.3013 41.4751 79.0866 47.4207 75.1731L47.7218 74.9473C49.0765 74.0442 46.2165 71.7863 44.9371 72.5389C39.5183 75.9257 34.3253 79.6887 29.3581 83.7528C25.294 86.989 21.531 90.6016 18.069 94.4399C15.3596 97.6008 12.4997 101.439 11.8223 105.654C11.2202 109.643 13.3275 113.406 15.9617 116.266C19.1979 119.577 22.9609 122.286 27.1755 124.243C30.9386 126.2 34.7769 127.78 38.841 128.909C41.0988 129.587 43.7329 130.49 45.765 128.759C47.0444 127.555 48.1733 126.2 49.1517 124.695C50.4312 122.813 51.4848 120.932 52.6137 118.975C54.2695 115.964 55.8499 112.879 57.2799 109.718L57.5057 109.191C57.9572 108.137 56.5273 107.008 55.6242 106.858C52.3127 106.406 48.9259 105.955 45.6145 105.353C44.6361 105.202 43.5824 104.976 42.604 104.751C42.2277 104.675 41.8514 104.6 41.5504 104.525L41.0988 104.374C41.3246 104.525 41.3998 104.45 41.0988 104.374C41.6256 104.751 42.0772 105.202 42.3782 105.729C42.303 105.578 42.4535 106.105 42.3782 105.955C42.303 105.804 42.3782 105.955 42.3782 106.03C42.3782 105.955 42.4535 105.88 42.4535 105.804C42.6793 105.428 42.9051 105.052 43.1309 104.751C45.1629 101.966 47.4207 99.2566 49.7538 96.6977C52.5385 93.4615 55.3984 90.3005 58.3336 87.1396C59.9893 85.3333 61.645 83.527 63.3008 81.7208L62.0213 82.0971C64.2792 82.6992 67.1391 82.6992 69.0959 81.3445C71.2784 79.8392 71.73 77.0546 70.6763 74.7215L69.3969 76.0762C71.1279 76.5278 72.9342 75.9257 74.0631 74.571L70.7516 72.9152C70.7516 74.7215 70.9021 76.4525 71.3537 78.1835C71.9558 80.5919 73.8373 83.9786 76.923 83.226C79.3313 82.6239 79.9334 79.0866 80.1592 77.0546C80.5355 74.1194 80.5355 70.7327 79.3314 68.0233C78.0519 65.3892 75.6436 63.5076 72.7836 62.9055L74.6652 64.2602C73.5363 61.4756 69.999 60.2714 67.2143 60.4972L69.6227 62.2282C69.0206 59.7446 66.1607 58.4652 63.9781 57.8631C60.9677 57.0352 57.882 57.0352 54.8716 57.7878C50.8075 58.9167 48.3991 63.5076 46.8186 67.0449C45.9908 68.9264 45.3134 70.8832 44.7113 72.9152C44.335 74.2699 47.6465 75.9257 48.0981 74.2699Z" fill="#000005"/>
<path d="M66.2371 65.9915C66.1618 68.4751 64.6566 70.6576 62.474 71.7113C61.4956 72.2381 60.3667 72.4639 59.2378 72.4639C59.3883 72.4639 59.3131 72.4639 59.0873 72.4639C59.1625 72.4639 59.2378 72.4639 59.3131 72.5392C59.3131 72.5392 59.012 72.4639 59.2378 72.5392C59.2378 72.5392 59.012 72.4639 59.0873 72.4639C58.711 72.3134 58.3347 72.0876 58.0336 71.8618C56.98 70.9587 56.2274 69.2277 57.4315 68.174C57.9584 67.7225 58.4852 67.4967 59.1625 67.3462C59.3883 67.2709 59.6894 67.1956 59.9152 67.1956C60.1409 67.1956 60.3667 67.1204 59.9904 67.1956C60.0657 67.1956 60.5925 67.1956 60.5925 66.9699L60.6678 65.5399C60.743 64.7873 56.98 64.3357 56.98 64.8625L56.9047 66.2925L57.5068 66.0667C56.3026 66.142 55.1737 66.5183 54.1201 67.1204C52.5396 68.2493 53.0664 70.2813 54.4211 71.4102C55.4748 72.2381 56.6789 72.8402 57.9584 73.1412C59.5389 73.5928 61.2699 73.7433 62.9256 73.5928C65.3339 73.4423 67.5165 72.1629 68.8712 70.2061C69.5486 69.2277 69.9249 68.0235 70.0001 66.8193C69.9249 65.9915 66.2371 65.6152 66.2371 65.9915Z" fill="#000005"/>
<path d="M72.7097 70.8083C72.3334 71.5609 71.9571 72.3135 71.3551 72.9908C70.9035 73.5929 70.3014 74.1198 69.6993 74.5713C69.5488 74.6466 69.3983 74.7971 69.2477 74.8724L68.9467 75.0229L68.7962 75.0981C68.6457 75.1734 69.022 75.0229 68.7962 75.0981C68.5704 75.1734 69.0972 75.0229 68.7962 75.0981C69.0972 75.0229 69.7746 74.8724 70.0004 74.8724C69.8498 74.8724 70.1509 74.8724 70.1509 74.8724H69.7746C68.4199 74.6466 67.1404 74.1198 66.0868 73.2166C65.9363 73.1414 65.7105 73.1414 65.4847 73.1414C65.0331 73.1414 64.5816 73.2166 64.13 73.3671C63.6784 73.4424 63.3021 73.5929 62.8506 73.6682C62.7753 73.6682 62.2485 73.894 62.3237 73.9692C63.4527 74.8724 64.7321 75.4744 66.162 75.7002C68.0436 75.8508 69.8498 75.5497 71.5808 74.8724C73.3118 74.195 74.7418 72.8403 75.6449 71.2598C75.8707 70.8835 76.0212 70.5072 76.247 70.1309C76.3223 70.0557 75.5697 70.0557 75.6449 70.0557C75.1934 70.0557 74.7418 70.1309 74.2902 70.2814C73.8387 70.3567 73.4624 70.5072 73.0108 70.5825C73.0108 70.6578 72.785 70.6578 72.7097 70.8083Z" fill="#000005"/>
<path d="M58.1843 71.4102C57.4317 71.4102 56.6791 71.5607 56.0017 71.8617C54.7223 72.5391 53.8944 73.969 54.045 75.4742C54.1202 78.1836 56.5286 79.8394 58.8617 80.6672C59.539 80.9683 60.2916 81.1188 60.969 81.2693C61.7968 81.4199 63.001 81.1188 63.302 80.1404C63.4526 79.3126 62.9257 78.4094 62.0979 78.2589H62.0226C61.6463 78.1836 61.1947 78.0331 60.8184 77.9579C60.4421 77.8826 61.1947 78.1084 60.969 78.0331L60.5927 77.8826L59.9906 77.6568L59.3885 77.3558L59.0874 77.2052L59.0122 77.13C58.6359 76.9042 59.3132 77.3558 59.0874 77.2052C58.8617 77.0547 58.7864 76.9795 58.5606 76.8289C58.3348 76.6784 58.4101 76.6784 58.3348 76.6032C58.2596 76.5279 58.2596 76.5279 58.1843 76.4526C58.1843 76.5279 58.4854 76.8289 58.3348 76.6032C58.1843 76.3774 58.109 76.2269 57.9585 76.0763C57.808 75.9258 57.9585 75.8506 58.0338 76.3021C58.0338 76.2269 57.9585 76.1516 57.9585 76.1516C57.8833 76.0763 57.8833 75.9258 57.8833 75.8506C57.8833 75.7753 57.808 75.7 57.808 75.7C57.808 75.7 57.8833 76.1516 57.8833 75.9258C57.8833 75.7 57.8833 75.6248 57.8833 75.4742C57.8833 75.3237 57.8833 75.1732 57.8833 75.0227C57.8833 74.7969 57.8833 75.1732 57.8833 75.1732C57.8833 75.1732 57.9585 74.9474 57.9585 74.8722C57.9585 74.7969 58.0338 74.7216 58.0338 74.5711C58.0338 74.4206 57.808 74.9474 57.9585 74.7216L58.0338 74.6464L58.109 74.4959C58.1843 74.3453 57.9585 74.7216 57.9585 74.7216L58.1843 74.4959C58.3348 74.3453 57.8833 74.6464 57.9585 74.6464C58.0338 74.6464 58.0338 74.5711 58.109 74.5711L58.1843 74.4959C58.4101 74.3453 57.9585 74.5711 57.8833 74.5711C58.0338 74.5711 58.1843 74.4959 58.3348 74.4959C58.2596 74.4959 57.7327 74.5711 58.0338 74.4959H58.3348C59.3132 74.5711 60.1411 73.8185 60.2164 72.9154C60.0658 71.937 59.1627 71.4102 58.1843 71.4102Z" fill="#000005"/>
<path d="M54.722 136.962C54.722 136.962 16.4142 129.436 11.9738 112.051C7.5334 94.6657 40.1214 73.8184 42.4545 74.1194C44.7875 74.4205 58.2592 85.258 57.6572 86.9138C57.0551 88.5695 45.6907 102.418 45.6907 102.418C45.6907 102.418 80.5365 107.159 81.3643 114.459" fill="white"/>
<path d="M55.4001 135.457C54.798 135.307 54.1206 135.156 53.5186 135.006L52.6154 134.78L52.0133 134.629L51.637 134.554C50.7339 134.328 49.8308 134.103 48.8524 133.802C43.8099 132.447 38.9179 130.791 34.1012 128.759C28.9082 126.577 23.7905 123.867 19.5759 120.104C15.9634 116.868 13.0282 112.503 13.254 107.611C13.4798 102.117 16.716 97.1496 20.1027 93.0102C23.941 88.4945 28.3814 84.4305 33.1981 80.8932C33.7249 80.5169 34.1765 80.1406 34.7033 79.7643L35.4559 79.2375L35.5312 79.1622L35.9828 78.8612C36.8859 78.2591 37.789 77.657 38.6922 77.1301C39.4448 76.6786 40.1221 76.3023 40.8747 75.926L41.7779 75.6249C42.0036 75.5497 41.251 75.7755 41.7026 75.6249L42.0789 75.4744C41.6273 75.4744 42.5305 75.2486 42.0789 75.4744C41.7779 75.4744 41.5521 75.4744 41.7779 75.4744C41.251 75.4744 41.4768 75.3991 41.5521 75.3991C41.6273 75.3991 41.9284 75.5497 42.0789 75.6249C42.9068 76.0012 43.6594 76.4528 44.3367 76.9796C46.6698 78.5601 48.8524 80.2911 51.035 82.0974C52.0133 83.0005 53.067 83.8284 53.9701 84.8068C54.3464 85.1831 54.7227 85.5594 55.099 86.0109L55.3248 86.2367C55.4753 86.3872 55.099 86.0109 55.3248 86.312C55.4753 86.4625 55.5506 86.613 55.7011 86.8388C55.8516 87.0646 55.8516 87.1398 55.9269 87.2904C55.9269 86.9893 56.0022 87.4409 55.9269 87.2904C55.9269 87.1398 56.0774 86.6883 56.0022 86.8388C55.9269 86.9893 55.8516 87.0646 55.7764 87.2151C55.9269 86.9141 55.8516 87.1399 55.7011 87.3656L55.4001 87.8172C55.099 88.2688 54.7227 88.7203 54.4217 89.1719C51.4113 93.236 48.2503 97.1495 45.0141 100.988L44.2615 101.891C43.8099 102.343 43.7346 103.095 44.1862 103.547C44.412 103.773 44.6378 103.848 44.9388 103.923C48.7771 104.45 52.6154 105.127 56.4537 105.88C62.7757 107.159 69.3233 108.514 75.1937 111.299C76.3226 111.75 77.3763 112.428 78.3547 113.255C78.5804 113.406 78.731 113.632 78.9567 113.782L79.032 113.857C78.8815 113.707 79.2578 114.083 79.032 113.857C79.1073 113.933 79.1825 114.008 79.1825 114.083C79.333 114.309 79.4083 114.46 79.4836 114.685C79.4083 114.384 79.5588 114.911 79.4836 114.685C79.4836 114.836 79.5588 114.911 79.5588 115.062C79.7846 117.018 83.3219 115.664 83.0961 113.933C82.7951 111.75 80.6125 110.32 78.8815 109.342C76.1721 107.912 73.2369 106.783 70.3017 105.955C63.9046 104.149 57.4321 102.719 50.8844 101.74C49.3792 101.515 47.9492 101.289 46.444 101.063L47.1214 103.095C49.9813 99.6332 52.7659 96.2464 55.4753 92.7092C56.9053 91.0534 58.1847 89.3224 59.2384 87.4409C60.1415 85.7099 58.1847 84.0541 57.0558 82.9252C54.9485 80.8932 52.7659 79.0117 50.4329 77.2054C48.5513 75.6249 46.444 74.195 44.2615 73.0661C42.8315 72.3887 41.5521 72.9155 40.2726 73.5176C38.5416 74.3455 36.9612 75.3239 35.3807 76.3775C30.3382 79.689 25.672 83.4521 21.4574 87.6667C17.0923 92.1071 12.8777 97.2248 10.8456 103.246C9.86723 105.955 9.64145 108.815 10.0178 111.6C10.5446 114.159 11.5982 116.642 13.254 118.674C16.7912 123.416 21.909 126.652 27.1772 129.361C35.5312 133.501 44.412 136.511 53.5938 138.393L54.1206 138.468C55.7011 138.769 57.6579 135.909 55.4001 135.457Z" fill="#000005"/>
<path d="M75.7962 287.408C75.7962 287.408 181.011 313.223 194.558 313.223C208.105 313.223 306.546 286.731 315.352 277.248C324.157 267.765 338.457 176.775 338.457 176.775L56.8304 180.162C56.7552 180.162 68.2701 275.216 75.7962 287.408Z" fill="white"/>
<path d="M75.944 288.989C82.4917 290.569 89.0394 292.15 95.5871 293.73C109.811 297.117 124.036 300.428 138.26 303.74C152.033 306.901 165.806 309.986 179.654 312.621C183.943 313.448 188.309 314.276 192.674 314.728C195.609 314.954 198.619 314.728 201.479 314.126C214.198 312.018 226.692 308.707 239.11 305.471C254.689 301.331 270.268 296.891 285.546 291.924C291.717 289.892 297.888 287.784 303.909 285.301C307.748 283.796 311.812 282.14 315.198 279.732C317.757 277.85 318.961 274.614 320.015 271.754C321.972 266.185 323.628 260.54 324.982 254.82C328.67 240.069 331.53 225.092 334.239 210.115C336.121 199.804 337.927 189.494 339.583 179.183L339.809 177.603C339.884 176.323 338.981 175.269 337.701 175.119L330.1 175.194L309.704 175.42L279.299 175.796L242.421 176.248L201.78 176.775L161.064 177.226L122.832 177.678L90.6952 178.054L67.4395 178.355C63.827 178.355 60.1392 178.355 56.5267 178.506H56.0751C55.4731 178.506 55.0215 178.957 55.0215 179.559C55.0215 179.635 55.0215 179.71 55.0215 179.71C56.3762 190.773 57.8061 201.761 59.3866 212.825C62.0208 231.715 64.8054 250.606 68.7942 269.27C69.6221 273.109 70.45 276.947 71.5789 280.785C72.181 283.269 73.0841 285.602 74.2883 287.86C74.6646 288.537 75.643 289.365 76.4708 289.064C77.2987 288.763 77.2235 287.634 76.8471 287.032C76.6214 286.731 76.4708 286.355 76.3203 286.053C76.1698 285.752 76.4708 286.355 76.1698 285.752C76.0193 285.451 75.944 285.226 75.8688 285C75.4172 283.871 75.0409 282.667 74.6646 281.538C73.6862 278.377 72.9336 275.141 72.2562 271.904C70.2994 263.249 68.7942 254.519 67.3643 245.789C64.4291 228.027 61.9455 210.19 59.6124 192.354C59.0856 188.44 58.634 184.602 58.1072 180.688L57.1288 181.892L64.7301 181.817L85.2011 181.591L115.607 181.215L152.484 180.763L193.125 180.312L233.841 179.86L272.074 179.409L304.21 179.032L327.466 178.731C331.078 178.656 334.766 178.807 338.379 178.581H338.83L336.723 176.097C335.594 183.548 334.315 190.924 332.96 198.375C330.401 213.201 327.616 227.952 324.38 242.628C322.875 249.251 321.37 255.799 319.488 262.271C318.284 266.486 317.08 270.926 314.822 274.689C314.672 274.99 314.446 275.216 314.295 275.517C313.994 275.893 314.295 275.592 313.919 275.969C313.467 276.345 313.016 276.721 312.564 277.097C311.21 278.001 309.704 278.828 308.199 279.506C303.232 281.839 298.039 283.871 292.846 285.602C278.17 290.795 263.268 295.16 248.291 299.299C234.443 303.138 220.52 306.75 206.446 309.685C202.608 310.589 198.695 311.266 194.781 311.567C191.62 311.717 188.835 311.115 185.825 310.664C173.181 308.556 160.688 305.772 148.194 302.987C133.368 299.676 118.617 296.289 103.866 292.752C94.8345 290.569 85.8032 288.387 76.7719 286.204L75.4172 285.903C73.3851 285.226 74.2883 288.612 75.944 288.989Z" fill="#59BE4C"/>
<path d="M75.944 288.989C82.4917 290.569 89.0394 292.15 95.5871 293.73C109.811 297.117 124.036 300.428 138.26 303.74C152.033 306.901 165.806 309.986 179.654 312.621C183.943 313.448 188.309 314.276 192.674 314.728C195.609 314.954 198.619 314.728 201.479 314.126C214.198 312.018 226.692 308.707 239.11 305.471C254.689 301.331 270.268 296.891 285.546 291.924C291.717 289.892 297.888 287.784 303.909 285.301C307.748 283.796 311.812 282.14 315.198 279.732C317.757 277.85 318.961 274.614 320.015 271.754C321.972 266.185 323.628 260.54 324.982 254.82C328.67 240.069 331.53 225.092 334.239 210.115C336.121 199.804 337.927 189.494 339.583 179.183L339.809 177.603C339.884 176.323 338.981 175.269 337.701 175.119L330.1 175.194L309.704 175.42L279.299 175.796L242.421 176.248L201.78 176.775L161.064 177.226L122.832 177.678L90.6952 178.054L67.4395 178.355C63.827 178.355 60.1392 178.355 56.5267 178.506H56.0751C55.4731 178.506 55.0215 178.957 55.0215 179.559C55.0215 179.635 55.0215 179.71 55.0215 179.71C56.3762 190.773 57.8061 201.761 59.3866 212.825C62.0208 231.715 64.8054 250.606 68.7942 269.27C69.6221 273.109 70.45 276.947 71.5789 280.785C72.181 283.269 73.0841 285.602 74.2883 287.86C74.6646 288.537 75.643 289.365 76.4708 289.064C77.2987 288.763 77.2235 287.634 76.8471 287.032C76.6214 286.731 76.4708 286.355 76.3203 286.053C76.1698 285.752 76.4708 286.355 76.1698 285.752C76.0193 285.451 75.944 285.226 75.8688 285C75.4172 283.871 75.0409 282.667 74.6646 281.538C73.6862 278.377 72.9336 275.141 72.2562 271.904C70.2994 263.249 68.7942 254.519 67.3643 245.789C64.4291 228.027 61.9455 210.19 59.6124 192.354C59.0856 188.44 58.634 184.602 58.1072 180.688L57.1288 181.892L64.7301 181.817L85.2011 181.591L115.607 181.215L152.484 180.763L193.125 180.312L233.841 179.86L272.074 179.409L304.21 179.032L327.466 178.731C331.078 178.656 334.766 178.807 338.379 178.581H338.83L336.723 176.097C335.594 183.548 334.315 190.924 332.96 198.375C330.401 213.201 327.616 227.952 324.38 242.628C322.875 249.251 321.37 255.799 319.488 262.271C318.284 266.486 317.08 270.926 314.822 274.689C314.672 274.99 314.446 275.216 314.295 275.517C313.994 275.893 314.295 275.592 313.919 275.969C313.467 276.345 313.016 276.721 312.564 277.097C311.21 278.001 309.704 278.828 308.199 279.506C303.232 281.839 298.039 283.871 292.846 285.602C278.17 290.795 263.268 295.16 248.291 299.299C234.443 303.138 220.52 306.75 206.446 309.685C202.608 310.589 198.695 311.266 194.781 311.567C191.62 311.717 188.835 311.115 185.825 310.664C173.181 308.556 160.688 305.772 148.194 302.987C133.368 299.676 118.617 296.289 103.866 292.752C94.8345 290.569 85.8032 288.387 76.7719 286.204L75.4172 285.903C73.3851 285.226 74.2883 288.612 75.944 288.989Z" fill="url(#paint0_linear_351_7669)"/>
<path d="M56.7538 180.162C56.7538 180.162 206.749 159.766 216.909 159.766C227.069 159.766 339.057 169.926 338.38 176.775C337.703 183.548 214.2 202.589 197.567 202.589C180.934 202.589 48.6257 187.688 56.7538 180.162Z" fill="#59BE4C"/>
<path d="M56.7538 180.162C56.7538 180.162 206.749 159.766 216.909 159.766C227.069 159.766 339.057 169.926 338.38 176.775C337.703 183.548 214.2 202.589 197.567 202.589C180.934 202.589 48.6257 187.688 56.7538 180.162Z" fill="url(#paint1_linear_351_7669)"/>
<path d="M57.0545 181.817L68.2683 180.312C77.676 179.032 87.0083 177.828 96.4159 176.549C108.834 174.893 121.177 173.237 133.595 171.582C146.163 169.926 158.657 168.345 171.225 166.69C181.385 165.41 191.621 164.131 201.781 162.927C206.748 162.324 211.866 161.497 216.833 161.497C223.607 161.497 230.38 162.324 237.079 162.927C249.196 163.98 261.313 165.184 273.43 166.539C285.923 167.894 298.491 169.399 310.91 171.356C315.801 172.108 320.693 172.936 325.51 173.915C327.392 174.291 329.273 174.743 331.079 175.194C331.832 175.345 332.509 175.57 333.262 175.796L334.24 176.097L334.617 176.248C335.068 176.398 334.391 176.172 334.692 176.323C335.144 176.474 335.595 176.699 336.047 176.925L336.498 177.226C336.498 177.226 336.272 176.925 336.573 177.301C336.875 177.678 336.348 176.925 336.573 177.226C336.498 177.076 336.498 176.925 336.498 176.775C336.498 176.549 336.649 176.398 336.799 176.248C336.724 176.323 336.573 176.398 336.498 176.549C336.197 176.85 336.95 176.323 336.348 176.624C335.971 176.85 335.52 177.076 335.144 177.226C334.918 177.301 334.692 177.452 334.391 177.527L333.939 177.678C333.488 177.904 334.24 177.602 333.864 177.753C333.187 177.979 332.509 178.205 331.907 178.43C323.027 181.29 313.845 183.097 304.738 184.903C291.944 187.462 279.074 189.719 266.205 191.827C253.485 193.934 240.766 195.816 227.972 197.622C219.242 198.826 210.436 200.03 201.631 200.708C196.137 201.084 190.643 200.557 185.149 200.105C174.612 199.202 164.151 198.149 153.689 196.945C140.745 195.439 127.875 193.859 114.93 192.053C103.265 190.397 91.5992 188.666 80.009 186.483C75.7192 185.655 71.354 184.752 67.1394 183.699C65.5589 183.322 63.9785 182.871 62.4733 182.344L61.5701 182.043L61.1186 181.892L60.8928 181.817C60.3659 181.591 59.9144 181.441 59.4628 181.215C59.0865 181.064 58.7855 180.839 58.4092 180.613C58.1834 180.462 58.7855 180.763 58.3339 180.538C58.2586 180.462 58.1834 180.312 58.1081 180.237C58.4844 180.613 58.2586 180.538 58.1834 180.312C58.4092 180.839 58.3339 180.688 58.2586 180.538C58.1834 180.387 58.2586 180.989 58.2586 180.839C58.1834 181.064 58.1081 181.215 57.9576 181.365C59.6886 179.71 57.2802 177.452 55.6245 179.032C51.1089 183.247 61.7959 185.881 64.0537 186.483C73.3861 189.042 83.0947 190.623 92.6529 192.128C105.447 194.235 118.317 195.966 131.186 197.622C143.755 199.202 156.248 200.632 168.817 201.987C177.246 202.815 185.675 203.718 194.18 204.17C200.05 204.471 205.996 203.718 211.866 203.041C223.381 201.686 234.896 200.03 246.336 198.374C259.807 196.342 273.204 194.16 286.676 191.751C298.266 189.644 309.931 187.462 321.446 184.752C325.284 183.849 329.198 182.871 332.961 181.591C335.068 180.914 337.702 180.161 339.358 178.581C344.1 174.065 331.682 171.657 329.499 171.13C318.962 168.722 308.275 167.367 297.588 165.937C284.418 164.206 271.247 162.776 258.076 161.421C247.465 160.368 236.853 159.389 226.166 158.561C221.801 158.11 217.435 158.035 213.07 158.336C205.243 159.088 197.491 160.067 189.739 161.045C177.848 162.475 165.882 163.98 153.991 165.561C140.97 167.292 127.875 168.947 114.855 170.678C103.415 172.184 91.9755 173.689 80.5359 175.269L59.5381 178.129L56.6782 178.506C55.6998 178.731 55.0977 179.634 55.1729 180.613C55.0977 181.667 56.1513 181.968 57.0545 181.817Z" fill="#59BE4C"/>
<path d="M57.0545 181.817L68.2683 180.312C77.676 179.032 87.0083 177.828 96.4159 176.549C108.834 174.893 121.177 173.237 133.595 171.582C146.163 169.926 158.657 168.345 171.225 166.69C181.385 165.41 191.621 164.131 201.781 162.927C206.748 162.324 211.866 161.497 216.833 161.497C223.607 161.497 230.38 162.324 237.079 162.927C249.196 163.98 261.313 165.184 273.43 166.539C285.923 167.894 298.491 169.399 310.91 171.356C315.801 172.108 320.693 172.936 325.51 173.915C327.392 174.291 329.273 174.743 331.079 175.194C331.832 175.345 332.509 175.57 333.262 175.796L334.24 176.097L334.617 176.248C335.068 176.398 334.391 176.172 334.692 176.323C335.144 176.474 335.595 176.699 336.047 176.925L336.498 177.226C336.498 177.226 336.272 176.925 336.573 177.301C336.875 177.678 336.348 176.925 336.573 177.226C336.498 177.076 336.498 176.925 336.498 176.775C336.498 176.549 336.649 176.398 336.799 176.248C336.724 176.323 336.573 176.398 336.498 176.549C336.197 176.85 336.95 176.323 336.348 176.624C335.971 176.85 335.52 177.076 335.144 177.226C334.918 177.301 334.692 177.452 334.391 177.527L333.939 177.678C333.488 177.904 334.24 177.602 333.864 177.753C333.187 177.979 332.509 178.205 331.907 178.43C323.027 181.29 313.845 183.097 304.738 184.903C291.944 187.462 279.074 189.719 266.205 191.827C253.485 193.934 240.766 195.816 227.972 197.622C219.242 198.826 210.436 200.03 201.631 200.708C196.137 201.084 190.643 200.557 185.149 200.105C174.612 199.202 164.151 198.149 153.689 196.945C140.745 195.439 127.875 193.859 114.93 192.053C103.265 190.397 91.5992 188.666 80.009 186.483C75.7192 185.655 71.354 184.752 67.1394 183.699C65.5589 183.322 63.9785 182.871 62.4733 182.344L61.5701 182.043L61.1186 181.892L60.8928 181.817C60.3659 181.591 59.9144 181.441 59.4628 181.215C59.0865 181.064 58.7855 180.839 58.4092 180.613C58.1834 180.462 58.7855 180.763 58.3339 180.538C58.2586 180.462 58.1834 180.312 58.1081 180.237C58.4844 180.613 58.2586 180.538 58.1834 180.312C58.4092 180.839 58.3339 180.688 58.2586 180.538C58.1834 180.387 58.2586 180.989 58.2586 180.839C58.1834 181.064 58.1081 181.215 57.9576 181.365C59.6886 179.71 57.2802 177.452 55.6245 179.032C51.1089 183.247 61.7959 185.881 64.0537 186.483C73.3861 189.042 83.0947 190.623 92.6529 192.128C105.447 194.235 118.317 195.966 131.186 197.622C143.755 199.202 156.248 200.632 168.817 201.987C177.246 202.815 185.675 203.718 194.18 204.17C200.05 204.471 205.996 203.718 211.866 203.041C223.381 201.686 234.896 200.03 246.336 198.374C259.807 196.342 273.204 194.16 286.676 191.751C298.266 189.644 309.931 187.462 321.446 184.752C325.284 183.849 329.198 182.871 332.961 181.591C335.068 180.914 337.702 180.161 339.358 178.581C344.1 174.065 331.682 171.657 329.499 171.13C318.962 168.722 308.275 167.367 297.588 165.937C284.418 164.206 271.247 162.776 258.076 161.421C247.465 160.368 236.853 159.389 226.166 158.561C221.801 158.11 217.435 158.035 213.07 158.336C205.243 159.088 197.491 160.067 189.739 161.045C177.848 162.475 165.882 163.98 153.991 165.561C140.97 167.292 127.875 168.947 114.855 170.678C103.415 172.184 91.9755 173.689 80.5359 175.269L59.5381 178.129L56.6782 178.506C55.6998 178.731 55.0977 179.634 55.1729 180.613C55.0977 181.667 56.1513 181.968 57.0545 181.817Z" fill="url(#paint2_linear_351_7669)"/>
<path d="M261.916 200.708C261.916 200.708 320.168 140.349 318.437 132.522C316.706 124.694 242.724 104.449 233.467 108.739C224.21 113.029 174.086 164.733 174.086 164.733L158.959 166.69C158.959 166.69 222.103 100.611 233.467 98.8047C244.832 96.9984 327.619 112.653 330.479 127.253C333.339 141.854 286.601 201.461 274.409 213.728C262.217 225.996 256.121 208.911 261.916 200.708Z" fill="white"/>
<path d="M263.345 200.557C266.957 196.869 270.495 193.106 273.957 189.343C281.407 181.366 288.783 173.237 296.083 165.034C302.857 157.357 309.706 149.53 315.576 141.101C317.232 138.768 319.113 136.134 319.941 133.349C320.543 131.317 319.264 130.113 317.759 129.059C314.823 126.952 311.361 125.597 308.05 124.243C303.158 122.286 298.191 120.555 293.148 118.899C281.709 115.211 270.118 112.201 258.453 109.717C253.636 108.739 248.82 107.836 244.003 107.309C240.992 107.008 237.681 106.632 234.67 107.459C231.66 108.287 229.176 110.545 226.843 112.502C223.231 115.512 219.694 118.673 216.307 121.834C207.577 129.962 199.072 138.316 190.643 146.746C184.923 152.465 179.278 158.185 173.634 163.98L172.806 164.808L175.139 163.604L160.087 165.561L160.538 166.464L164.151 162.701C167.237 159.465 170.398 156.304 173.559 153.068C177.924 148.627 182.289 144.262 186.654 139.897C191.471 135.08 196.363 130.339 201.33 125.673C206.071 121.157 210.813 116.717 215.705 112.427C217.812 110.545 219.919 108.739 222.102 107.008C223.08 106.255 223.983 105.503 224.962 104.75L226.317 103.696C226.467 103.621 227.069 103.094 226.693 103.395L227.37 102.944C228.123 102.417 228.875 101.89 229.703 101.363C230.08 101.138 230.381 100.912 230.757 100.686L230.606 100.761L230.907 100.611L231.359 100.385C231.509 100.31 231.66 100.234 231.811 100.159C231.961 100.084 232.488 99.8581 232.112 100.009C231.735 100.159 232.187 100.009 232.262 99.9334L232.638 99.7829C232.187 99.9334 232.789 99.7076 232.638 99.7829C232.714 99.7829 233.09 99.7076 232.789 99.7076C232.488 99.7076 232.864 99.7076 232.939 99.7076L233.316 99.6323L234.219 99.5571H234.67H234.972C235.799 99.5571 236.627 99.6323 237.455 99.6323C239.638 99.7828 241.82 100.009 244.003 100.234C249.873 100.912 255.744 101.89 261.614 102.944C268.538 104.223 275.462 105.653 282.311 107.309C289.159 108.965 295.933 110.771 302.631 112.878C308.276 114.609 313.77 116.717 319.113 119.275C322.349 120.856 326.263 122.888 328.22 125.974C329.951 128.683 328.747 132.446 327.693 135.306C325.811 140.65 323.027 145.767 320.167 150.659C316.479 156.981 312.415 163.153 308.2 169.173C303.835 175.42 299.32 181.591 294.729 187.612C290.589 192.956 286.45 198.299 282.085 203.417C279.15 206.954 276.215 210.492 272.903 213.728C272.15 214.48 271.247 215.158 270.344 215.76C269.817 216.061 269.29 216.362 268.764 216.513C267.635 216.738 266.431 216.588 265.452 215.986C263.044 214.556 261.915 211.47 261.614 208.836C261.238 205.75 261.915 202.665 263.646 200.106C264.173 199.428 262.969 199.428 262.592 199.504C261.689 199.729 260.937 200.181 260.41 200.934C258.603 203.718 257.776 207.03 258.227 210.266C258.528 213.126 259.582 216.211 262.065 217.867C265.151 219.975 269.215 218.469 272 216.663C274.408 215.007 276.591 212.975 278.472 210.717C282.235 206.578 285.773 202.288 289.235 197.923C293.901 192.128 298.416 186.258 302.857 180.312C307.523 173.99 312.114 167.518 316.479 160.97C320.317 155.175 323.855 149.229 327.016 143.058C329.198 138.843 331.531 134.177 332.133 129.36C332.434 127.93 332.209 126.425 331.682 125.071C330.929 123.641 329.876 122.436 328.596 121.533C324.833 118.448 320.167 116.491 315.651 114.685C309.405 112.276 303.083 110.169 296.685 108.438C289.611 106.481 282.536 104.75 275.387 103.17C268.688 101.74 261.99 100.46 255.217 99.4065C250.174 98.6539 245.132 97.9013 240.089 97.6003C238.509 97.4498 236.853 97.4498 235.197 97.525C233.767 97.6755 232.337 98.1271 230.983 98.8045C227.22 100.611 223.833 103.395 220.597 105.954C215.931 109.717 211.49 113.631 207.05 117.695C201.857 122.436 196.739 127.328 191.696 132.22C186.805 136.962 181.913 141.778 177.096 146.595C173.107 150.584 169.118 154.648 165.205 158.637C162.872 160.97 160.614 163.378 158.281 165.711C157.98 166.012 157.679 166.389 157.378 166.69C156.926 167.217 157.152 167.743 157.829 167.593L171.301 165.862C172.881 165.636 174.236 165.486 175.44 164.281L177.096 162.55C183.719 155.702 190.492 148.928 197.266 142.23C205.921 133.65 214.576 125.146 223.682 117.018C225.413 115.512 227.069 114.007 228.875 112.577C229.553 111.975 230.305 111.448 231.058 110.846C231.133 110.771 231.735 110.319 231.284 110.696L231.735 110.395C232.036 110.169 232.337 110.018 232.563 109.793C232.789 109.567 233.09 109.492 233.316 109.341C233.542 109.19 232.789 109.642 233.241 109.416C233.391 109.341 233.466 109.266 233.617 109.266C233.918 109.04 233.09 109.492 233.466 109.341C233.843 109.19 233.015 109.416 233.391 109.341L233.767 109.266H233.918C234.294 109.19 233.617 109.266 233.843 109.266C234.52 109.19 235.122 109.115 235.799 109.115H236.703C237.154 109.115 237.53 109.115 237.982 109.115C242.723 109.416 247.39 110.094 251.98 110.997C257.926 112.126 263.872 113.48 269.742 114.986C281.407 117.921 293.073 121.307 304.212 125.823C307.749 127.253 311.512 128.758 314.598 131.016C315.425 131.468 316.028 132.145 316.479 132.973C316.479 133.048 316.554 133.123 316.554 133.199C316.554 133.349 316.554 132.973 316.554 133.274C316.554 133.5 316.554 133.65 316.554 133.876C316.554 134.102 316.479 134.252 316.404 134.478L316.329 134.779C316.253 135.08 316.329 134.704 316.253 135.005C314.974 138.015 312.867 140.951 311.06 143.434C307.975 147.649 304.663 151.638 301.352 155.626C293.6 164.884 285.472 173.84 277.268 182.72C272 188.515 266.581 194.235 261.238 199.955L260.41 200.783C259.883 201.31 260.184 201.761 260.861 201.686C261.84 201.686 262.668 201.235 263.345 200.557Z" fill="#59BE4C"/>
<path d="M263.345 200.557C266.957 196.869 270.495 193.106 273.957 189.343C281.407 181.366 288.783 173.237 296.083 165.034C302.857 157.357 309.706 149.53 315.576 141.101C317.232 138.768 319.113 136.134 319.941 133.349C320.543 131.317 319.264 130.113 317.759 129.059C314.823 126.952 311.361 125.597 308.05 124.243C303.158 122.286 298.191 120.555 293.148 118.899C281.709 115.211 270.118 112.201 258.453 109.717C253.636 108.739 248.82 107.836 244.003 107.309C240.992 107.008 237.681 106.632 234.67 107.459C231.66 108.287 229.176 110.545 226.843 112.502C223.231 115.512 219.694 118.673 216.307 121.834C207.577 129.962 199.072 138.316 190.643 146.746C184.923 152.465 179.278 158.185 173.634 163.98L172.806 164.808L175.139 163.604L160.087 165.561L160.538 166.464L164.151 162.701C167.237 159.465 170.398 156.304 173.559 153.068C177.924 148.627 182.289 144.262 186.654 139.897C191.471 135.08 196.363 130.339 201.33 125.673C206.071 121.157 210.813 116.717 215.705 112.427C217.812 110.545 219.919 108.739 222.102 107.008C223.08 106.255 223.983 105.503 224.962 104.75L226.317 103.696C226.467 103.621 227.069 103.094 226.693 103.395L227.37 102.944C228.123 102.417 228.875 101.89 229.703 101.363C230.08 101.138 230.381 100.912 230.757 100.686L230.606 100.761L230.907 100.611L231.359 100.385C231.509 100.31 231.66 100.234 231.811 100.159C231.961 100.084 232.488 99.8581 232.112 100.009C231.735 100.159 232.187 100.009 232.262 99.9334L232.638 99.7829C232.187 99.9334 232.789 99.7076 232.638 99.7829C232.714 99.7829 233.09 99.7076 232.789 99.7076C232.488 99.7076 232.864 99.7076 232.939 99.7076L233.316 99.6323L234.219 99.5571H234.67H234.972C235.799 99.5571 236.627 99.6323 237.455 99.6323C239.638 99.7828 241.82 100.009 244.003 100.234C249.873 100.912 255.744 101.89 261.614 102.944C268.538 104.223 275.462 105.653 282.311 107.309C289.159 108.965 295.933 110.771 302.631 112.878C308.276 114.609 313.77 116.717 319.113 119.275C322.349 120.856 326.263 122.888 328.22 125.974C329.951 128.683 328.747 132.446 327.693 135.306C325.811 140.65 323.027 145.767 320.167 150.659C316.479 156.981 312.415 163.153 308.2 169.173C303.835 175.42 299.32 181.591 294.729 187.612C290.589 192.956 286.45 198.299 282.085 203.417C279.15 206.954 276.215 210.492 272.903 213.728C272.15 214.48 271.247 215.158 270.344 215.76C269.817 216.061 269.29 216.362 268.764 216.513C267.635 216.738 266.431 216.588 265.452 215.986C263.044 214.556 261.915 211.47 261.614 208.836C261.238 205.75 261.915 202.665 263.646 200.106C264.173 199.428 262.969 199.428 262.592 199.504C261.689 199.729 260.937 200.181 260.41 200.934C258.603 203.718 257.776 207.03 258.227 210.266C258.528 213.126 259.582 216.211 262.065 217.867C265.151 219.975 269.215 218.469 272 216.663C274.408 215.007 276.591 212.975 278.472 210.717C282.235 206.578 285.773 202.288 289.235 197.923C293.901 192.128 298.416 186.258 302.857 180.312C307.523 173.99 312.114 167.518 316.479 160.97C320.317 155.175 323.855 149.229 327.016 143.058C329.198 138.843 331.531 134.177 332.133 129.36C332.434 127.93 332.209 126.425 331.682 125.071C330.929 123.641 329.876 122.436 328.596 121.533C324.833 118.448 320.167 116.491 315.651 114.685C309.405 112.276 303.083 110.169 296.685 108.438C289.611 106.481 282.536 104.75 275.387 103.17C268.688 101.74 261.99 100.46 255.217 99.4065C250.174 98.6539 245.132 97.9013 240.089 97.6003C238.509 97.4498 236.853 97.4498 235.197 97.525C233.767 97.6755 232.337 98.1271 230.983 98.8045C227.22 100.611 223.833 103.395 220.597 105.954C215.931 109.717 211.49 113.631 207.05 117.695C201.857 122.436 196.739 127.328 191.696 132.22C186.805 136.962 181.913 141.778 177.096 146.595C173.107 150.584 169.118 154.648 165.205 158.637C162.872 160.97 160.614 163.378 158.281 165.711C157.98 166.012 157.679 166.389 157.378 166.69C156.926 167.217 157.152 167.743 157.829 167.593L171.301 165.862C172.881 165.636 174.236 165.486 175.44 164.281L177.096 162.55C183.719 155.702 190.492 148.928 197.266 142.23C205.921 133.65 214.576 125.146 223.682 117.018C225.413 115.512 227.069 114.007 228.875 112.577C229.553 111.975 230.305 111.448 231.058 110.846C231.133 110.771 231.735 110.319 231.284 110.696L231.735 110.395C232.036 110.169 232.337 110.018 232.563 109.793C232.789 109.567 233.09 109.492 233.316 109.341C233.542 109.19 232.789 109.642 233.241 109.416C233.391 109.341 233.466 109.266 233.617 109.266C233.918 109.04 233.09 109.492 233.466 109.341C233.843 109.19 233.015 109.416 233.391 109.341L233.767 109.266H233.918C234.294 109.19 233.617 109.266 233.843 109.266C234.52 109.19 235.122 109.115 235.799 109.115H236.703C237.154 109.115 237.53 109.115 237.982 109.115C242.723 109.416 247.39 110.094 251.98 110.997C257.926 112.126 263.872 113.48 269.742 114.986C281.407 117.921 293.073 121.307 304.212 125.823C307.749 127.253 311.512 128.758 314.598 131.016C315.425 131.468 316.028 132.145 316.479 132.973C316.479 133.048 316.554 133.123 316.554 133.199C316.554 133.349 316.554 132.973 316.554 133.274C316.554 133.5 316.554 133.65 316.554 133.876C316.554 134.102 316.479 134.252 316.404 134.478L316.329 134.779C316.253 135.08 316.329 134.704 316.253 135.005C314.974 138.015 312.867 140.951 311.06 143.434C307.975 147.649 304.663 151.638 301.352 155.626C293.6 164.884 285.472 173.84 277.268 182.72C272 188.515 266.581 194.235 261.238 199.955L260.41 200.783C259.883 201.31 260.184 201.761 260.861 201.686C261.84 201.686 262.668 201.235 263.345 200.557Z" fill="url(#paint3_linear_351_7669)"/>
<path d="M267.633 202.439C266.655 202.89 265.902 203.643 265.3 204.546C264.322 206.051 264.472 208.008 265.526 209.438C266.279 210.266 267.483 210.341 268.461 210.191C269.966 210.115 271.396 209.513 272.45 208.46C273.805 207.18 274.181 205.223 273.504 203.492C273.278 202.74 272.751 202.138 272.074 201.761C271.246 201.46 270.418 201.385 269.515 201.611C268.687 201.686 267.934 201.987 267.257 202.514C267.106 202.664 266.956 202.74 267.106 202.965C267.407 203.116 267.709 203.116 268.01 203.116C268.461 203.116 268.988 203.041 269.44 202.965C269.816 202.89 270.192 202.74 270.493 202.514C270.568 202.439 270.644 202.363 270.794 202.288C270.945 202.213 270.493 202.439 270.719 202.363C270.493 202.439 270.343 202.514 270.117 202.589C269.741 202.664 269.364 202.74 268.988 202.74C268.988 202.74 268.536 202.74 268.762 202.74C268.687 202.74 268.461 202.664 268.612 202.74C268.612 202.74 268.687 202.74 268.762 202.815C268.687 202.815 268.612 202.74 268.687 202.815L268.837 202.89C268.913 202.965 268.988 202.965 269.063 203.041C269.214 203.191 269.364 203.342 269.515 203.492L269.44 203.342C270.192 204.395 270.418 205.75 270.042 207.03L270.117 206.879C269.966 207.406 269.741 207.933 269.364 208.384C269.289 208.535 269.138 208.685 268.988 208.761L268.837 208.911C268.762 208.986 268.913 208.836 268.837 208.911C268.762 208.986 268.612 209.062 268.461 209.212L268.311 209.287C268.235 209.363 268.612 209.137 268.386 209.287L268.235 209.363C268.536 209.287 268.612 209.212 268.461 209.287H268.386L268.687 209.212C268.612 209.212 268.612 209.212 268.837 209.212C269.063 209.137 269.289 209.137 269.515 209.137C269.891 209.137 269.665 209.137 269.59 209.137C270.117 209.137 269.891 209.137 269.741 209.137C269.816 209.137 270.042 209.212 269.816 209.137H269.665C269.59 209.137 269.59 209.062 269.515 209.062C269.44 208.986 269.364 208.986 269.289 208.911C269.138 208.761 268.988 208.61 268.837 208.46L268.913 208.61C268.235 207.556 268.085 206.277 268.461 205.073V205.223C268.612 204.772 268.762 204.395 269.063 204.019C269.138 203.869 269.289 203.718 269.44 203.568L269.665 203.342L269.741 203.267C269.665 203.342 269.891 203.116 269.741 203.267C269.966 203.116 270.192 202.89 270.418 202.815L270.644 202.664L270.493 202.74C270.568 202.664 271.02 202.514 270.945 202.288C270.869 202.062 270.493 202.062 270.343 201.987C269.891 201.987 269.44 201.987 268.988 202.062C268.536 202.138 268.01 202.288 267.633 202.439Z" fill="#59BE4C"/>
<path d="M267.633 202.439C266.655 202.89 265.902 203.643 265.3 204.546C264.322 206.051 264.472 208.008 265.526 209.438C266.279 210.266 267.483 210.341 268.461 210.191C269.966 210.115 271.396 209.513 272.45 208.46C273.805 207.18 274.181 205.223 273.504 203.492C273.278 202.74 272.751 202.138 272.074 201.761C271.246 201.46 270.418 201.385 269.515 201.611C268.687 201.686 267.934 201.987 267.257 202.514C267.106 202.664 266.956 202.74 267.106 202.965C267.407 203.116 267.709 203.116 268.01 203.116C268.461 203.116 268.988 203.041 269.44 202.965C269.816 202.89 270.192 202.74 270.493 202.514C270.568 202.439 270.644 202.363 270.794 202.288C270.945 202.213 270.493 202.439 270.719 202.363C270.493 202.439 270.343 202.514 270.117 202.589C269.741 202.664 269.364 202.74 268.988 202.74C268.988 202.74 268.536 202.74 268.762 202.74C268.687 202.74 268.461 202.664 268.612 202.74C268.612 202.74 268.687 202.74 268.762 202.815C268.687 202.815 268.612 202.74 268.687 202.815L268.837 202.89C268.913 202.965 268.988 202.965 269.063 203.041C269.214 203.191 269.364 203.342 269.515 203.492L269.44 203.342C270.192 204.395 270.418 205.75 270.042 207.03L270.117 206.879C269.966 207.406 269.741 207.933 269.364 208.384C269.289 208.535 269.138 208.685 268.988 208.761L268.837 208.911C268.762 208.986 268.913 208.836 268.837 208.911C268.762 208.986 268.612 209.062 268.461 209.212L268.311 209.287C268.235 209.363 268.612 209.137 268.386 209.287L268.235 209.363C268.536 209.287 268.612 209.212 268.461 209.287H268.386L268.687 209.212C268.612 209.212 268.612 209.212 268.837 209.212C269.063 209.137 269.289 209.137 269.515 209.137C269.891 209.137 269.665 209.137 269.59 209.137C270.117 209.137 269.891 209.137 269.741 209.137C269.816 209.137 270.042 209.212 269.816 209.137H269.665C269.59 209.137 269.59 209.062 269.515 209.062C269.44 208.986 269.364 208.986 269.289 208.911C269.138 208.761 268.988 208.61 268.837 208.46L268.913 208.61C268.235 207.556 268.085 206.277 268.461 205.073V205.223C268.612 204.772 268.762 204.395 269.063 204.019C269.138 203.869 269.289 203.718 269.44 203.568L269.665 203.342L269.741 203.267C269.665 203.342 269.891 203.116 269.741 203.267C269.966 203.116 270.192 202.89 270.418 202.815L270.644 202.664L270.493 202.74C270.568 202.664 271.02 202.514 270.945 202.288C270.869 202.062 270.493 202.062 270.343 201.987C269.891 201.987 269.44 201.987 268.988 202.062C268.536 202.138 268.01 202.288 267.633 202.439Z" fill="url(#paint4_linear_351_7669)"/>
<path d="M215.328 160.217V198.224C215.328 198.675 216.231 199.353 216.532 199.729C216.833 200.03 217.21 200.331 217.511 200.632C217.586 200.632 218.038 200.933 218.038 200.933V162.927C218.038 162.475 217.134 161.798 216.833 161.497C216.532 161.196 216.156 160.895 215.855 160.593C215.78 160.518 215.328 160.142 215.328 160.217Z" fill="white"/>
<path d="M195.684 202.815C195.684 206.653 195.458 210.492 195.383 214.405C195.157 223.135 194.932 231.866 194.631 240.596L193.803 271.98C193.577 281.086 193.276 290.193 193.05 299.224C192.975 302.31 192.9 305.396 192.824 308.406C192.824 309.987 192.674 311.492 192.674 313.072C192.674 313.148 192.674 313.298 192.674 313.373C192.674 314.352 193.953 314.728 194.706 314.653C195.609 314.577 196.362 313.825 196.362 312.922C196.362 309.083 196.587 305.245 196.663 301.332C196.888 292.601 197.189 283.871 197.415 275.141C197.716 264.679 198.017 254.218 198.318 243.757C198.544 234.65 198.845 225.544 199.071 216.513L199.297 207.331C199.372 205.75 199.447 204.245 199.447 202.664C199.447 202.589 199.447 202.439 199.447 202.363C199.447 201.385 198.168 201.009 197.415 201.084C196.512 201.084 195.76 201.912 195.684 202.815Z" fill="#59BE4C"/>
<path d="M195.684 202.815C195.684 206.653 195.458 210.492 195.383 214.405C195.157 223.135 194.932 231.866 194.631 240.596L193.803 271.98C193.577 281.086 193.276 290.193 193.05 299.224C192.975 302.31 192.9 305.396 192.824 308.406C192.824 309.987 192.674 311.492 192.674 313.072C192.674 313.148 192.674 313.298 192.674 313.373C192.674 314.352 193.953 314.728 194.706 314.653C195.609 314.577 196.362 313.825 196.362 312.922C196.362 309.083 196.587 305.245 196.663 301.332C196.888 292.601 197.189 283.871 197.415 275.141C197.716 264.679 198.017 254.218 198.318 243.757C198.544 234.65 198.845 225.544 199.071 216.513L199.297 207.331C199.372 205.75 199.447 204.245 199.447 202.664C199.447 202.589 199.447 202.439 199.447 202.363C199.447 201.385 198.168 201.009 197.415 201.084C196.512 201.084 195.76 201.912 195.684 202.815Z" fill="url(#paint5_linear_351_7669)"/>
<path d="M268.237 194.16C268.237 194.16 259.281 189.795 251.379 205.976C243.476 222.157 283.666 277.926 286.827 277.926C289.988 277.926 316.329 261.218 316.329 257.53C316.329 253.842 281.408 205.976 281.408 205.976L278.172 209.438C278.172 209.438 286.526 222.684 282.01 228.103C277.494 233.522 262.292 238.564 257.324 221.329C252.357 204.095 261.915 200.858 261.915 200.858L268.237 194.16Z" fill="#000005"/>
<path d="M269.215 192.655C267.334 191.902 265.226 191.752 263.194 192.279C258.152 193.332 254.389 197.547 251.83 201.762C250.475 203.718 249.497 205.901 248.895 208.159C248.594 209.513 248.518 210.868 248.594 212.223C248.819 215.76 249.497 219.297 250.701 222.684C253.561 231.339 257.851 239.543 262.366 247.37C266.731 254.896 271.473 262.196 276.666 269.195C278.472 271.679 280.354 274.163 282.386 276.42C283.364 277.549 284.644 279.28 286.149 279.581C287.127 279.657 288.106 279.431 288.933 278.979C290.439 278.302 291.944 277.549 293.374 276.721C297.287 274.539 301.05 272.206 304.738 269.647C308.351 267.314 311.737 264.755 314.974 261.895C316.479 260.54 318.737 258.508 317.984 256.326C317.156 254.294 316.103 252.337 314.823 250.531C312.942 247.445 310.91 244.434 308.878 241.499C303.986 234.274 298.943 227.124 293.825 219.975C290.439 215.233 286.977 210.417 283.515 205.675C283.364 205.449 283.138 205.224 282.988 204.998C282.386 204.17 281.182 204.019 280.354 204.621C280.278 204.697 280.203 204.772 280.128 204.847L276.892 208.309C276.29 208.836 276.139 209.664 276.44 210.341C277.418 211.997 278.322 213.728 279.149 215.459C280.429 218.319 281.708 221.706 281.407 224.716C281.407 225.393 281.182 225.996 280.88 226.598C281.031 226.372 280.805 226.673 280.805 226.748C280.805 226.823 280.579 227.049 280.504 227.124C280.278 227.501 280.73 226.899 280.504 227.124L280.203 227.501C279.827 227.877 279.375 228.253 278.999 228.554C278.698 228.78 279.074 228.554 278.999 228.554L278.623 228.78C278.322 228.931 278.021 229.157 277.795 229.307C277.268 229.608 276.666 229.909 276.139 230.135C275.763 230.285 276.365 230.06 276.064 230.21L275.537 230.436C275.236 230.511 274.86 230.662 274.559 230.737C274.258 230.812 273.956 230.888 273.655 230.963L273.204 231.038L272.978 231.113C272.677 231.189 273.279 231.113 272.978 231.113C272.301 231.264 271.623 231.264 270.871 231.339H270.043H269.667L268.989 231.264C268.688 231.189 268.312 231.189 268.011 231.038L267.559 230.888C267.484 230.888 267.334 230.812 267.258 230.812C265.904 230.361 264.699 229.608 263.646 228.63C260.56 225.845 259.205 221.63 258.377 217.642C257.926 215.534 257.7 213.352 257.775 211.169C257.775 209.664 258.076 208.234 258.528 206.804C258.603 206.503 258.754 206.202 258.904 205.976C258.98 205.826 259.055 205.675 259.055 205.6C259.205 205.299 258.904 205.826 259.13 205.449C259.431 204.998 259.732 204.546 260.033 204.095L260.259 203.794C259.958 204.095 260.334 203.718 260.259 203.794C260.56 203.493 260.56 203.493 260.711 203.342C260.861 203.192 261.012 203.041 261.162 202.966C261.313 202.89 261.764 202.589 261.237 202.89C261.614 202.665 262.065 202.439 262.517 202.138C262.592 202.063 261.915 202.364 262.291 202.213C262.743 202.063 263.119 201.762 263.42 201.461L268.914 195.665L269.441 195.139C270.118 194.537 270.269 193.558 269.667 192.881L269.591 192.806C268.839 192.203 267.71 192.279 267.032 192.956L260.711 199.579L261.538 199.052C258.603 200.031 256.421 202.815 255.292 205.6C254.012 208.686 253.937 212.223 254.238 215.459C254.69 219.674 255.894 224.265 258.152 227.877C259.807 230.662 262.366 232.769 265.301 233.898C268.011 234.801 270.946 234.952 273.731 234.274C278.547 233.221 284.418 229.909 285.02 224.566C285.396 220.953 284.117 217.265 282.687 213.954C281.859 211.997 280.88 210.116 279.752 208.309L279.3 210.341L282.536 206.879L279.676 206.729C282.009 209.965 284.418 213.201 286.751 216.513C291.643 223.286 296.384 230.06 301.201 236.908C305.265 242.703 309.329 248.499 312.866 254.595C313.318 255.423 313.845 256.25 314.221 257.078C314.296 257.229 314.372 257.379 314.372 257.53C314.146 257.078 314.372 257.68 314.372 257.53C314.372 257.53 314.372 257.756 314.447 257.756C314.522 257.756 314.447 257.304 314.447 257.455C314.447 257.756 314.597 257.003 314.447 257.304C314.296 257.831 314.673 257.003 314.372 257.455C314.221 257.68 314.071 257.831 313.92 258.057C313.694 258.358 313.77 258.283 313.92 258.057L313.619 258.358C313.393 258.584 313.092 258.885 312.866 259.11C311.587 260.315 310.232 261.443 308.878 262.497C307.222 263.777 305.792 264.755 303.91 266.11C302.029 267.464 300.072 268.669 298.115 269.948C295.03 271.98 291.718 273.862 288.407 275.517L288.03 275.668C287.503 275.894 288.181 275.593 287.955 275.668C287.729 275.743 287.503 275.818 287.278 275.969C287.127 276.044 286.901 276.044 286.751 276.119C286.525 276.195 287.278 276.044 286.977 276.044C286.676 276.044 287.052 276.044 287.278 276.044C287.052 276.044 287.804 276.27 287.503 276.119C287.202 275.969 287.579 276.195 287.579 276.195C287.428 275.969 287.127 275.818 286.901 275.668C286.224 275.066 285.622 274.388 285.095 273.711C284.719 273.259 284.342 272.808 283.966 272.356C283.74 272.131 283.59 271.905 283.364 271.604L283.214 271.453C283.214 271.453 283.439 271.754 283.214 271.528L282.837 271.077C278.096 264.981 273.731 258.659 269.667 252.111C264.775 244.51 260.41 236.607 256.722 228.404C255.141 224.867 253.862 221.254 252.883 217.491C252.507 215.911 252.206 214.33 252.056 212.674L251.98 212.148C251.98 212.072 251.98 211.997 251.98 211.922C251.98 211.696 251.98 212.223 251.98 211.922C251.98 211.545 251.98 211.169 251.98 210.793C251.98 210.116 252.056 209.438 252.131 208.836C252.206 208.535 252.206 208.234 252.281 207.933C252.206 208.385 252.357 207.557 252.432 207.406C252.733 206.578 253.109 205.675 253.561 204.923C254.915 202.213 256.797 199.805 258.98 197.773L259.582 197.246C259.582 197.246 259.883 197.02 259.657 197.171L259.958 196.945C260.41 196.644 260.861 196.343 261.313 196.117L261.915 195.816C261.538 195.966 261.99 195.741 262.141 195.741C262.517 195.59 262.968 195.44 263.345 195.364L263.872 195.289C263.495 195.364 263.796 195.289 264.022 195.289C264.323 195.214 264.699 195.214 265 195.214H265.377C264.925 195.139 265.678 195.214 265.377 195.214C265.603 195.214 265.828 195.289 266.129 195.289C266.43 195.289 266.506 195.364 266.656 195.44C266.731 195.44 266.807 195.515 266.882 195.515C267.032 195.515 266.43 195.289 266.656 195.44C266.731 195.515 266.882 195.515 267.032 195.59C268.989 196.493 271.247 193.633 269.215 192.655Z" fill="#000005"/>
<path d="M288.256 243.08C286.6 242.477 284.643 242.252 283.063 243.305C281.708 244.208 280.88 245.638 280.805 247.294C280.579 250.756 282.837 254.068 285.019 256.627C287.202 259.185 291.191 261.067 294.502 259.863C297.814 258.659 299.093 255.347 298.491 252.186C297.738 248.197 294.276 245.488 290.89 243.606C290.137 243.155 289.234 242.929 288.406 242.929C287.653 243.08 288.557 243.606 288.858 243.757C291.266 244.961 293.147 246.918 294.352 249.251C295.481 251.735 295.481 254.745 293.599 256.852C292.771 257.755 291.718 258.358 290.513 258.583C290.288 258.583 290.062 258.583 289.836 258.583C289.761 258.659 290.062 258.583 290.062 258.659C289.987 258.583 289.61 258.358 289.535 258.282C289.234 258.056 289.008 257.831 288.782 257.53C287.879 256.551 287.127 255.498 286.449 254.293C285.621 253.089 285.095 251.81 284.718 250.455C284.342 248.95 284.568 247.294 285.32 245.939C285.697 245.337 286.223 244.886 286.826 244.51C287.127 244.359 287.428 244.208 287.729 244.133C288.03 244.058 288.557 244.208 288.03 243.983C288.331 244.058 289.836 244.585 289.987 244.133C290.137 243.682 288.481 243.08 288.256 243.08Z" fill="white"/>
<path d="M96.2663 136.285C96.5674 140.65 96.2663 145.091 96.1911 149.456C96.0406 155.176 95.8148 160.971 95.7395 166.691C95.7395 168.723 95.6643 170.755 95.8148 172.711C95.8148 173.69 96.3416 174.518 97.1695 174.969C97.621 175.27 98.2231 175.12 98.5242 174.668C98.5994 174.518 98.6747 174.292 98.6747 174.066C98.3737 169.701 98.6747 165.261 98.75 160.895C98.9005 155.176 99.1263 149.381 99.2015 143.661C99.2015 141.629 99.2768 139.597 99.1263 137.565C99.1263 136.586 98.5994 135.758 97.7716 135.307C97.32 135.006 96.7179 135.156 96.4169 135.608C96.3416 135.834 96.2663 136.059 96.2663 136.285Z" fill="#000005"/>
<path d="M107.482 111.073C107.482 111.073 122.082 102.343 115.459 89.0967C108.836 75.8508 88.5912 72.6898 76.4742 85.7852C64.3571 98.8806 79.7104 114.46 79.7104 114.46L107.482 111.073Z" fill="#000005"/>
<path d="M108.608 111.449C115.382 107.385 120.801 99.4825 118.467 91.4296C116.812 85.8603 112.522 81.4199 107.329 78.9363C101.76 76.3775 95.5129 75.8506 89.5673 77.2806C83.1701 78.7858 76.8482 82.5488 73.0852 88.0429C69.6984 93.0854 69.3974 99.031 71.5047 104.676C72.9347 108.363 75.042 111.675 77.6761 114.61C77.9019 114.911 78.2029 115.137 78.6545 115.212C79.106 115.212 79.5576 115.212 79.9339 115.137L83.5464 114.685L106.652 111.901L107.178 111.825C107.78 111.75 109.135 111.449 109.286 110.772C109.436 110.094 108.157 110.17 107.78 110.17L83.4712 113.105L80.0092 113.556L81.4391 113.707C78.1277 110.32 75.7193 106.181 74.4399 101.665C73.311 98.0526 73.4615 94.2143 74.8914 90.677C76.5472 86.6129 80.0092 83.3015 83.7722 81.1189C90.2447 77.3558 98.2223 77.2053 104.921 80.5921C111.393 83.9035 116.812 91.3544 115.156 98.9557C114.328 102.267 112.522 105.353 110.038 107.686C109.21 108.514 108.383 109.266 107.404 109.944C107.103 110.17 106.802 110.395 106.501 110.546C105.824 110.997 106.35 110.621 106.501 110.546C106.049 110.847 105.372 111.299 106.125 111.675C106.877 112.051 108.006 111.825 108.608 111.449Z" fill="#000005"/>
<path d="M97.9229 121.985C105.75 120.405 116.211 100.461 116.211 100.461C117.039 93.8379 100.331 84.5808 100.331 84.5808C98.7508 90.6017 92.1278 97.2999 92.1278 97.2999C93.633 91.9564 87.6874 89.9243 84.7522 93.9132C81.8171 97.902 85.4296 102.794 85.4296 102.794C85.4296 102.794 77.4519 109.944 76.5488 111.75C75.6457 113.556 80.9892 121.684 88.3648 120.48C88.3648 120.405 91.0742 123.34 97.9229 121.985Z" fill="white"/>
<path d="M98.9745 123.566C100.706 123.114 102.286 122.211 103.565 121.007C105.221 119.502 106.802 117.921 108.156 116.115C110.866 112.653 113.274 109.041 115.457 105.278C116.059 104.299 116.661 103.321 117.112 102.342C117.564 101.364 117.188 100.16 116.811 99.1815C115.005 94.8164 111.317 91.2791 107.63 88.4192C105.071 86.4624 102.286 84.6562 99.4261 83.0757H99.3508C98.3724 86.2366 96.7919 89.1718 94.6846 91.6554C93.631 93.0854 92.4268 94.4401 91.2226 95.7195L93.2547 98.8805C93.8568 96.6979 93.1794 95.0422 91.9752 93.2359C90.9968 91.7307 89.7927 90.3007 87.9111 90.2255C86.1801 90.2255 84.5244 91.2039 83.6213 92.7091C82.5676 94.5906 82.4171 96.7732 83.245 98.8052C83.9223 100.536 84.8254 102.192 85.9544 103.697L84.5244 101.214C81.6645 103.622 79.0304 106.181 76.5467 108.965C76.0952 109.417 75.7189 109.944 75.5684 110.546C75.5684 111.299 75.7189 111.976 76.0952 112.578C77.2241 115.137 78.9551 117.47 81.0624 119.351C83.3202 121.459 86.4812 122.437 89.5669 121.986L89.3411 121.835C91.5237 124.394 95.8888 124.168 98.9745 123.566C98.6735 123.039 98.4477 122.437 98.0714 121.91C97.9209 121.685 97.2435 120.405 96.8672 120.405C93.932 120.932 90.5453 121.082 87.9864 119.351C87.8359 119.276 87.7606 119.201 87.6854 119.126C87.5348 119.05 87.6101 119.05 87.6101 119.05C87.5348 118.975 87.6854 118.9 87.4596 118.9C87.008 118.9 86.5564 118.9 86.1049 118.975C84.3739 118.975 82.6429 118.599 81.1377 117.696C79.8582 117.018 78.7293 116.115 77.8262 114.986C77.6757 114.761 77.5251 114.61 77.7509 114.986C77.8262 115.212 77.9767 115.363 77.7509 114.986C77.6004 114.61 77.5251 114.234 77.4499 113.782C77.4499 113.03 78.2025 112.427 78.6541 111.901C79.5572 110.922 80.5356 109.944 81.4387 109.041C83.0944 107.46 84.7502 105.88 86.4059 104.375C86.707 104.149 85.2018 102.117 84.976 101.891C85.1265 102.117 85.3523 102.418 85.5028 102.644C85.6533 102.945 85.5028 102.644 85.4275 102.418C85.0512 101.59 84.8255 100.762 84.6749 99.8589C84.3739 97.8268 85.1265 95.7195 86.707 94.4401C87.8359 93.4617 89.3411 93.1606 90.7711 93.537C91.1474 93.6122 91.4484 93.838 91.7495 93.9885C91.9 94.139 91.9752 94.2143 92.1258 94.2896L91.0721 92.7091C91.0721 92.7843 91.1474 92.8596 91.1474 92.9349C91.3732 93.838 91.2979 94.8164 91.0721 95.6443C90.9216 96.1711 93.0289 98.8805 93.1041 98.8052C94.4588 97.4505 95.663 95.9453 96.7919 94.4401C97.7703 93.0854 98.7487 91.7307 99.5013 90.2255C99.8776 89.4729 100.254 88.7203 100.63 87.8924C100.706 87.7419 101.232 86.0861 101.232 86.0861C101.383 86.0109 102.06 86.5377 102.211 86.6882C102.888 87.0645 103.565 87.5161 104.243 87.9676C106.275 89.2471 108.232 90.6018 110.188 92.107C111.242 92.9349 112.22 93.7627 113.124 94.6659C113.5 95.0422 113.951 95.4937 114.328 95.87L114.779 96.4721C115.005 96.7732 114.704 96.2463 114.554 96.1711C114.93 96.8484 115.156 97.601 115.156 98.4289C115.156 98.73 115.08 99.1063 114.855 99.332C112.898 102.869 110.79 106.331 108.457 109.643C106.802 112.126 104.845 114.384 102.738 116.567C101.082 118.223 99.125 119.954 96.7919 120.405C96.6414 120.405 97.5445 121.986 97.6198 122.061C97.9208 122.362 98.5982 123.641 98.9745 123.566Z" fill="#000005"/>
<path d="M99.7285 110.772C99.7285 110.772 108.158 119.201 113.501 115.589C118.845 111.976 113.802 104.525 105.448 104.676" fill="white"/>
<path d="M97.9968 110.17C99.0505 111.223 100.255 112.202 101.534 113.105C104.243 115.062 107.329 116.492 110.641 117.169C113.124 117.621 115.909 116.793 117.038 114.384C118.092 112.202 116.963 109.793 115.307 108.288C113.802 106.933 111.995 105.955 110.114 105.278C108.082 104.45 105.974 103.998 103.792 103.998C103.566 103.998 103.942 104.224 103.867 104.224C104.168 104.45 104.545 104.6 104.846 104.751C105.523 105.127 106.276 105.428 107.028 105.504C107.781 105.504 108.458 105.579 109.211 105.654C109.512 105.729 109.813 105.729 110.114 105.805L110.34 105.88C110.791 105.955 110.189 105.805 110.114 105.805C109.888 105.729 110.264 105.88 110.264 105.88C110.49 106.03 110.791 106.181 111.017 106.331C111.469 106.632 111.92 107.009 112.221 107.46C113.501 108.89 114.253 110.922 113.425 112.729C112.447 114.685 110.415 115.89 108.308 115.739C107.931 115.739 107.48 115.664 107.103 115.588C107.103 115.588 106.652 115.513 106.878 115.513C106.426 115.438 107.179 115.664 106.727 115.438C107.103 115.588 106.878 115.513 106.802 115.438C107.028 115.513 107.028 115.513 106.878 115.438C107.028 115.513 107.028 115.513 106.878 115.438L106.426 115.212C106.2 115.137 105.974 114.986 105.749 114.836C105.297 114.535 104.846 114.234 104.469 113.933C103.34 113.18 102.287 112.277 101.308 111.299C100.706 110.847 99.9536 110.471 99.201 110.32C98.8247 110.17 98.5237 110.019 98.1474 110.019C98.2226 110.019 97.8463 109.944 97.9968 110.17Z" fill="#000005"/>
<path d="M107.406 101.439C106.879 101.213 106.352 101.439 106.126 101.966C106.126 102.041 106.051 102.041 106.051 102.117C105.75 103.17 107.03 103.547 107.556 102.719C107.857 102.418 107.857 101.891 107.481 101.514C107.481 101.514 107.406 101.514 107.406 101.439Z" fill="#000005"/>
<path d="M101.384 97.2998C100.858 97.074 100.331 97.2998 100.105 97.8267C100.105 97.9019 100.03 97.9019 100.03 97.9772C99.7286 99.0308 101.008 99.4071 101.535 98.5793C101.836 98.2782 101.836 97.7514 101.46 97.3751C101.46 97.3751 101.46 97.2998 101.384 97.2998Z" fill="#000005"/>
<path d="M91.5259 108.438C91.7517 108.664 91.9775 108.89 92.2033 109.191L91.9022 108.89C92.0527 109.116 92.2785 109.417 92.429 109.643C92.5796 109.868 92.7301 110.019 92.8806 110.094C93.0311 110.245 93.2569 110.395 93.4827 110.47C93.7085 110.546 93.9343 110.621 94.16 110.696C94.3858 110.771 94.6116 110.771 94.8374 110.696C95.2137 110.696 95.5147 110.47 95.6653 110.094L95.7405 109.793C95.7405 109.567 95.6653 109.266 95.5147 109.116C95.4395 108.965 95.289 108.815 95.2137 108.589C95.0632 108.363 94.9126 108.137 94.7621 107.912C94.5363 107.686 94.3106 107.46 94.0848 107.159C93.9343 107.008 93.7085 106.858 93.4827 106.707C93.2569 106.557 93.0311 106.482 92.8054 106.406C92.5796 106.331 92.3538 106.331 92.128 106.331C91.9022 106.331 91.7517 106.331 91.5259 106.482L91.2249 106.632C91.0743 106.783 90.9238 107.008 90.9238 107.234L90.9991 107.61C91.2249 107.987 91.3001 108.213 91.5259 108.438Z" fill="#000005"/>
<path d="M162.047 186.71C157.907 170.379 153.617 153.52 155.424 136.511C156.101 128.759 158.359 121.233 161.971 114.309C164.982 108.665 170.024 102.719 177.024 103.171C178.378 103.171 179.658 103.547 180.787 104.224C181.614 104.977 182.217 105.955 182.442 107.009C183.12 109.643 181.765 112.653 179.658 114.234C178.604 115.137 177.249 115.513 175.895 115.363C175.594 115.288 175.293 115.212 174.991 115.062C174.766 114.987 175.067 115.137 175.067 115.137C175.293 115.288 174.841 114.911 174.841 114.836C174.314 114.234 173.863 113.481 173.411 112.804C171.454 109.267 170.25 105.353 170.024 101.289C169.723 94.2145 173.637 88.0431 178.755 83.5275C184.249 78.7108 190.872 75.8509 197.419 72.9157C203.967 69.9805 211.117 66.7443 216.084 61.3255C220.374 56.5841 223.46 50.0364 222.481 43.5639C222.255 41.9835 221.804 40.4782 221.051 39.1235C220.6 38.4462 220.073 37.9194 219.32 37.5431C219.17 37.4678 217.74 36.7905 217.965 37.1668C221.126 43.6392 219.019 51.09 214.955 56.7346C210.289 63.1318 203.139 66.8196 196.14 69.9805C189.141 73.1415 181.84 76.0767 175.895 81.1944C170.401 85.9358 166.412 92.4083 166.939 99.8591C167.315 104.074 168.594 108.063 170.777 111.675C171.755 113.331 173.11 114.761 174.69 115.89C176.12 116.868 177.776 117.771 179.507 117.621C182.367 117.395 184.7 114.836 185.377 112.202C186.205 108.966 184.55 106.181 182.141 104.224C176.948 99.4075 168.895 99.7838 164.079 104.902C161.445 107.611 159.262 110.772 157.757 114.234C155.95 117.997 154.596 121.911 153.693 125.975C149.704 143.285 153.091 161.046 157.305 177.98C157.832 180.238 158.434 182.496 158.961 184.678C159.111 185.355 160.09 185.958 160.692 186.259C160.842 186.484 162.197 187.237 162.047 186.71Z" fill="#000005"/>
<path d="M236.63 61.6263C239.49 53.2723 238.812 44.0905 234.748 36.2634C234.297 35.4355 230.91 36.7902 231.136 37.1665C235.2 44.9184 235.877 53.9497 233.017 62.2284C232.867 62.8305 234.221 62.5294 234.447 62.5294C234.899 62.4542 236.404 62.2284 236.63 61.6263Z" fill="#000005"/>
<path d="M103.792 171.733C100.405 172.787 101.534 176.55 96.8679 178.732C92.8038 180.539 91.7501 177.904 91.7501 177.904C87.686 181.291 84.9766 177.378 84.9766 177.378C77.7516 180.087 82.7188 166.992 82.7188 166.992C80.461 168.346 73.3865 176.098 70.075 174.593C67.2151 173.313 75.268 159.39 90.3954 155.176C95.7389 153.595 101.534 154.423 106.275 157.358C110.264 159.917 113.576 164.207 111.017 171.206" fill="white"/>
<path d="M102.137 170.905C99.578 171.733 99.2017 174.593 97.4707 176.324C96.7933 176.926 96.0407 177.453 95.2128 177.829C94.4602 178.13 93.6324 178.356 92.8045 178.431C92.654 178.507 92.7292 178.431 92.654 178.431C92.8045 178.13 94.0839 179.485 93.8581 178.958C93.8581 179.033 93.7829 178.883 93.7076 178.808C93.6324 178.657 93.5571 178.582 93.4818 178.431C93.256 177.904 92.1271 177.528 91.6756 177.378C91.224 177.227 90.3961 176.776 90.0198 177.152C89.3425 177.679 88.5899 178.13 87.762 178.356C87.461 178.356 87.1599 178.431 86.7836 178.431C86.5578 178.507 87.6115 178.732 87.5362 178.808C87.461 178.883 86.7836 178.13 86.6331 177.98C86.1815 177.528 85.6547 177.227 85.0526 177.001C84.601 176.851 83.7732 176.399 83.2464 176.55C82.87 176.7 82.4937 176.776 82.1174 176.851C81.2896 177.001 81.2896 176.55 82.87 177.302C83.5474 177.603 83.4721 177.754 83.1711 177.302C83.0958 177.152 82.9453 176.926 82.9453 176.7C82.6443 175.496 82.6443 174.217 82.9453 173.013C83.2463 171.206 83.7732 169.4 84.4505 167.594C84.6763 167.067 81.5153 165.787 81.0638 166.089C77.5265 168.346 74.8924 172.109 70.8283 173.615C70.452 173.765 70.0757 173.765 69.6994 173.916C69.6241 173.916 69.4736 173.916 69.3983 173.916C69.3231 173.916 71.2046 174.668 71.2799 174.744C71.4304 174.894 71.4304 174.969 71.4304 174.819C71.3551 174.442 71.2799 174.066 71.3551 173.69C71.6562 172.335 72.183 170.98 73.0109 169.852C75.645 165.787 79.1823 162.325 83.3969 159.842C88.7404 156.53 95.5891 154.122 101.911 155.778C104.771 156.53 107.179 158.261 108.835 160.745C110.792 163.755 110.566 167.293 109.437 170.529C109.211 171.131 112.749 172.486 112.899 171.959C114.028 168.798 114.254 165.261 112.523 162.325C110.942 159.616 108.233 157.659 105.448 156.305C101.761 154.423 97.6212 153.52 93.4818 153.67C89.8693 153.971 86.2568 155.025 83.0206 156.681C77.9028 159.164 73.4624 162.928 70.1509 167.594C69.0973 168.948 68.3447 170.529 67.9684 172.185C67.6673 174.066 69.1726 174.744 70.753 175.27C73.613 176.249 76.0966 174.518 78.2791 172.862C79.4833 171.959 80.6875 170.905 81.8164 169.927C82.6443 169.174 83.5474 168.422 84.4505 167.744L81.0638 166.239C80.4617 167.819 80.0101 169.475 79.7091 171.131C79.2575 173.389 78.9565 176.098 81.2143 177.378C82.87 178.431 84.8268 178.732 86.7083 178.13L83.3969 176.7C84.3 177.829 85.5042 178.732 86.8589 179.259C87.9125 179.786 89.1167 180.012 90.3209 180.012C91.525 179.861 92.7292 179.334 93.6323 178.582L90.1704 177.227C90.6972 178.055 91.4498 178.732 92.3529 179.109C94.2344 180.162 96.4923 180.313 98.4491 179.485C100.18 178.732 101.61 177.378 102.513 175.722C103.266 174.367 103.943 173.013 105.524 172.486C105.975 172.335 104.62 171.583 104.47 171.507C103.868 171.281 102.814 170.679 102.137 170.905Z" fill="#000005"/>
<path d="M89.7945 162.551C88.8161 163.605 87.9882 164.734 87.1603 165.938C85.5799 168.045 84.3757 170.378 83.6231 172.937C83.2468 174.292 83.2468 175.797 83.6983 177.152C83.9994 177.905 84.6015 178.883 85.5046 179.033C86.4077 179.184 86.5582 178.281 86.3325 177.604C86.2572 177.453 86.2572 177.302 86.1819 177.152C86.1067 177.001 86.1819 177.001 86.1819 177.227C86.1819 177.152 86.1819 177.077 86.1819 177.001C86.1819 176.926 86.1819 176.7 86.1819 176.475C86.1819 176.249 86.1819 176.324 86.1819 176.475V176.249C86.2572 175.496 86.4077 174.819 86.7088 174.066C87.2356 172.636 87.9882 171.282 88.8161 170.002C89.8697 168.346 91.0739 166.766 92.3533 165.261C92.5791 165.035 92.5039 164.433 92.4286 164.207C92.2781 163.756 92.0523 163.304 91.676 162.928C91.1492 162.401 90.3966 161.949 89.7945 162.551Z" fill="#000005"/>
<path d="M96.1913 164.132C94.8366 165.486 93.6324 166.991 92.5787 168.647C90.923 171.206 89.2673 174.367 89.9446 177.528C90.0199 177.904 91.4498 178.13 91.7509 178.205C91.9014 178.205 93.7076 178.506 93.6324 178.356C92.955 175.27 94.6108 172.034 96.2665 169.55C97.3202 167.895 98.5243 166.389 99.879 165.035C99.2769 164.734 98.7501 164.508 98.0728 164.357C97.6212 164.282 97.1697 164.207 96.7933 164.132C96.5676 164.056 96.3418 163.981 96.1913 164.132Z" fill="#000005"/>
<path d="M86.1071 274.841C98.2994 262.272 110.717 249.929 123.361 237.812C126.974 234.426 130.511 231.039 134.199 227.652C134.726 227.05 134.726 226.072 134.124 225.545C134.048 225.469 134.048 225.469 133.973 225.394C133.145 224.867 132.016 225.018 131.339 225.695C118.545 237.662 105.976 249.854 93.6332 262.272C90.1712 265.809 86.7092 269.347 83.2472 272.884C81.5914 274.54 84.6771 276.271 86.1071 274.841Z" fill="#59BE4C"/>
<path d="M86.1071 274.841C98.2994 262.272 110.717 249.929 123.361 237.812C126.974 234.426 130.511 231.039 134.199 227.652C134.726 227.05 134.726 226.072 134.124 225.545C134.048 225.469 134.048 225.469 133.973 225.394C133.145 224.867 132.016 225.018 131.339 225.695C118.545 237.662 105.976 249.854 93.6332 262.272C90.1712 265.809 86.7092 269.347 83.2472 272.884C81.5914 274.54 84.6771 276.271 86.1071 274.841Z" fill="url(#paint6_linear_351_7669)"/>
<path d="M120.349 277.023C136.681 263.476 152.26 249.101 167.086 233.974C171.301 229.684 175.365 225.319 179.429 220.878C180.859 219.298 177.698 217.266 176.419 218.696C162.194 234.275 147.142 249.026 131.338 262.949C126.972 266.787 122.457 270.626 117.941 274.389C117.264 274.84 117.113 275.743 117.565 276.421C117.64 276.496 117.64 276.571 117.715 276.647C118.317 277.173 119.597 277.625 120.349 277.023Z" fill="#59BE4C"/>
<path d="M120.349 277.023C136.681 263.476 152.26 249.101 167.086 233.974C171.301 229.684 175.365 225.319 179.429 220.878C180.859 219.298 177.698 217.266 176.419 218.696C162.194 234.275 147.142 249.026 131.338 262.949C126.972 266.787 122.457 270.626 117.941 274.389C117.264 274.84 117.113 275.743 117.565 276.421C117.64 276.496 117.64 276.571 117.715 276.647C118.317 277.173 119.597 277.625 120.349 277.023Z" fill="url(#paint7_linear_351_7669)"/>
<path d="M92.4291 225.845C102.138 243.381 111.32 261.143 119.975 279.205C122.458 284.323 124.867 289.516 127.2 294.709C127.802 296.064 131.49 295.386 130.737 293.731C122.458 275.518 113.577 257.606 104.17 239.919C101.46 234.877 98.751 229.91 95.9664 224.867C95.2138 223.512 91.6013 224.265 92.4291 225.845Z" fill="#59BE4C"/>
<path d="M92.4291 225.845C102.138 243.381 111.32 261.143 119.975 279.205C122.458 284.323 124.867 289.516 127.2 294.709C127.802 296.064 131.49 295.386 130.737 293.731C122.458 275.518 113.577 257.606 104.17 239.919C101.46 234.877 98.751 229.91 95.9664 224.867C95.2138 223.512 91.6013 224.265 92.4291 225.845Z" fill="url(#paint8_linear_351_7669)"/>
<path d="M128.854 211.17C139.541 230.286 149.475 249.854 158.582 269.723C161.141 275.292 163.624 280.937 166.108 286.581C166.409 287.258 167.237 288.086 168.065 287.71C168.893 287.334 168.592 286.13 168.291 285.452C159.56 265.358 150.077 245.639 139.842 226.222C136.982 220.803 134.047 215.384 131.036 210.041C130.66 209.439 129.908 208.536 129.08 208.912C128.252 209.288 128.553 210.568 128.854 211.17Z" fill="#59BE4C"/>
<path d="M128.854 211.17C139.541 230.286 149.475 249.854 158.582 269.723C161.141 275.292 163.624 280.937 166.108 286.581C166.409 287.258 167.237 288.086 168.065 287.71C168.893 287.334 168.592 286.13 168.291 285.452C159.56 265.358 150.077 245.639 139.842 226.222C136.982 220.803 134.047 215.384 131.036 210.041C130.66 209.439 129.908 208.536 129.08 208.912C128.252 209.288 128.553 210.568 128.854 211.17Z" fill="url(#paint9_linear_351_7669)"/>
<path d="M217.812 238.941C226.016 250.23 233.993 261.594 241.82 273.185C244.078 276.496 246.261 279.808 248.443 283.119C248.97 283.872 249.572 284.474 250.325 285.001C250.852 285.302 251.077 285.226 250.701 284.624C243.025 272.959 235.122 261.519 227.069 250.155C224.736 246.919 222.403 243.682 220.07 240.446C219.543 239.693 218.941 239.091 218.188 238.565C217.662 238.264 217.361 238.339 217.812 238.941Z" fill="#59BE4C"/>
<path d="M217.812 238.941C226.016 250.23 233.993 261.594 241.82 273.185C244.078 276.496 246.261 279.808 248.443 283.119C248.97 283.872 249.572 284.474 250.325 285.001C250.852 285.302 251.077 285.226 250.701 284.624C243.025 272.959 235.122 261.519 227.069 250.155C224.736 246.919 222.403 243.682 220.07 240.446C219.543 239.693 218.941 239.091 218.188 238.565C217.662 238.264 217.361 238.339 217.812 238.941Z" fill="url(#paint10_linear_351_7669)"/>
<path d="M213.974 263.1L244.455 237.135C244.982 236.683 244.831 236.382 244.154 236.457C243.251 236.533 242.423 236.909 241.671 237.511L211.19 263.476C210.663 263.928 210.814 264.229 211.491 264.153C212.394 264.003 213.297 263.702 213.974 263.1Z" fill="#59BE4C"/>
<path d="M213.974 263.1L244.455 237.135C244.982 236.683 244.831 236.382 244.154 236.457C243.251 236.533 242.423 236.909 241.671 237.511L211.19 263.476C210.663 263.928 210.814 264.229 211.491 264.153C212.394 264.003 213.297 263.702 213.974 263.1Z" fill="url(#paint11_linear_351_7669)"/>
<path d="M226.243 289.14C236.328 278.528 246.639 268.067 257.1 257.831C257.627 257.38 257.852 256.552 257.1 256.176C256.347 255.799 255.143 256.401 254.616 256.928C244.155 267.164 233.844 277.625 223.759 288.237C223.308 288.764 223.007 289.516 223.759 289.893C224.587 290.118 225.565 289.817 226.243 289.14Z" fill="#59BE4C"/>
<path d="M226.243 289.14C236.328 278.528 246.639 268.067 257.1 257.831C257.627 257.38 257.852 256.552 257.1 256.176C256.347 255.799 255.143 256.401 254.616 256.928C244.155 267.164 233.844 277.625 223.759 288.237C223.308 288.764 223.007 289.516 223.759 289.893C224.587 290.118 225.565 289.817 226.243 289.14Z" fill="url(#paint12_linear_351_7669)"/>
<path d="M306.921 216.513C310.835 212.223 314.974 208.009 319.189 204.02C319.715 203.568 318.436 203.042 318.135 202.891C317.608 202.741 316.253 202.289 315.802 202.816C311.587 206.805 307.448 211.019 303.534 215.309C302.857 215.987 306.244 217.266 306.921 216.513Z" fill="#59BE4C"/>
<path d="M306.921 216.513C310.835 212.223 314.974 208.009 319.189 204.02C319.715 203.568 318.436 203.042 318.135 202.891C317.608 202.741 316.253 202.289 315.802 202.816C311.587 206.805 307.448 211.019 303.534 215.309C302.857 215.987 306.244 217.266 306.921 216.513Z" fill="url(#paint13_linear_351_7669)"/>
<path d="M304.664 203.644C309.481 209.514 314.072 215.61 318.362 221.857C318.813 222.685 319.791 222.986 320.544 222.534C321.372 222.083 321.673 221.104 321.221 220.352C321.146 220.201 321.071 220.051 320.92 219.975C316.631 213.729 312.04 207.633 307.223 201.687C306.771 200.859 305.793 200.633 304.965 201.01C304.137 201.386 303.911 202.44 304.288 203.267C304.438 203.493 304.513 203.569 304.664 203.644Z" fill="#59BE4C"/>
<path d="M304.664 203.644C309.481 209.514 314.072 215.61 318.362 221.857C318.813 222.685 319.791 222.986 320.544 222.534C321.372 222.083 321.673 221.104 321.221 220.352C321.146 220.201 321.071 220.051 320.92 219.975C316.631 213.729 312.04 207.633 307.223 201.687C306.771 200.859 305.793 200.633 304.965 201.01C304.137 201.386 303.911 202.44 304.288 203.267C304.438 203.493 304.513 203.569 304.664 203.644Z" fill="url(#paint14_linear_351_7669)"/>
<defs>
<linearGradient id="paint0_linear_351_7669" x1="197.417" y1="175.119" x2="197.417" y2="314.814" gradientUnits="userSpaceOnUse">
<stop stop-color="#A8EBED"/>
<stop offset="1" stop-color="#D7FEFF"/>
</linearGradient>
<linearGradient id="paint1_linear_351_7669" x1="197.389" y1="159.766" x2="197.389" y2="202.589" gradientUnits="userSpaceOnUse">
<stop stop-color="#A8EBED"/>
<stop offset="1" stop-color="#D7FEFF"/>
</linearGradient>
<linearGradient id="paint2_linear_351_7669" x1="197.476" y1="158.155" x2="197.476" y2="204.238" gradientUnits="userSpaceOnUse">
<stop stop-color="#A8EBED"/>
<stop offset="1" stop-color="#D7FEFF"/>
</linearGradient>
<linearGradient id="paint3_linear_351_7669" x1="244.705" y1="97.4756" x2="244.705" y2="218.894" gradientUnits="userSpaceOnUse">
<stop stop-color="#A8EBED"/>
<stop offset="1" stop-color="#D7FEFF"/>
</linearGradient>
<linearGradient id="paint4_linear_351_7669" x1="269.239" y1="201.479" x2="269.239" y2="210.253" gradientUnits="userSpaceOnUse">
<stop stop-color="#A8EBED"/>
<stop offset="1" stop-color="#D7FEFF"/>
</linearGradient>
<linearGradient id="paint5_linear_351_7669" x1="196.061" y1="201.075" x2="196.061" y2="314.662" gradientUnits="userSpaceOnUse">
<stop stop-color="#A8EBED"/>
<stop offset="1" stop-color="#D7FEFF"/>
</linearGradient>
<linearGradient id="paint6_linear_351_7669" x1="108.678" y1="225.077" x2="108.678" y2="275.372" gradientUnits="userSpaceOnUse">
<stop stop-color="#A8EBED"/>
<stop offset="1" stop-color="#D7FEFF"/>
</linearGradient>
<linearGradient id="paint7_linear_351_7669" x1="148.55" y1="218.21" x2="148.55" y2="277.31" gradientUnits="userSpaceOnUse">
<stop stop-color="#A8EBED"/>
<stop offset="1" stop-color="#D7FEFF"/>
</linearGradient>
<linearGradient id="paint8_linear_351_7669" x1="111.572" y1="224.164" x2="111.572" y2="295.432" gradientUnits="userSpaceOnUse">
<stop stop-color="#A8EBED"/>
<stop offset="1" stop-color="#D7FEFF"/>
</linearGradient>
<linearGradient id="paint9_linear_351_7669" x1="148.572" y1="208.823" x2="148.572" y2="287.804" gradientUnits="userSpaceOnUse">
<stop stop-color="#A8EBED"/>
<stop offset="1" stop-color="#D7FEFF"/>
</linearGradient>
<linearGradient id="paint10_linear_351_7669" x1="234.24" y1="238.393" x2="234.24" y2="285.173" gradientUnits="userSpaceOnUse">
<stop stop-color="#A8EBED"/>
<stop offset="1" stop-color="#D7FEFF"/>
</linearGradient>
<linearGradient id="paint11_linear_351_7669" x1="227.823" y1="236.446" x2="227.823" y2="264.165" gradientUnits="userSpaceOnUse">
<stop stop-color="#A8EBED"/>
<stop offset="1" stop-color="#D7FEFF"/>
</linearGradient>
<linearGradient id="paint12_linear_351_7669" x1="240.442" y1="256.058" x2="240.442" y2="289.967" gradientUnits="userSpaceOnUse">
<stop stop-color="#A8EBED"/>
<stop offset="1" stop-color="#D7FEFF"/>
</linearGradient>
<linearGradient id="paint13_linear_351_7669" x1="311.38" y1="202.567" x2="311.38" y2="216.743" gradientUnits="userSpaceOnUse">
<stop stop-color="#A8EBED"/>
<stop offset="1" stop-color="#D7FEFF"/>
</linearGradient>
<linearGradient id="paint14_linear_351_7669" x1="312.771" y1="200.833" x2="312.771" y2="222.744" gradientUnits="userSpaceOnUse">
<stop stop-color="#A8EBED"/>
<stop offset="1" stop-color="#D7FEFF"/>
</linearGradient>
</defs>
</svg>
