<svg width="20" height="21" viewBox="0 0 20 21" fill="none" xmlns="http://www.w3.org/2000/svg">
<path d="M8.30078 17.0996C8.30078 17.3468 8.22747 17.5885 8.09012 17.7941C7.95277 17.9996 7.75754 18.1599 7.52914 18.2545C7.30073 18.3491 7.04939 18.3738 6.80692 18.3256C6.56444 18.2774 6.34171 18.1583 6.1669 17.9835C5.99208 17.8087 5.87303 17.5859 5.8248 17.3435C5.77657 17.101 5.80132 16.8497 5.89593 16.6213C5.99054 16.3928 6.15076 16.1976 6.35632 16.0603C6.56188 15.9229 6.80355 15.8496 7.05078 15.8496C7.3823 15.8496 7.70024 15.9813 7.93466 16.2157C8.16908 16.4501 8.30078 16.7681 8.30078 17.0996ZM15.1758 15.8496C14.9286 15.8496 14.6869 15.9229 14.4813 16.0603C14.2758 16.1976 14.1155 16.3928 14.0209 16.6213C13.9263 16.8497 13.9016 17.101 13.9498 17.3435C13.998 17.5859 14.1171 17.8087 14.2919 17.9835C14.4667 18.1583 14.6894 18.2774 14.9319 18.3256C15.1744 18.3738 15.4257 18.3491 15.6541 18.2545C15.8825 18.1599 16.0778 17.9996 16.2151 17.7941C16.3525 17.5885 16.4258 17.3468 16.4258 17.0996C16.4258 16.7681 16.2941 16.4501 16.0597 16.2157C15.8252 15.9813 15.5073 15.8496 15.1758 15.8496ZM18.9031 6.0168L16.9 13.2262C16.7899 13.62 16.5543 13.9672 16.2291 14.215C15.9038 14.4629 15.5066 14.5979 15.0977 14.5996H7.37578C6.96565 14.5994 6.56683 14.4651 6.24016 14.2171C5.91348 13.9692 5.67687 13.6212 5.56641 13.2262L2.82578 3.34961H1.42578C1.26002 3.34961 1.10105 3.28376 0.983839 3.16655C0.866629 3.04934 0.800781 2.89037 0.800781 2.72461C0.800781 2.55885 0.866629 2.39988 0.983839 2.28267C1.10105 2.16546 1.26002 2.09961 1.42578 2.09961H3.30078C3.43742 2.09958 3.57031 2.14434 3.67909 2.22702C3.78788 2.3097 3.86657 2.42576 3.90313 2.55742L4.64375 5.22461H18.3008C18.3971 5.22459 18.4922 5.24685 18.5785 5.28965C18.6648 5.33244 18.7401 5.39462 18.7984 5.47132C18.8567 5.54802 18.8965 5.63716 18.9147 5.73179C18.9329 5.82641 18.9289 5.92396 18.9031 6.0168ZM17.4781 6.47461H4.99141L6.77344 12.8918C6.80999 13.0235 6.88868 13.1395 6.99747 13.2222C7.10625 13.3049 7.23914 13.3496 7.37578 13.3496H15.0977C15.2343 13.3496 15.3672 13.3049 15.476 13.2222C15.5848 13.1395 15.6634 13.0235 15.7 12.8918L17.4781 6.47461Z" fill="white"/>
</svg>
