<svg width="25" height="26" viewBox="0 0 25 26" fill="none" xmlns="http://www.w3.org/2000/svg">
<path d="M20.0844 19.2153C20.157 19.2879 20.2146 19.374 20.2539 19.4689C20.2931 19.5637 20.3134 19.6654 20.3134 19.768C20.3134 19.8707 20.2931 19.9723 20.2539 20.0672C20.2146 20.162 20.157 20.2482 20.0844 20.3207C20.0118 20.3933 19.9257 20.4509 19.8308 20.4902C19.736 20.5295 19.6343 20.5497 19.5317 20.5497C19.429 20.5497 19.3274 20.5295 19.2325 20.4902C19.1377 20.4509 19.0515 20.3933 18.979 20.3207L12.5004 13.8413L6.02192 20.3207C5.87532 20.4673 5.6765 20.5497 5.46918 20.5497C5.26187 20.5497 5.06304 20.4673 4.91645 20.3207C4.76986 20.1742 4.6875 19.9753 4.6875 19.768C4.6875 19.5607 4.76986 19.3619 4.91645 19.2153L11.3959 12.7368L4.91645 6.25825C4.76986 6.11165 4.6875 5.91283 4.6875 5.70551C4.6875 5.4982 4.76986 5.29937 4.91645 5.15278C5.06304 5.00618 5.26187 4.92383 5.46918 4.92383C5.6765 4.92383 5.87532 5.00618 6.02192 5.15278L12.5004 11.6323L18.979 5.15278C19.1255 5.00618 19.3244 4.92383 19.5317 4.92383C19.739 4.92383 19.9378 5.00618 20.0844 5.15278C20.231 5.29937 20.3134 5.4982 20.3134 5.70551C20.3134 5.91283 20.231 6.11165 20.0844 6.25825L13.6049 12.7368L20.0844 19.2153Z" fill="black"/>
</svg>
