<svg width="35" height="35" viewBox="0 0 35 35" fill="none" xmlns="http://www.w3.org/2000/svg">
<circle cx="17.5" cy="17.5" r="17.5" fill="#E8E8E8"/>
<path d="M24.5 18.7492V24C24.5 24.1989 24.421 24.3897 24.2803 24.5303C24.1397 24.671 23.9489 24.75 23.75 24.75H17.75V18.7492H24.5ZM16.25 18.7492V24.75H10.25C10.0511 24.75 9.86032 24.671 9.71967 24.5303C9.57902 24.3897 9.5 24.1989 9.5 24V18.7492H16.25ZM16.25 11.25V17.2492H9.5V12C9.5 11.8011 9.57902 11.6103 9.71967 11.4697C9.86032 11.329 10.0511 11.25 10.25 11.25H16.25ZM23.75 11.25C23.9489 11.25 24.1397 11.329 24.2803 11.4697C24.421 11.6103 24.5 11.8011 24.5 12V17.2492H17.75V11.25H23.75Z" fill="#727378"/>
</svg>
