<svg width="35" height="35" viewBox="0 0 35 35" fill="none" xmlns="http://www.w3.org/2000/svg">
<circle cx="17.5" cy="17.5" r="17.5" fill="#E8E8E8"/>
<path d="M19.5 16.5V19.5H16.5V16.5H19.5ZM21 16.5H24.75V19.5H21V16.5ZM19.5 24.75H16.5V21H19.5V24.75ZM21 24.75V21H24.75V24C24.75 24.1989 24.671 24.3897 24.5303 24.5303C24.3897 24.671 24.1989 24.75 24 24.75H21ZM19.5 11.25V15H16.5V11.25H19.5ZM21 11.25H24C24.1989 11.25 24.3897 11.329 24.5303 11.4697C24.671 11.6103 24.75 11.8011 24.75 12V15H21V11.25ZM15 16.5V19.5H11.25V16.5H15ZM15 24.75H12C11.8011 24.75 11.6103 24.671 11.4697 24.5303C11.329 24.3897 11.25 24.1989 11.25 24V21H15V24.75ZM15 11.25V15H11.25V12C11.25 11.8011 11.329 11.6103 11.4697 11.4697C11.6103 11.329 11.8011 11.25 12 11.25H15Z" fill="#727378"/>
</svg>
