<svg width="30" height="30" viewBox="0 0 30 30" fill="none" xmlns="http://www.w3.org/2000/svg">
<path d="M27.0237 5.80433C26.8794 5.47094 26.6402 5.18733 26.336 4.98877C26.0318 4.7902 25.676 4.68545 25.3127 4.68753H4.68771C4.32482 4.68825 3.96993 4.79425 3.6661 4.99269C3.36227 5.19114 3.12256 5.47348 2.97603 5.80548C2.82951 6.13748 2.78248 6.50486 2.84065 6.86307C2.89882 7.22127 3.05968 7.55489 3.30373 7.82347L3.3131 7.83401L11.2502 16.309V25.3125C11.2501 25.6519 11.3422 25.9849 11.5165 26.2761C11.6908 26.5672 11.9408 26.8056 12.24 26.9658C12.5391 27.126 12.8761 27.2021 13.2151 27.1858C13.554 27.1695 13.8822 27.0616 14.1647 26.8735L17.9147 24.3727C18.1717 24.2015 18.3825 23.9694 18.5283 23.6971C18.6741 23.4247 18.7503 23.1206 18.7502 22.8118V16.309L26.6885 7.83401L26.6979 7.82347C26.9445 7.55612 27.1069 7.22205 27.1649 6.86296C27.2228 6.50387 27.1737 6.13568 27.0237 5.80433ZM17.1307 15.3024C16.9685 15.4743 16.8773 15.7012 16.8752 15.9375V22.8118L13.1252 25.3125V15.9375C13.1253 15.6995 13.0348 15.4703 12.8721 15.2965L4.68771 6.56253H25.3127L17.1307 15.3024Z" fill="#1A1916"/>
</svg>
