<svg width="11" height="7" viewBox="0 0 11 7" fill="none" xmlns="http://www.w3.org/2000/svg">
<path d="M0.480597 5.54359L5.1681 0.856087C5.21163 0.812505 5.26333 0.77793 5.32024 0.75434C5.37714 0.730751 5.43814 0.71861 5.49974 0.71861C5.56134 0.71861 5.62234 0.730751 5.67924 0.75434C5.73615 0.77793 5.78785 0.812505 5.83138 0.856087L10.5189 5.54359C10.6068 5.63154 10.6562 5.75084 10.6562 5.87523C10.6562 5.99962 10.6068 6.11891 10.5189 6.20687C10.4309 6.29483 10.3116 6.34424 10.1872 6.34424C10.0628 6.34424 9.94356 6.29483 9.8556 6.20687L5.49974 1.85042L1.14388 6.20687C1.10033 6.25042 1.04862 6.28497 0.991721 6.30854C0.934818 6.33211 0.87383 6.34424 0.812239 6.34424C0.750647 6.34424 0.689658 6.33211 0.632755 6.30854C0.575852 6.28497 0.524149 6.25042 0.480597 6.20687C0.437046 6.16332 0.402499 6.11161 0.378929 6.05471C0.355359 5.99781 0.343227 5.93682 0.343227 5.87523C0.343227 5.81364 0.355359 5.75265 0.378929 5.69575C0.402499 5.63884 0.437046 5.58714 0.480597 5.54359Z" fill="#1A1916"/>
</svg>
