<svg width="1820" height="634" viewBox="0 0 1820 634" fill="none" xmlns="http://www.w3.org/2000/svg">
<g clip-path="url(#clip0_242_5941)">
<path opacity="0.3" d="M1460.63 490.983L1460.63 490.983C1227.14 501.512 983.599 490.721 861.15 463.878L864.469 448.737L861.15 463.878C830.519 457.162 808.218 450.662 794.357 441.961C787.062 437.382 780.746 431.379 777.376 423.142C773.957 414.785 774.485 406.375 776.543 398.844C781.247 381.631 795.061 372.238 817.413 364.134C839.841 356.003 876.075 347.364 933.985 334.94C946.657 332.222 958.575 329.633 969.674 327.189C923.929 324.34 874.429 321.009 847.236 318.821C766.134 312.298 716.882 306.571 607.629 290.988C399.708 261.332 258.096 233.532 -7.62593 170.255C-85.2166 151.779 -97.9334 148.487 -113.378 138.156L-107.612 129.535L-113.378 138.156C-118.204 134.927 -123.752 131.855 -125.264 131.235L1460.63 490.983ZM1460.63 490.983C1479.43 490.135 1504.2 489.013 1515.68 488.49L1515.68 488.49C1670.34 481.437 1755.87 473.413 1818.42 459.688L1818.42 459.688C1829.76 457.2 1837.73 455.41 1842.71 453.483C1845.3 452.477 1849.21 450.687 1852.34 447.061C1855.91 442.933 1856.72 438.516 1857.01 436.227L1857.01 436.225L1857.02 436.165C1857.26 434.246 1858.39 425.353 1850.82 418.976C1847.64 416.303 1844.2 415.258 1841.88 414.784C1839.51 414.299 1837.14 414.183 1835.07 414.184C1827.46 414.184 1814.32 415.958 1793.28 418.937C1749.32 425.164 1710.63 427.917 1603.52 432.273L1604.15 447.76L1603.52 432.273C1245.7 446.823 1082.42 443.208 905.381 417.256L903.133 432.592M1460.63 490.983L903.133 432.592M903.133 432.592L905.381 417.256C891.727 415.255 874.777 411.592 859.599 407.659M903.133 432.592L859.599 407.659M859.599 407.659C880.242 402.217 909.652 395.385 949.054 386.853L945.774 371.704L949.055 386.853C1004.2 374.912 1048.88 364.596 1080.75 356.492C1096.66 352.446 1109.56 348.907 1119.03 345.957C1123.74 344.488 1127.82 343.099 1131.09 341.806C1133.71 340.77 1137.76 339.076 1140.8 336.543L1130.89 324.629L1140.8 336.543C1145.44 332.681 1149.69 327.488 1151.48 320.835C1153.39 313.73 1152.01 306.747 1148.4 301.002C1141.98 290.758 1129.46 285.492 1117.44 282.987C1103.64 280.109 1099.25 279.861 1041.01 277.006C872.532 268.747 766.299 258.957 624.12 238.612C407.314 207.59 271.119 181.079 17.4114 120.487C-72.7003 98.9654 -80.2547 97.2218 -101.26 98.3165C-104.468 98.4837 -108.002 98.5644 -111.062 98.5578C-112.589 98.5545 -113.935 98.5296 -115.018 98.4881C-115.558 98.4674 -115.998 98.4439 -116.338 98.4205C-116.507 98.4089 -116.636 98.3982 -116.73 98.3896C-116.816 98.3817 -116.856 98.3769 -116.856 98.3769L-116.854 98.3771C-118.904 98.1188 -121.245 97.902 -123.428 97.9785C-124.385 98.012 -126.384 98.1239 -128.621 98.831C-129.718 99.1776 -137.785 101.77 -139.574 110.975C-141.19 119.286 -135.849 124.612 -135.114 125.345L-135.081 125.378C-133.563 126.899 -132.001 127.887 -131.173 128.384C-129.335 129.486 -127.213 130.438 -125.267 131.234L859.599 407.659ZM1831.8 424.451C1831.8 424.452 1831.76 424.474 1831.66 424.514C1831.75 424.47 1831.8 424.45 1831.8 424.451Z" fill="#505050" stroke="#505050" stroke-width="31"/>
</g>
<defs>
<clipPath id="clip0_242_5941">
<rect width="1820" height="634" fill="white"/>
</clipPath>
</defs>
</svg>
