<svg width="1700" height="124" viewBox="0 0 1700 124" fill="none" xmlns="http://www.w3.org/2000/svg">
<g opacity="0.05" clip-path="url(#clip0_249_6477)">
<path fill-rule="evenodd" clip-rule="evenodd" d="M45.6423 67.3343L19.2075 90.0715V132.993H0V2.51324H19.2075V81.216L98.2763 13.1638L92.3059 2.55313H120.862L57.2297 57.3618L131.467 133.073H110.139L46.2315 67.9725L45.6031 67.3343H45.6423ZM536.121 81.0564L532.271 74.315L503.48 23.4953L479.637 65.5393H512.514L516.324 72.2807H475.788L474.649 74.315L470.839 81.0564L449.392 118.872L457.405 133.073H433.641L440.751 120.468L499.63 16.714L491.578 2.55313H511.728L585.73 133.073H565.58L536.081 81.0564H536.121ZM180.605 65.5393H228.251L204.409 23.4953L180.566 65.5393H180.605ZM359.836 72.2807L419.697 133.073H395.187L339.804 76.8281C336.936 73.9161 333.048 72.2807 328.963 72.2807H252.211L286.659 133.073H266.509L237.01 81.0564L233.161 74.315L232.022 72.2807H176.677L175.538 74.315L171.728 81.0564L150.282 118.872L158.295 133.073H134.531L141.64 120.468L168.979 72.2807H120.783V65.5393H172.789L200.481 16.714L192.428 2.55313H212.579L248.283 65.5393H356.733C369.459 65.5393 381.989 57.6012 385.446 44.7566C386.742 39.8901 386.742 34.9437 385.446 30.0772C382.029 17.2326 369.459 9.29452 356.733 9.29452H292.983V2.55313H369.067C381.911 2.55313 397.976 11.5284 403.318 23.6948C407.246 32.7099 407.246 42.1638 403.318 51.1789C397.976 63.3453 381.95 72.3205 369.106 72.3205H359.757L359.836 72.2807ZM657.729 134.788H657.69C656.982 134.788 656.236 134.788 655.529 134.788H654.586C635.458 134.549 606.234 128.206 594.332 111.891C589.933 105.828 594.607 97.3315 601.874 97.3315H603.563C607.727 97.3315 611.34 100.204 612.322 104.312C614.993 115.362 626.148 122.582 636.125 125.972C636.44 126.092 636.754 126.172 637.068 126.252C643.156 127.448 649.362 128.087 655.568 128.087H657.69C663.189 127.967 668.688 127.369 674.108 126.292C674.462 126.212 674.776 126.132 675.051 126.052C686.363 122.223 699.404 113.208 699.404 99.685C699.404 90.7896 693.512 83.6493 686.52 78.9423C680.314 74.7937 672.93 72.7992 665.624 72.0413C660.871 71.5626 656.118 71.1637 651.366 70.8047C648.734 70.6053 645.474 70.4856 642.842 70.0867C642.646 70.0867 642.488 70.0468 642.331 70.0069C623.87 68.4911 600.303 58.1197 600.303 36.1005C600.303 24.8915 609.18 16.1955 618.057 10.8901C628.937 4.18861 642.763 0.797974 655.529 0.797974H657.768C675.012 1.43621 697.911 8.69617 707.299 23.9341C711.109 30.117 706.788 38.2546 699.561 38.2546C695.28 38.2546 691.627 35.1831 690.723 30.9148C688.602 20.8626 680.589 13.4431 671.516 9.65353C671.162 9.49397 670.809 9.3743 670.455 9.29452C665.585 8.13771 660.557 7.53937 655.529 7.53937H653.958C649.48 7.65904 645.042 8.29727 640.682 9.3743C640.289 9.45408 639.935 9.57375 639.621 9.69342C628.937 14.1212 619.824 23.6549 619.824 35.9809C619.824 44.3976 624.067 51.7374 630.43 56.8832C635.458 60.9519 641.742 62.9464 648.066 63.5847C655.411 64.3426 662.717 64.7814 670.062 65.4595C688.524 67.2545 721.007 75.4718 721.007 99.5653C721.007 111.812 710.009 120.348 700.15 125.215C687.463 131.517 671.909 134.429 657.729 134.708V134.788Z" fill="white"/>
<path fill-rule="evenodd" clip-rule="evenodd" d="M1327.83 128.008C1329.99 128.008 1332.11 127.888 1334.24 127.768C1364.79 124.737 1389.7 99.5662 1389.7 67.8139C1389.7 36.0615 1364.79 10.891 1334.24 7.85939C1332.11 7.73972 1329.99 7.62005 1327.83 7.62005C1325.67 7.62005 1323.55 7.73972 1321.43 7.85939C1290.87 10.891 1265.97 36.0615 1265.97 67.8139C1265.97 99.5662 1290.91 124.737 1321.43 127.768C1323.51 127.888 1325.67 128.008 1327.79 128.008M1224.45 102.359V120.628L1223.35 121.306C1219.97 123.381 1216.48 125.255 1212.86 126.811C1200.45 132.196 1186.94 134.789 1173.47 134.789C1159.99 134.789 1146.48 132.196 1134.07 126.811C1129.47 124.817 1125.04 122.423 1120.83 119.671C1118.79 118.314 1116.83 116.878 1114.94 115.363C1111.25 112.411 1107.83 109.1 1104.77 105.47C1101.82 101.96 1099.19 98.1701 1097.07 94.1013C1092.79 85.9638 1090.43 77.0683 1090.43 67.8538C1090.43 58.6392 1092.75 49.7039 1097.07 41.6062C1099.23 37.5375 1101.82 33.708 1104.77 30.2376C1107.83 26.6076 1111.25 23.2968 1114.94 20.3449C1116.83 18.8291 1118.83 17.3931 1120.83 16.0368C1125.04 13.2844 1129.47 10.891 1134.07 8.89653C1146.48 3.51139 1159.99 0.918552 1173.47 0.918552C1186.94 0.918552 1200.45 3.51139 1212.86 8.89653C1216.48 10.4921 1219.97 12.367 1223.35 14.4013L1224.45 15.0396V33.2693L1220.56 28.8016C1210.11 16.8346 1195.5 9.4151 1179.87 7.85939C1177.75 7.69983 1175.63 7.62005 1173.47 7.62005C1171.31 7.62005 1169.18 7.73972 1167.06 7.85939C1136.5 10.891 1111.6 36.0615 1111.6 67.8139C1111.6 99.5662 1136.5 124.737 1167.06 127.768C1169.18 127.888 1171.31 128.008 1173.47 128.008C1175.63 128.008 1177.75 127.888 1179.87 127.768C1195.5 126.213 1210.11 118.793 1220.56 106.826L1224.45 102.359ZM854.912 134.071V134.151H795.876V127.409H852.674C854.48 127.33 856.287 127.25 858.016 127.17C888.3 124.099 913.281 99.3668 913.281 67.8139C913.281 36.261 888.3 11.5293 858.016 8.45774C856.248 8.33807 854.441 8.25829 852.674 8.25829H815.083V107.863H795.876V1.39723H854.912V1.47701C874.513 2.11525 894.388 8.29818 909.943 20.6242C913.635 23.5361 917.091 26.8071 920.155 30.3972C921.648 32.1523 923.022 33.9873 924.358 35.8621C930.839 45.316 934.531 56.166 934.531 67.6942C934.531 79.2224 930.839 90.1123 924.358 99.5662C923.062 101.481 921.648 103.276 920.155 105.031C917.091 108.621 913.635 111.892 909.943 114.804C894.388 127.13 874.513 133.313 854.912 133.951V134.071ZM991.604 64.4233H1054.49V71.1646H991.604V64.4233ZM978.799 9.29543V126.292H1070.36V133.034H959.591V2.51415H1070.36V9.25554H978.799V9.29543ZM1621.25 64.4233H1684.13V71.1646H1621.25V64.4233ZM1608.44 9.29543V126.292H1700V133.034H1589.24V2.51415H1700V9.25554H1608.44V9.29543ZM1503.84 72.2816L1563.7 133.074H1539.19L1483.81 76.829C1480.94 73.917 1477.05 72.2816 1472.97 72.2816H1437.07V65.5402H1500.86C1513.58 65.5402 1526.11 57.6021 1529.57 44.7575C1530.87 39.891 1530.87 34.9446 1529.57 30.0781C1526.15 17.2335 1513.58 9.29543 1500.86 9.29543H1437.11V2.55404H1513.19C1526.04 2.55404 1542.1 11.5293 1547.44 23.6957C1551.37 32.7108 1551.37 42.1647 1547.44 51.1798C1542.1 63.3462 1526.07 72.3214 1513.23 72.3214H1503.88L1503.84 72.2816ZM1410.87 67.774C1410.87 77.0285 1408.55 85.9239 1404.27 94.0216C1402.11 98.0903 1399.52 101.92 1396.57 105.43C1393.51 109.06 1390.09 112.331 1386.4 115.323C1384.51 116.839 1382.51 118.275 1380.51 119.631C1376.3 122.383 1371.9 124.777 1367.31 126.771C1354.9 132.156 1341.38 134.749 1327.91 134.749C1314.44 134.749 1300.93 132.156 1288.51 126.771C1283.92 124.777 1279.48 122.383 1275.28 119.631C1273.24 118.275 1271.27 116.839 1269.39 115.323C1265.69 112.371 1262.24 109.06 1259.17 105.43C1256.23 101.92 1253.6 98.1302 1251.47 94.0614C1247.19 85.9239 1244.84 77.0285 1244.84 67.8139C1244.84 58.5993 1247.15 49.664 1251.47 41.5663C1253.63 37.4976 1256.23 33.6682 1259.17 30.1977C1262.24 26.5678 1265.69 23.2569 1269.39 20.305C1271.27 18.7892 1273.27 17.3532 1275.28 15.9969C1279.48 13.2445 1283.92 10.8511 1288.51 8.85664C1300.93 3.4715 1314.44 0.878662 1327.91 0.878662C1341.38 0.878662 1354.9 3.4715 1367.31 8.85664C1371.9 10.8511 1376.34 13.2445 1380.51 15.9969C1382.55 17.3532 1384.51 18.7892 1386.4 20.305C1390.09 23.2569 1393.51 26.5678 1396.57 30.1977C1399.52 33.708 1402.15 37.5375 1404.27 41.6062C1408.55 49.7438 1410.87 58.6392 1410.87 67.8538V67.774Z" fill="white"/>
</g>
<defs>
<clipPath id="clip0_249_6477">
<rect width="1700" height="133.99" fill="white" transform="translate(0 0.797974)"/>
</clipPath>
</defs>
</svg>
