<svg width="216" height="19" viewBox="0 0 216 19" fill="none" xmlns="http://www.w3.org/2000/svg">
<g clip-path="url(#clip0_249_5651)">
<path fill-rule="evenodd" clip-rule="evenodd" d="M5.79926 9.44182L2.44048 12.3308V17.7843H0V1.20573H2.44048V11.2056L12.4869 2.55899L11.7283 1.2108H15.3566L7.27153 8.17473L16.7041 17.7945H13.9941L5.87412 9.52291L5.79427 9.44182H5.79926ZM68.1189 11.1853L67.6298 10.3288L63.9715 3.87169L60.9421 9.21375H65.1194L65.6035 10.0703H60.453L60.3083 10.3288L59.8242 11.1853L57.0993 15.9901L58.1174 17.7945H55.098L56.0013 16.1929L63.4824 3.01007L62.4593 1.2108H65.0196L74.4222 17.7945H71.8619L68.1139 11.1853H68.1189ZM22.9475 9.21375H29.0013L25.9719 3.87169L22.9425 9.21375H22.9475ZM45.7203 10.0703L53.3262 17.7945H50.212L43.175 10.6481C42.8107 10.2781 42.3166 10.0703 41.7976 10.0703H32.0457L36.4226 17.7945H33.8623L30.1142 11.1853L29.6251 10.3288L29.4804 10.0703H22.4484L22.3037 10.3288L21.8196 11.1853L19.0946 15.9901L20.1128 17.7945H17.0933L17.9967 16.1929L21.4702 10.0703H15.3466V9.21375H21.9543L25.4728 3.01007L24.4497 1.2108H27.01L31.5466 9.21375H45.3261C46.9431 9.21375 48.5351 8.20514 48.9743 6.57313C49.139 5.95479 49.139 5.32631 48.9743 4.70797C48.5401 3.07596 46.9431 2.06735 45.3261 2.06735H37.2261V1.2108H46.8932C48.5251 1.2108 50.5664 2.35118 51.2451 3.89703C51.7442 5.04248 51.7442 6.24368 51.2451 7.38913C50.5664 8.93499 48.5301 10.0754 46.8982 10.0754H45.7104L45.7203 10.0703ZM83.5702 18.0124H83.5653C83.4754 18.0124 83.3806 18.0124 83.2908 18.0124H83.171C80.7405 17.982 77.0274 17.1761 75.5152 15.1032C74.9562 14.3328 75.5501 13.2532 76.4734 13.2532H76.688C77.217 13.2532 77.6762 13.6182 77.8009 14.1402C78.1403 15.5441 79.5577 16.4615 80.8253 16.8923C80.8652 16.9075 80.9052 16.9177 80.9451 16.9278C81.7187 17.0798 82.5072 17.1609 83.2957 17.1609H83.5653C84.264 17.1457 84.9627 17.0697 85.6514 16.9329C85.6963 16.9227 85.7362 16.9126 85.7712 16.9025C87.2085 16.4159 88.8654 15.2704 88.8654 13.5523C88.8654 12.422 88.1168 11.5148 87.2285 10.9167C86.4399 10.3896 85.5017 10.1362 84.5734 10.0399C83.9695 9.97907 83.3656 9.92838 82.7617 9.88277C82.4274 9.85743 82.0131 9.84222 81.6787 9.79154C81.6538 9.79154 81.6338 9.78647 81.6139 9.7814C79.2682 9.5888 76.2738 8.27103 76.2738 5.47329C76.2738 4.04908 77.4017 2.94418 78.5296 2.27009C79.912 1.4186 81.6688 0.987793 83.2908 0.987793H83.5752C85.7662 1.06889 88.6758 1.99133 89.8686 3.92744C90.3527 4.71304 89.8037 5.74699 88.8854 5.74699C88.3414 5.74699 87.8773 5.35672 87.7625 4.81441C87.493 3.53718 86.4749 2.59446 85.322 2.11297C85.2771 2.0927 85.2322 2.07749 85.1872 2.06735C84.5684 1.92037 83.9296 1.84435 83.2908 1.84435H83.0911C82.5222 1.85955 81.9582 1.94065 81.4043 2.07749C81.3543 2.08763 81.3094 2.10283 81.2695 2.11804C79.912 2.68063 78.7542 3.89196 78.7542 5.45809C78.7542 6.52751 79.2932 7.46009 80.1017 8.11391C80.7405 8.63088 81.539 8.8843 82.3425 8.96539C83.2758 9.06169 84.2041 9.11745 85.1373 9.20361C87.483 9.43168 91.6104 10.4758 91.6104 13.5371C91.6104 15.093 90.2129 16.1777 88.9603 16.796C87.3482 17.5968 85.3719 17.9668 83.5702 18.0023V18.0124Z" fill="white"/>
<path fill-rule="evenodd" clip-rule="evenodd" d="M168.713 17.1509C168.987 17.1509 169.257 17.1357 169.526 17.1205C173.409 16.7353 176.573 13.5372 176.573 9.50276C176.573 5.46834 173.409 2.27021 169.526 1.88501C169.257 1.86981 168.987 1.8546 168.713 1.8546C168.438 1.8546 168.169 1.86981 167.899 1.88501C164.017 2.27021 160.852 5.46834 160.852 9.50276C160.852 13.5372 164.022 16.7353 167.899 17.1205C168.164 17.1357 168.438 17.1509 168.708 17.1509M155.577 13.892V16.2133L155.437 16.2994C155.008 16.563 154.564 16.8012 154.105 16.9989C152.528 17.6831 150.811 18.0125 149.099 18.0125C147.387 18.0125 145.671 17.6831 144.093 16.9989C143.51 16.7455 142.946 16.4413 142.412 16.0916C142.152 15.9193 141.903 15.7368 141.663 15.5442C141.194 15.1692 140.76 14.7485 140.37 14.2873C139.996 13.8413 139.662 13.3598 139.392 12.8428C138.848 11.8089 138.549 10.6786 138.549 9.50783C138.549 8.33704 138.843 7.20172 139.392 6.17284C139.667 5.65587 139.996 5.16931 140.37 4.72836C140.76 4.26714 141.194 3.84647 141.663 3.47141C141.903 3.27881 142.157 3.09635 142.412 2.92402C142.946 2.57431 143.51 2.27021 144.093 2.01679C145.671 1.33256 147.387 1.00312 149.099 1.00312C150.811 1.00312 152.528 1.33256 154.105 2.01679C154.564 2.21952 155.008 2.45774 155.437 2.71622L155.577 2.79732V5.11356L155.083 4.5459C153.756 3.02539 151.899 2.08268 149.913 1.88501C149.643 1.86474 149.374 1.8546 149.099 1.8546C148.825 1.8546 148.555 1.86981 148.286 1.88501C144.403 2.27021 141.239 5.46834 141.239 9.50276C141.239 13.5372 144.403 16.7353 148.286 17.1205C148.555 17.1357 148.825 17.1509 149.099 17.1509C149.374 17.1509 149.643 17.1357 149.913 17.1205C151.899 16.9228 153.756 15.9801 155.083 14.4596L155.577 13.892ZM108.624 17.9213V17.9314H101.123V17.0749H108.34C108.569 17.0648 108.799 17.0546 109.018 17.0445C112.866 16.6542 116.04 13.5118 116.04 9.50276C116.04 5.49368 112.866 2.3513 109.018 1.96104C108.794 1.94583 108.564 1.93569 108.34 1.93569H103.564V14.5914H101.123V1.06394H108.624V1.07407C111.115 1.15517 113.64 1.94076 115.616 3.50689C116.085 3.87688 116.525 4.29248 116.914 4.74864C117.103 4.97164 117.278 5.20479 117.448 5.443C118.271 6.6442 118.74 8.0228 118.74 9.48755C118.74 10.9523 118.271 12.336 117.448 13.5372C117.283 13.7805 117.103 14.0085 116.914 14.2315C116.525 14.6877 116.085 15.1033 115.616 15.4733C113.64 17.0394 111.115 17.825 108.624 17.9061V17.9213ZM125.992 9.07195H133.982V9.9285H125.992V9.07195ZM124.365 2.06747V16.933H135.998V17.7895H121.925V1.20585H135.998V2.0624H124.365V2.06747ZM205.994 9.07195H213.984V9.9285H205.994V9.07195ZM204.367 2.06747V16.933H216V17.7895H201.926V1.20585H216V2.0624H204.367V2.06747ZM191.076 10.0704L198.682 17.7946H195.568L188.531 10.6482C188.167 10.2782 187.673 10.0704 187.154 10.0704H182.592V9.21386H190.697C192.314 9.21386 193.906 8.20526 194.345 6.57325C194.51 5.95491 194.51 5.32643 194.345 4.70809C193.911 3.07608 192.314 2.06747 190.697 2.06747H182.597V1.21092H192.264C193.896 1.21092 195.937 2.3513 196.616 3.89715C197.115 5.0426 197.115 6.2438 196.616 7.38925C195.937 8.9351 193.901 10.0755 192.269 10.0755H191.081L191.076 10.0704ZM179.263 9.49769C179.263 10.6736 178.969 11.8038 178.425 12.8327C178.15 13.3496 177.821 13.8362 177.447 14.2822C177.057 14.7434 176.623 15.1591 176.154 15.5392C175.915 15.7318 175.66 15.9142 175.405 16.0866C174.871 16.4363 174.313 16.7404 173.729 16.9938C172.152 17.678 170.435 18.0075 168.723 18.0075C167.011 18.0075 165.294 17.678 163.717 16.9938C163.133 16.7404 162.569 16.4363 162.035 16.0866C161.776 15.9142 161.526 15.7318 161.287 15.5392C160.818 15.1641 160.378 14.7434 159.989 14.2822C159.615 13.8362 159.28 13.3547 159.011 12.8377C158.467 11.8038 158.167 10.6736 158.167 9.50276C158.167 8.33197 158.462 7.19665 159.011 6.16778C159.285 5.6508 159.615 5.16424 159.989 4.72329C160.378 4.26207 160.818 3.8414 161.287 3.46634C161.526 3.27374 161.781 3.09128 162.035 2.91896C162.569 2.56924 163.133 2.26514 163.717 2.01172C165.294 1.32749 167.011 0.998047 168.723 0.998047C170.435 0.998047 172.152 1.32749 173.729 2.01172C174.313 2.26514 174.876 2.56924 175.405 2.91896C175.665 3.09128 175.915 3.27374 176.154 3.46634C176.623 3.8414 177.057 4.26207 177.447 4.72329C177.821 5.16931 178.155 5.65587 178.425 6.17284C178.969 7.20679 179.263 8.33704 179.263 9.50783V9.49769Z" fill="white"/>
</g>
<defs>
<clipPath id="clip0_249_5651">
<rect width="216" height="17.0246" fill="white" transform="translate(0 0.987793)"/>
</clipPath>
</defs>
</svg>
