<svg width="71" height="70" viewBox="0 0 71 70" fill="none" xmlns="http://www.w3.org/2000/svg">
<path d="M21.0699 44.5249C24.1574 44.5249 26.6603 47.028 26.6603 50.1153C26.6603 53.2029 24.1574 55.7057 21.0699 55.7057C17.9824 55.7057 15.4795 53.2029 15.4795 50.1153C15.4795 47.028 17.9824 44.5249 21.0699 44.5249Z" stroke="#1A1916" stroke-width="4" stroke-linecap="round" stroke-linejoin="round"/>
<path d="M47.744 44.5249C50.8313 44.5249 53.3344 47.028 53.3344 50.1153C53.3344 53.2029 50.8313 55.7057 47.744 55.7057C44.6564 55.7057 42.1533 53.2029 42.1533 50.1153C42.1533 47.028 44.6564 44.5249 47.744 44.5249Z" stroke="#1A1916" stroke-width="4" stroke-linecap="round" stroke-linejoin="round"/>
<path d="M26.6641 50.1143H42.1539" stroke="#1A1916" stroke-width="4" stroke-linecap="round" stroke-linejoin="round"/>
<path d="M47.7407 44.526L47.7415 20.3587C47.7415 17.0102 45.0258 14.2944 41.6772 14.2944H15.2235C11.926 14.2944 9.25 16.9676 9.25 20.2679V44.0541C9.25 47.4027 11.9657 50.1184 15.3143 50.1184" stroke="#1A1916" stroke-width="4" stroke-linecap="round" stroke-linejoin="round"/>
<path d="M22.2607 31.0252L26.5827 35.3442L34.7326 27.1914" stroke="#1A1916" stroke-width="4" stroke-linecap="round" stroke-linejoin="round"/>
<path d="M53.3305 50.1159L55.6851 50.1164C59.0335 50.1164 61.7492 47.4007 61.7492 44.0521V34.0092C61.7492 31.2794 60.1374 28.8048 57.6402 27.7038L47.7422 23.3364" stroke="#1A1916" stroke-width="4" stroke-linecap="round" stroke-linejoin="round"/>
<path d="M54.7432 36.1978H61.7467" stroke="#1A1916" stroke-width="4" stroke-linecap="round" stroke-linejoin="round"/>
</svg>
