<svg width="76" height="76" viewBox="0 0 76 76" fill="none" xmlns="http://www.w3.org/2000/svg">
<path d="M34.7562 63.7071L40.8099 63.4274C42.0565 63.3696 43.2118 62.7496 43.9537 61.7431L64.9765 33.1371C66.9102 30.5071 66.3446 26.8067 63.7146 24.8729L58.9774 21.3914C56.3471 19.4607 52.6468 20.0262 50.713 22.6563L29.6904 51.2652C28.9516 52.2715 28.7053 53.5577 29.0245 54.7649L30.5631 60.6271C31.0587 62.5124 32.8071 63.7984 34.7562 63.7071Z" stroke="#1A1916" stroke-width="4" stroke-linecap="round" stroke-linejoin="round"/>
<path d="M46.3379 28.6128L60.6013 39.0938" stroke="#1A1916" stroke-width="4" stroke-linecap="round" stroke-linejoin="round"/>
<path d="M21.7245 61.2575C11.3805 60.2997 6.12937 47.4653 12.9372 39.5722C16.4856 35.4581 21.9374 34.1506 26.2702 31.1527C30.3628 28.3189 33.5584 23.758 31.9012 18.6164C30.6608 14.7761 27.0881 12.5291 23.0411 12.292" stroke="#1A1916" stroke-width="4" stroke-linecap="round" stroke-linejoin="round"/>
</svg>
