<svg width="24" height="25" viewBox="0 0 24 25" fill="none" xmlns="http://www.w3.org/2000/svg">
<path d="M20.082 14.2021C19.883 14.2021 19.6923 14.1231 19.5516 13.9824C19.411 13.8418 19.332 13.651 19.332 13.4521V9.6611C19.3328 9.31106 19.1976 8.97439 18.955 8.72211L15.061 4.66711C14.9344 4.53561 14.7827 4.43092 14.6149 4.35928C14.447 4.28764 14.2665 4.25049 14.084 4.25009H8.26796C7.45995 4.25313 6.68478 4.57025 6.10629 5.13437C5.5278 5.69849 5.19132 6.46543 5.16797 7.2731V13.4521C5.16797 13.651 5.08894 13.8418 4.94829 13.9824C4.80764 14.1231 4.61688 14.2021 4.41797 14.2021C4.21906 14.2021 4.02829 14.1231 3.88763 13.9824C3.74698 13.8418 3.66797 13.651 3.66797 13.4521V7.25211C3.69863 6.05045 4.19602 4.90796 5.05472 4.0668C5.91342 3.22565 7.06593 2.75194 8.26796 2.74609H14.086C14.4704 2.74709 14.8507 2.82522 15.2044 2.97586C15.558 3.1265 15.8779 3.34661 16.145 3.62311L20.039 7.67911C20.5507 8.2102 20.8359 8.91955 20.834 9.6571V13.4481C20.8345 13.5471 20.8154 13.6452 20.7778 13.7368C20.7403 13.8284 20.6849 13.9116 20.615 13.9817C20.5451 14.0518 20.462 14.1074 20.3705 14.1452C20.279 14.183 20.181 14.2024 20.082 14.2021Z" fill="#1A1916"/>
<path d="M20.0141 9.91638H17.2011C16.3062 9.914 15.4488 9.55705 14.8166 8.92371C14.1843 8.29036 13.8289 7.43227 13.8281 6.53738V3.56641C13.8281 3.36749 13.9071 3.17672 14.0478 3.03607C14.1884 2.89542 14.3792 2.81641 14.5781 2.81641C14.777 2.81641 14.9678 2.89542 15.1085 3.03607C15.2491 3.17672 15.3281 3.36749 15.3281 3.56641V6.53738C15.3287 7.03487 15.5262 7.51189 15.8776 7.86404C16.229 8.2162 16.7056 8.4148 17.2031 8.41638H20.0141C20.213 8.41638 20.4038 8.49543 20.5444 8.63608C20.6851 8.77673 20.7641 8.96747 20.7641 9.16638C20.7641 9.36529 20.6851 9.55606 20.5444 9.69672C20.4038 9.83737 20.213 9.91638 20.0141 9.91638Z" fill="#1A1916"/>
<path d="M4.66406 22.2474C4.46515 22.2474 4.27438 22.1684 4.13373 22.0277C3.99308 21.8871 3.91406 21.6963 3.91406 21.4974V16.8824C3.91406 16.6835 3.99308 16.4927 4.13373 16.3521C4.27438 16.2114 4.46515 16.1324 4.66406 16.1324H6.06406C6.3763 16.1152 6.68879 16.1618 6.98241 16.2694C7.27603 16.377 7.54462 16.5434 7.77176 16.7583C7.9989 16.9733 8.17983 17.2323 8.30348 17.5195C8.42713 17.8068 8.49091 18.1162 8.49091 18.4289C8.49091 18.7416 8.42713 19.0511 8.30348 19.3383C8.17983 19.6255 7.9989 19.8846 7.77176 20.0995C7.54462 20.3145 7.27603 20.4808 6.98241 20.5884C6.68879 20.696 6.3763 20.7426 6.06406 20.7254H5.41707V21.4974C5.41707 21.5961 5.39756 21.6939 5.35968 21.7851C5.3218 21.8763 5.2663 21.9591 5.19633 22.0288C5.12637 22.0985 5.04334 22.1537 4.952 22.1912C4.86066 22.2287 4.76281 22.2478 4.66406 22.2474ZM5.41406 19.2254H6.06107C6.17194 19.2358 6.28376 19.223 6.38937 19.1877C6.49499 19.1524 6.59208 19.0954 6.67442 19.0204C6.75676 18.9455 6.82254 18.8541 6.86755 18.7522C6.91256 18.6504 6.93581 18.5403 6.93581 18.4289C6.93581 18.3176 6.91256 18.2074 6.86755 18.1056C6.82254 18.0037 6.75676 17.9124 6.67442 17.8374C6.59208 17.7624 6.49499 17.7055 6.38937 17.6702C6.28376 17.6349 6.17194 17.622 6.06107 17.6324H5.41406V19.2254Z" fill="#1A1916"/>
<path d="M17.5742 22.2549C17.3753 22.2549 17.1845 22.1759 17.0439 22.0352C16.9032 21.8946 16.8242 21.7038 16.8242 21.5049V16.8789C16.8242 16.68 16.9032 16.4892 17.0439 16.3486C17.1845 16.2079 17.3753 16.1289 17.5742 16.1289H20.0802C20.2791 16.1289 20.4699 16.2079 20.6105 16.3486C20.7512 16.4892 20.8302 16.68 20.8302 16.8789C20.8302 17.0778 20.7512 17.2686 20.6105 17.4092C20.4699 17.5499 20.2791 17.6289 20.0802 17.6289H18.3242V18.8289H19.6952C19.8941 18.8289 20.0849 18.9079 20.2255 19.0486C20.3662 19.1892 20.4452 19.38 20.4452 19.5789C20.4452 19.7778 20.3662 19.9686 20.2255 20.1092C20.0849 20.2499 19.8941 20.3289 19.6952 20.3289H18.3242V21.5039C18.3244 21.6025 18.305 21.7001 18.2674 21.7912C18.2298 21.8823 18.1746 21.9651 18.1049 22.0349C18.0352 22.1046 17.9525 22.16 17.8615 22.1977C17.7704 22.2355 17.6728 22.2549 17.5742 22.2549Z" fill="#1A1916"/>
<path d="M11.904 22.2549H10.75C10.5511 22.2549 10.3603 22.1759 10.2197 22.0352C10.079 21.8946 10 21.7038 10 21.5049V16.8789C10 16.68 10.079 16.4892 10.2197 16.3486C10.3603 16.2079 10.5511 16.1289 10.75 16.1289H11.906C12.3082 16.1289 12.7065 16.2081 13.0782 16.3621C13.4498 16.516 13.7874 16.7416 14.0719 17.026C14.3563 17.3105 14.5819 17.6481 14.7358 18.0197C14.8898 18.3914 14.969 18.7897 14.969 19.1919C14.969 19.5941 14.8898 19.9925 14.7358 20.3641C14.5819 20.7357 14.3563 21.0734 14.0719 21.3578C13.7874 21.6422 13.4498 21.8678 13.0782 22.0218C12.7065 22.1757 12.3082 22.2549 11.906 22.2549H11.904ZM11.498 20.7549H11.904C12.3185 20.7549 12.7161 20.5902 13.0092 20.2971C13.3023 20.004 13.467 19.6064 13.467 19.1919C13.467 18.7774 13.3023 18.3798 13.0092 18.0867C12.7161 17.7936 12.3185 17.6289 11.904 17.6289H11.498V20.7549Z" fill="#1A1916"/>
</svg>
