<svg width="50" height="50" viewBox="0 0 50 50" fill="none" xmlns="http://www.w3.org/2000/svg">
<circle cx="25" cy="25" r="25" fill="white"/>
<rect width="25" height="25" transform="translate(13 11.3333)" fill="white"/>
<path d="M22.3755 29.0528L17.813 24.4894L17.813 24.4894C17.5726 24.249 17.2466 24.114 16.9067 24.114C16.5668 24.114 16.2408 24.249 16.0004 24.4894C15.76 24.7298 15.625 25.0558 15.625 25.3957C15.625 25.7356 15.76 26.0616 16.0004 26.302L21.4689 31.7705L21.4691 31.7707L21.8227 31.4172L22.3755 29.0528ZM22.3755 29.0528L33.9691 17.4582L33.9691 17.4582C34.2095 17.2178 34.5355 17.0828 34.8754 17.0828C35.2154 17.0828 35.5414 17.2178 35.7817 17.4582L22.3755 29.0528Z" fill="#1A1916" stroke="#1A1916"/>
</svg>
