<svg width="11" height="7" viewBox="0 0 11 7" fill="none" xmlns="http://www.w3.org/2000/svg">
<path d="M10.5194 1.45641L5.8319 6.14391C5.78837 6.1875 5.73667 6.22207 5.67976 6.24566C5.62286 6.26925 5.56186 6.28139 5.50026 6.28139C5.43866 6.28139 5.37766 6.26925 5.32076 6.24566C5.26385 6.22207 5.21215 6.1875 5.16862 6.14391L0.48112 1.45641C0.393163 1.36846 0.34375 1.24916 0.34375 1.12477C0.34375 1.00038 0.393163 0.881088 0.48112 0.793132C0.569077 0.705175 0.688371 0.655762 0.812761 0.655762C0.93715 0.655762 1.05644 0.705175 1.1444 0.793132L5.50026 5.14958L9.85612 0.793133C9.89967 0.749582 9.95138 0.715034 10.0083 0.691465C10.0652 0.667895 10.1262 0.655763 10.1878 0.655763C10.2494 0.655763 10.3103 0.667895 10.3672 0.691465C10.4241 0.715035 10.4759 0.749582 10.5194 0.793133C10.563 0.836685 10.5975 0.888388 10.6211 0.945291C10.6446 1.00219 10.6568 1.06318 10.6568 1.12477C10.6568 1.18637 10.6446 1.24735 10.6211 1.30426C10.5975 1.36116 10.563 1.41286 10.5194 1.45641Z" fill="#1A1916"/>
</svg>
