<svg width="40" height="41" viewBox="0 0 40 41" fill="none" xmlns="http://www.w3.org/2000/svg">
<circle cx="20" cy="20.0247" r="20" fill="white"/>
<path d="M10.3507 20.3987L14.9488 22.1133L16.7413 27.8804C16.8192 28.27 17.2868 28.348 17.5985 28.1142L20.1703 26.01C20.4041 25.7762 20.7938 25.7762 21.1055 26.01L25.7036 29.3611C26.0154 29.5949 26.483 29.439 26.5609 29.0494L29.99 12.6833C30.0679 12.2936 29.6782 11.904 29.2886 12.0598L10.3507 19.3856C9.8831 19.5415 9.8831 20.2429 10.3507 20.3987ZM16.5075 21.256L25.5477 15.7227C25.7036 15.6448 25.8595 15.8786 25.7036 15.9565L18.2999 22.8926C18.0661 23.1264 17.8323 23.4381 17.8323 23.8278L17.5985 25.6982C17.5985 25.932 17.2089 26.01 17.1309 25.6982L16.1957 22.2691C15.9619 21.8795 16.1178 21.4119 16.5075 21.256Z" fill="#1A1916"/>
</svg>
