<svg width="40" height="41" viewBox="0 0 40 41" fill="none" xmlns="http://www.w3.org/2000/svg">
<rect y="0.0246582" width="40" height="40" rx="20" fill="white"/>
<path d="M27.1035 21.8106C26.7553 21.326 26.8549 21.1104 27.1035 20.6772C27.108 20.6723 29.9826 16.2949 30.2788 14.8104L30.2806 14.8094C30.4277 14.2684 30.2806 13.8708 29.5689 13.8708H27.2139C26.6144 13.8708 26.338 14.2121 26.1899 14.5938C26.1899 14.5938 24.9909 17.7567 23.2947 19.8069C22.7472 20.3993 22.4941 20.5892 22.1953 20.5892C22.0481 20.5892 21.8192 20.3993 21.8192 19.8583V14.8094C21.8192 14.1606 21.6514 13.8708 21.1551 13.8708H17.4522C17.0761 13.8708 16.8527 14.1735 16.8527 14.4554C16.8527 15.0705 17.7008 15.2119 17.7887 16.9427V20.698C17.7887 21.5208 17.6532 21.6722 17.3525 21.6722C16.552 21.6722 14.609 18.4965 13.4575 14.8618C13.2251 14.1567 12.998 13.8718 12.394 13.8718H10.0382C9.36599 13.8718 9.23047 14.213 9.23047 14.5948C9.23047 15.2693 10.031 18.623 12.9532 23.0538C14.9007 26.0782 17.6433 27.717 20.1383 27.717C21.6379 27.717 21.821 27.353 21.821 26.727C21.821 23.8371 21.6855 23.5641 22.4367 23.5641C22.7849 23.5641 23.3844 23.754 24.7845 25.2128C26.3847 26.9426 26.6476 27.717 27.5433 27.717H29.8982C30.5695 27.717 30.9097 27.353 30.714 26.635C30.2662 25.1248 27.2399 22.0183 27.1035 21.8106Z" fill="#1A1916"/>
</svg>
