<svg width="216" height="216" viewBox="0 0 216 216" fill="none" xmlns="http://www.w3.org/2000/svg">
<path d="M38.512 182.519C38.512 182.519 98.626 197.268 106.366 197.268C114.106 197.268 170.35 182.132 175.381 176.714C180.412 171.296 188.582 119.309 188.582 119.309L27.676 121.244C27.633 121.287 34.212 175.553 38.512 182.519Z" fill="white"/>
<path d="M38.1255 183.293C41.8665 184.196 45.6075 185.099 49.3485 186.002C57.5185 187.937 65.6885 189.872 73.8585 191.721C81.7705 193.527 89.6825 195.29 97.6375 196.795C100.046 197.268 102.54 197.741 104.991 197.999C106.711 198.128 108.474 197.999 110.151 197.655C117.461 196.451 124.685 194.559 131.823 192.667C140.724 190.302 149.625 187.765 158.397 184.927C161.966 183.766 165.492 182.562 168.975 181.143C171.168 180.24 173.533 179.38 175.468 177.961C177.016 176.843 177.747 174.994 178.392 173.274C179.51 170.092 180.456 166.867 181.23 163.599C183.337 155.171 184.971 146.614 186.519 138.057C187.594 132.166 188.583 126.275 189.529 120.384C189.572 120.083 189.615 119.782 189.658 119.481C189.744 118.793 188.927 118.492 188.411 118.535L184.068 118.578L172.415 118.707L155.043 118.922L133.973 119.18L110.753 119.438L87.4895 119.696L65.6455 119.954L47.2845 120.169L33.9975 120.341C31.9335 120.384 29.8265 120.341 27.7625 120.427H27.5045C27.0315 120.427 26.6445 120.814 26.6445 121.287V121.33C27.4185 127.651 28.2785 133.972 29.1385 140.25C30.6435 151 32.1915 161.75 34.4705 172.371C34.9435 174.521 35.4165 176.714 36.0615 178.821C36.4055 180.197 36.9215 181.53 37.5665 182.82C38.1255 183.723 40.1465 183.293 39.5015 182.218C38.9425 181.229 38.5125 180.154 38.2545 179.036C37.6955 177.23 37.2655 175.381 36.8355 173.532C35.7175 168.587 34.8575 163.556 34.0405 158.525C32.3635 148.377 30.9445 138.143 29.6115 127.952C29.3105 125.673 29.0095 123.437 28.7515 121.158L27.8915 122.061L32.2345 122.018L43.9305 121.889L61.3025 121.674L82.3725 121.416L105.593 121.158L128.856 120.9L150.7 120.642L169.061 120.427L182.348 120.255C184.412 120.212 186.519 120.298 188.583 120.169H188.841L187.551 119.18C186.906 123.437 186.175 127.651 185.401 131.908C183.939 140.336 182.348 148.764 180.499 157.106C179.639 160.89 178.779 164.674 177.704 168.415C177.016 170.78 176.328 173.317 175.081 175.467C174.995 175.639 174.909 175.768 174.78 175.897C174.737 175.94 174.866 175.811 174.737 175.983L174.565 176.198C174.479 176.284 174.35 176.413 174.264 176.499C174.092 176.671 174.264 176.499 174.221 176.542L174.006 176.714C173.189 177.273 172.329 177.746 171.426 178.176C168.588 179.466 165.707 180.627 162.74 181.616C154.398 184.583 145.884 187.077 137.327 189.442C129.415 191.635 121.46 193.699 113.419 195.376C111.226 195.892 109.033 196.279 106.797 196.451H106.367C105.937 196.451 106.582 196.494 106.152 196.451C105.722 196.408 105.421 196.408 105.034 196.365C103.959 196.236 102.927 196.064 101.852 195.892C94.6275 194.688 87.4465 193.097 80.3085 191.506C71.9665 189.657 63.5815 187.722 55.2825 185.701C50.1225 184.454 44.9625 183.25 39.8025 181.96L39.0285 181.788C38.5555 181.659 37.9105 181.702 37.6525 182.218C37.3945 182.648 37.6095 183.121 38.1255 183.293C38.0825 183.293 38.0825 183.293 38.1255 183.293Z" fill="#1A1916"/>
<path d="M27.633 121.287C27.633 121.287 113.332 109.634 119.137 109.634C124.942 109.634 188.926 115.439 188.539 119.309C188.152 123.179 117.589 134.058 108.086 134.058C98.583 134.058 22.989 125.544 27.633 121.287Z" fill="#1A1916"/>
<path d="M28.0201 122.018L34.4271 121.158C39.8021 120.427 45.1341 119.739 50.5091 119.008C57.6041 118.062 64.6561 117.116 71.7511 116.213C78.9751 115.267 86.1561 114.321 93.3801 113.418C99.2281 112.687 105.033 111.956 110.881 111.268C112.773 111.053 114.665 110.838 116.6 110.666C117.245 110.623 117.847 110.537 118.492 110.494L118.836 110.451C118.492 110.494 118.793 110.451 118.922 110.451H119.352C123.222 110.451 127.092 110.924 130.919 111.268C137.842 111.87 144.765 112.558 151.688 113.332C158.826 114.106 165.964 114.966 173.102 116.084C175.897 116.514 178.692 116.987 181.444 117.546C182.519 117.761 183.594 118.019 184.626 118.277C185.056 118.363 185.443 118.492 185.873 118.621L186.174 118.707H186.217C186.389 118.75 186.561 118.836 186.69 118.879C186.948 118.965 187.206 119.094 187.464 119.223C187.034 119.008 187.507 119.266 187.507 119.266L187.593 119.352C187.55 119.309 187.421 119.137 187.507 119.309C187.464 119.094 187.636 119.524 187.507 119.309C187.464 119.18 187.507 119.309 187.507 119.137C187.507 119.266 187.464 119.223 187.55 119.094C187.507 119.18 187.335 119.352 187.55 119.137C187.421 119.266 187.249 119.395 187.077 119.481C186.905 119.61 187.206 119.438 187.077 119.481L186.905 119.567L186.518 119.739C185.83 120.04 185.142 120.298 184.454 120.513C182.347 121.201 180.326 121.717 178.047 122.233C175.08 122.921 172.07 123.566 169.06 124.168C161.75 125.63 154.397 126.92 147.044 128.124C139.777 129.328 132.51 130.403 125.2 131.435C120.126 132.123 115.052 132.854 109.935 133.241L109.376 133.284C109.247 133.284 109.591 133.284 109.333 133.284H109.032C108.731 133.284 108.43 133.327 108.129 133.327C107.57 133.327 107.011 133.327 106.452 133.284C104.56 133.198 102.625 133.026 100.733 132.897C94.7131 132.381 88.6501 131.736 82.6301 131.048C75.2771 130.231 67.9671 129.285 60.6141 128.296C53.9491 127.35 47.2411 126.361 40.6621 125.114C38.2111 124.641 35.7171 124.125 33.3091 123.523C32.4061 123.308 31.5031 123.05 30.6431 122.749C30.5141 122.706 30.3421 122.663 30.6001 122.749L30.3421 122.663L29.8261 122.448C29.5251 122.362 29.2671 122.233 29.0091 122.104C28.9231 122.061 28.5361 121.846 28.8801 122.061L28.6221 121.889C28.4931 121.803 28.3641 121.674 28.5791 121.889C28.5791 121.889 28.4071 121.76 28.4501 121.717C28.4931 121.674 28.5791 121.932 28.4931 121.717C28.5791 121.932 28.5361 121.674 28.5361 121.932C28.5361 121.76 28.5361 121.932 28.4931 121.932C28.5791 121.803 28.6221 121.803 28.4931 121.932C29.3961 121.115 27.5471 120.126 26.8591 120.771C24.6231 122.878 31.0301 124.469 32.0191 124.77C37.3511 126.232 42.8981 127.135 48.3591 127.995C55.7121 129.199 63.1081 130.188 70.5041 131.134C77.6421 132.037 84.7801 132.854 91.9181 133.585C96.7341 134.058 101.55 134.574 106.409 134.832C109.849 135.004 113.246 134.574 116.643 134.187C123.179 133.413 129.672 132.51 136.165 131.521C143.862 130.36 151.516 129.113 159.213 127.737C165.878 126.533 172.5 125.286 179.079 123.738C181.315 123.222 183.594 122.62 185.787 121.932C186.905 121.545 188.324 121.158 189.184 120.341C191.549 118.148 184.196 116.6 183.207 116.385C177.187 115.009 170.995 114.235 164.846 113.418C157.364 112.429 149.882 111.612 142.357 110.838C136.294 110.236 130.231 109.677 124.125 109.204C121.545 108.946 118.965 108.903 116.428 109.118C111.999 109.548 107.57 110.107 103.141 110.623C96.3901 111.44 89.6391 112.3 82.8881 113.203C75.4491 114.192 67.9671 115.138 60.5281 116.127C53.9921 116.987 47.4561 117.847 40.9201 118.75L28.8801 120.298L27.2461 120.513C26.8591 120.513 26.5581 120.857 26.6011 121.201C26.6011 121.287 26.6011 121.373 26.6441 121.416C26.8591 121.932 27.5471 122.104 28.0201 122.018Z" fill="#1A1916"/>
<path d="M144.851 133.026C144.851 133.026 178.133 98.4973 177.144 94.0683C176.155 89.6393 133.886 78.0293 128.64 80.4803C123.394 82.9313 94.6703 112.429 94.6703 112.429L86.0273 113.547C86.0273 113.547 122.104 75.7933 128.597 74.7613C135.09 73.7293 182.39 82.6733 184.024 91.0153C185.658 99.3573 158.955 133.413 151.989 140.422C145.023 147.431 141.54 137.67 144.851 133.026Z" fill="white"/>
<path d="M145.841 133.456C148.12 131.091 150.399 128.683 152.635 126.275C157.279 121.33 161.837 116.299 166.266 111.182C168.416 108.688 170.523 106.194 172.587 103.614C174.135 101.679 175.597 99.7011 176.93 97.5941C177.36 96.9491 177.704 96.2611 177.962 95.5301C178.177 95.1001 178.177 94.6271 178.048 94.1971C177.704 93.6381 177.231 93.1651 176.672 92.8211C175.769 92.2191 174.866 91.6601 173.877 91.2301C171.168 89.9401 168.416 88.8221 165.578 87.8331C162.181 86.6291 158.784 85.5971 155.301 84.6081C148.679 82.7161 141.928 80.9961 135.091 80.0501C133.027 79.7491 130.791 79.4481 128.727 79.7061C127.265 79.8781 126.104 80.9531 124.986 81.8131C122.793 83.5761 120.686 85.4681 118.622 87.3601C115.999 89.7681 113.419 92.2621 110.882 94.7561C106.195 99.3141 101.551 103.958 96.9928 108.602C95.9608 109.677 94.8428 110.709 93.8538 111.827C93.8108 111.87 93.6388 111.999 93.7678 111.913C93.4238 111.999 93.1228 112.042 92.7788 112.042L88.0058 112.644L85.1678 113.031L87.0598 113.977C87.7478 113.246 88.4358 112.558 89.1238 111.827C90.8868 109.978 92.6928 108.172 94.4988 106.323C96.9928 103.786 99.4868 101.292 101.981 98.7981C104.776 96.0461 107.571 93.3371 110.409 90.6281C113.118 88.0481 115.87 85.5111 118.665 83.0601C120.858 81.1251 123.137 79.1901 125.502 77.4701C126.749 76.5671 128.211 75.3631 129.802 75.1911C131.694 74.9761 133.801 75.2771 135.779 75.4921C139.09 75.8791 142.358 76.3951 145.626 76.9971C149.539 77.6851 153.452 78.5451 157.365 79.4481C161.235 80.3511 165.105 81.3831 168.932 82.5871C170.695 83.1461 172.329 83.7051 173.963 84.3071C174.35 84.4361 174.737 84.6081 175.124 84.7801L175.683 84.9951L175.941 85.0811C176.113 85.1671 175.812 85.0381 176.07 85.1241C176.457 85.2961 176.801 85.4251 177.145 85.5971L177.618 85.8121L177.833 85.8981L177.962 85.9411C178.263 86.1131 178.564 86.2421 178.865 86.4141L179.08 86.5431C179.123 86.5431 179.338 86.7151 179.252 86.6291C179.166 86.5431 179.338 86.6721 179.381 86.7151L179.596 86.8441C179.725 86.9301 179.854 87.0161 179.983 87.1021L180.241 87.2741C180.499 87.4461 180.714 87.6181 180.972 87.7901C181.359 88.0481 181.703 88.3491 182.047 88.6931C182.348 88.9511 182.606 89.2951 182.778 89.6391C183.724 91.2301 182.993 93.4231 182.434 95.0571C181.359 98.1531 179.725 101.077 178.091 103.872C175.984 107.484 173.662 111.01 171.254 114.45C168.76 118.062 166.137 121.631 163.471 125.114C161.106 128.167 158.698 131.22 156.247 134.187C154.613 136.165 152.936 138.143 151.13 139.992C150.27 140.938 149.238 141.669 148.077 142.142C147.69 142.314 147.26 142.4 146.83 142.443C146.658 142.443 146.486 142.443 146.271 142.4C146.228 142.4 146.185 142.4 146.228 142.4C146.228 142.4 146.099 142.357 146.185 142.4C146.271 142.443 146.314 142.443 146.4 142.486C146.701 142.615 146.529 142.529 146.4 142.443C146.271 142.314 146.142 142.185 146.013 142.056C145.755 141.755 145.54 141.411 145.368 141.067C144.981 140.293 144.766 139.433 144.68 138.573C144.422 136.767 144.852 134.961 145.841 133.456C145.927 133.284 144.121 132.209 143.906 132.553C141.971 135.305 142.1 140.164 145.067 142.185C145.97 142.83 147.045 143.217 148.163 143.346C149.109 143.346 150.055 143.088 150.872 142.572C152.248 141.755 153.366 140.551 154.398 139.347C156.548 136.982 158.569 134.531 160.59 132.037C163.256 128.769 165.836 125.415 168.33 122.018C170.996 118.406 173.619 114.708 176.113 110.967C178.349 107.656 180.37 104.259 182.219 100.733C183.466 98.3251 184.756 95.7021 185.1 92.9931C185.229 92.1761 185.143 91.3591 184.799 90.6281C184.326 89.8111 183.724 89.1231 182.993 88.5641C180.628 86.6721 177.747 85.3821 174.909 84.2211C171.34 82.8021 167.642 81.5981 163.944 80.5661C159.902 79.4051 155.817 78.4161 151.732 77.5131C147.862 76.6961 143.992 75.9651 140.122 75.3201C137.155 74.8471 134.231 74.4171 131.221 74.2021C129.716 74.1161 128.039 73.9011 126.62 74.5891C124.599 75.5351 122.793 77.0401 121.073 78.4161C118.407 80.5231 115.87 82.8021 113.376 85.1241C110.452 87.7901 107.571 90.5421 104.69 93.3371C101.809 96.1321 99.1428 98.7981 96.3478 101.55C94.0688 103.829 91.7898 106.151 89.5538 108.43C88.2208 109.763 86.9308 111.139 85.5978 112.515L85.0818 113.074C84.9098 113.246 86.7158 114.02 86.9738 114.02L94.5848 113.031C94.9718 112.988 95.4878 113.031 95.7888 112.773C96.0898 112.515 96.4768 112.085 96.8208 111.698C100.691 107.742 104.604 103.829 108.517 99.9161C113.462 95.0571 118.407 90.1551 123.567 85.5541C125.201 84.0491 126.921 82.6301 128.727 81.3831C129.931 80.5661 131.264 80.5661 132.683 80.6091C135.263 80.7811 137.886 81.1251 140.423 81.6411C143.82 82.2861 147.217 83.0601 150.571 83.9201C154.097 84.8231 157.58 85.8121 161.063 86.8871C164.245 87.8761 167.126 88.8651 170.093 90.0261L171.039 90.4131L171.254 90.4991H171.297L171.727 90.6711L172.587 91.0581L172.974 91.2301L173.189 91.3161C172.888 91.1871 173.146 91.2731 173.189 91.3161C173.447 91.4451 173.662 91.5741 173.877 91.6601L174.221 91.8321L174.35 91.9181C174.522 92.0471 174.737 92.1331 174.909 92.2621C174.694 92.0901 174.952 92.3051 174.995 92.3481L175.21 92.5201C175.253 92.5631 175.468 92.7351 175.296 92.6061L175.468 92.7781C175.597 92.8641 175.683 92.9931 175.769 93.0791C175.683 92.9931 175.812 93.1221 175.812 93.1651C175.855 93.2081 175.898 93.2511 175.898 93.2941C175.941 93.3801 175.984 93.4661 176.027 93.5521C176.07 94.0251 175.984 94.4981 175.769 94.8851C175.038 96.6911 173.791 98.3251 172.673 99.8731C170.91 102.281 169.018 104.56 167.126 106.839C162.697 112.085 158.096 117.202 153.409 122.276C150.399 125.587 147.346 128.812 144.25 132.08L143.777 132.553C143.82 132.639 145.497 133.8 145.841 133.456Z" fill="#1A1916"/>
<path d="M148.893 134.058C147.99 134.531 147.431 135.52 147.517 136.552C147.689 138.272 149.108 138.745 150.269 137.111C151.43 135.477 149.925 133.069 148.893 134.058Z" fill="white"/>
<path d="M148.119 133.37C147.603 133.628 147.216 134.015 146.915 134.488C146.356 135.52 146.442 136.81 147.216 137.756C147.732 138.401 148.506 138.831 149.366 138.874C149.925 138.831 150.398 138.573 150.785 138.143C151.559 137.326 151.774 136.165 151.387 135.133C151.086 134.402 150.527 133.757 149.839 133.413C149.495 133.198 149.151 133.112 148.764 133.155C148.506 133.198 148.248 133.327 148.033 133.499C147.904 133.585 148.033 133.886 148.076 133.972C148.205 134.187 148.42 134.402 148.635 134.531C148.936 134.746 149.495 135.047 149.796 134.746L149.839 134.703L149.753 134.789C149.839 134.703 149.968 134.66 150.097 134.617L149.925 134.66H150.011H150.054C150.097 134.66 149.882 134.66 149.925 134.66H149.968C150.054 134.66 149.796 134.617 149.796 134.617H149.839C149.925 134.66 149.667 134.531 149.667 134.531L149.71 134.574C149.796 134.617 149.452 134.402 149.538 134.488L149.581 134.531C149.667 134.574 149.366 134.316 149.409 134.402L149.452 134.445C149.538 134.531 149.323 134.316 149.323 134.316C149.366 134.359 149.366 134.402 149.409 134.402L149.452 134.445C149.495 134.531 149.323 134.23 149.366 134.316C149.409 134.402 149.409 134.402 149.452 134.445C149.495 134.488 149.495 134.531 149.495 134.574C149.495 134.617 149.452 134.488 149.452 134.488C149.452 134.531 149.495 134.531 149.495 134.574C149.581 134.746 149.624 134.961 149.624 135.176V135.004C149.667 135.391 149.624 135.735 149.538 136.122L149.581 135.993C149.409 136.466 149.108 136.896 148.721 137.24L148.807 137.154C148.635 137.326 148.42 137.412 148.162 137.498L148.334 137.455C148.248 137.455 148.162 137.498 148.076 137.498C147.904 137.498 148.248 137.541 148.119 137.498H148.076C147.99 137.498 148.033 137.498 148.205 137.541C148.162 137.541 148.119 137.498 148.076 137.498C148.076 137.498 148.377 137.627 148.205 137.541C148.549 137.713 148.42 137.67 148.334 137.584C148.506 137.713 148.549 137.756 148.506 137.713L148.463 137.67C148.721 137.885 148.592 137.799 148.549 137.713C148.506 137.627 148.678 137.928 148.592 137.756C148.592 137.713 148.549 137.713 148.549 137.67C148.506 137.455 148.506 137.584 148.549 137.67C148.463 137.455 148.42 137.24 148.377 137.025V137.197C148.334 136.81 148.377 136.466 148.463 136.122L148.42 136.251C148.592 135.778 148.893 135.348 149.28 135.047L149.194 135.133C149.323 135.004 149.452 134.918 149.624 134.832C150.054 134.617 149.538 134.058 149.366 133.886C149.151 133.714 148.936 133.542 148.678 133.456C148.506 133.327 148.291 133.327 148.119 133.37Z" fill="#1A1916"/>
<path d="M118.02 111.01V132.725C118.02 133.241 118.794 133.112 119.095 133.026C119.568 132.854 119.912 132.467 119.998 131.951V110.236C119.998 109.72 119.224 109.849 118.923 109.978C118.407 110.107 118.063 110.494 118.02 111.01Z" fill="white"/>
<path d="M108.085 134.058C108.085 135.176 106.322 196.107 106.322 197.268L108.085 134.058Z" fill="white"/>
<path d="M107.14 134.488C107.14 136.681 107.011 138.874 106.968 141.11C106.839 146.098 106.667 151.086 106.538 156.074L106.022 174.005C105.893 179.208 105.721 184.411 105.592 189.571C105.549 191.334 105.506 193.054 105.463 194.817C105.463 195.72 105.377 196.58 105.377 197.483C105.377 197.526 105.377 197.612 105.377 197.655C105.377 198.386 107.269 197.483 107.269 196.752C107.269 194.559 107.398 192.366 107.441 190.13C107.57 185.142 107.742 180.154 107.871 175.166L108.387 157.235C108.516 152.032 108.688 146.829 108.817 141.669C108.86 139.906 108.903 138.186 108.946 136.423C108.989 135.52 109.032 134.66 109.032 133.757C109.032 133.714 109.032 133.628 109.032 133.585C109.032 132.897 107.14 133.8 107.14 134.488Z" fill="#1A1916"/>
<path d="M148.463 129.242C148.463 129.242 143.389 126.748 138.831 135.993C134.273 145.238 157.278 177.101 159.084 177.101C160.89 177.101 175.94 167.555 175.94 165.448C175.94 163.341 155.988 135.993 155.988 135.993L154.139 137.971C154.139 137.971 158.912 145.539 156.332 148.635C153.752 151.731 145.066 154.612 142.228 144.765C139.39 134.918 144.851 133.069 144.851 133.069L148.463 129.242Z" fill="url(#paint0_linear_557_7772)"/>
<path d="M149.366 129.027C148.162 128.554 146.872 128.425 145.625 128.64C142.83 129.113 140.723 131.134 139.175 133.413C138.358 134.531 137.756 135.735 137.369 137.025C137.197 137.756 137.111 138.53 137.154 139.304C137.283 141.282 137.67 143.26 138.358 145.109C139.949 150.011 142.357 154.612 144.937 159.041C147.431 163.384 150.183 167.555 153.15 171.597C154.139 172.973 155.171 174.306 156.289 175.596C156.805 176.198 157.45 177.101 158.267 177.359C159.858 177.875 161.75 176.628 163.04 175.897C165.233 174.693 167.34 173.36 169.404 171.984C171.425 170.651 173.36 169.232 175.209 167.641C175.854 167.082 177.23 166.05 176.886 165.018C176.413 163.9 175.854 162.868 175.166 161.879C174.091 160.116 172.93 158.439 171.769 156.719C168.974 152.591 166.05 148.463 163.169 144.378C161.234 141.626 159.256 138.917 157.278 136.208C157.192 136.079 157.063 135.95 156.977 135.821C156.633 135.348 155.257 135.477 154.913 135.864L153.064 137.842C153.021 137.885 153.021 137.971 153.064 138.057C153.666 139.003 154.182 139.992 154.612 141.024C155.386 142.744 156.117 144.722 155.945 146.657C155.816 148.162 154.784 149.151 153.537 149.925C152.935 150.269 152.29 150.57 151.602 150.785C151.516 150.828 151.387 150.828 151.215 150.914L151 151C150.957 151 150.613 151.086 150.785 151.043C150.613 151.086 150.398 151.086 150.226 151.129C150.14 151.129 149.968 151.129 150.14 151.129H149.796C149.753 151.129 149.409 151.129 149.667 151.129H149.409L149.151 151.086C149.323 151.086 149.065 151.086 148.979 151.043C148.635 151 148.248 150.871 147.904 150.742C147.13 150.441 146.442 149.968 145.84 149.366C144.034 147.603 143.26 145.023 142.787 142.615C142.185 139.605 142.228 135.563 144.894 133.628C145.023 133.542 145.152 133.456 145.324 133.37L145.496 133.284C145.367 133.327 145.41 133.327 145.496 133.284C145.711 133.198 145.883 133.069 146.055 132.897L149.194 129.586L149.495 129.285C149.796 128.984 148.85 128.855 148.721 128.812C148.248 128.726 147.775 128.855 147.388 129.113L143.776 132.897L144.034 132.725C142.572 133.241 141.454 134.66 140.895 136.079C140.293 137.799 140.121 139.691 140.422 141.497C140.723 143.862 141.368 146.356 142.744 148.377C144.808 151.43 148.463 152.376 151.946 151.645C154.44 151.129 157.794 149.538 158.095 146.7C158.31 144.722 157.536 142.701 156.762 140.938C156.289 139.863 155.73 138.831 155.128 137.799V138.014L156.977 136.036L154.913 136.079C156.246 137.928 157.622 139.777 158.955 141.669C161.707 145.539 164.459 149.366 167.168 153.279C169.49 156.633 171.855 159.944 173.876 163.47C174.134 163.943 174.435 164.416 174.65 164.889C174.736 165.018 174.779 165.147 174.822 165.276C174.865 165.405 174.865 165.491 174.822 165.62C174.822 165.577 174.779 165.706 174.736 165.792C174.65 165.921 174.607 166.007 174.521 166.136C174.306 166.394 174.091 166.652 173.833 166.91C173.145 167.555 172.457 168.2 171.683 168.759C169.705 170.307 167.598 171.726 165.448 173.059C163.642 174.22 161.793 175.295 159.901 176.284C159.6 176.413 159.299 176.585 158.998 176.671L158.826 176.714C158.611 176.8 158.998 176.671 158.869 176.714L158.74 176.757C158.955 176.714 159.17 176.714 159.385 176.714C159.557 176.714 159.729 176.757 159.901 176.843C159.858 176.8 159.815 176.8 159.772 176.757C159.643 176.671 159.772 176.757 159.686 176.714L159.471 176.542C158.611 175.682 157.794 174.736 157.063 173.79C154.354 170.35 151.86 166.738 149.538 162.997C146.743 158.611 144.249 154.053 142.142 149.28C141.239 147.259 140.508 145.152 139.906 142.959C139.433 141.282 139.261 139.519 139.39 137.799C139.519 136.982 139.777 136.208 140.164 135.477C140.981 133.843 142.056 132.338 143.346 131.048C143.776 130.618 144.292 130.231 144.808 129.93C144.98 129.801 145.195 129.715 145.41 129.629L145.711 129.5L145.883 129.457C146.141 129.371 145.711 129.5 145.969 129.414L146.27 129.328L146.399 129.285C146.356 129.285 146.184 129.328 146.356 129.285C146.442 129.285 146.528 129.285 146.614 129.242C146.786 129.199 146.528 129.242 146.528 129.242H146.7H146.915C146.7 129.242 146.743 129.242 146.915 129.242H147.13C146.786 129.199 147.087 129.242 147.13 129.242L147.302 129.285C147.474 129.328 147.173 129.242 147.259 129.285L147.474 129.371C147.517 129.371 147.56 129.414 147.646 129.414C147.732 129.414 147.431 129.328 147.56 129.371C148.033 129.586 148.549 129.586 149.022 129.457C149.194 129.5 149.796 129.242 149.366 129.027Z" fill="url(#paint1_linear_557_7772)"/>
<path d="M161.277 164.717C160.46 164.803 159.6 164.674 158.826 164.373C158.697 164.33 158.525 164.244 158.353 164.158C158.267 164.115 158.181 164.072 158.095 163.986C157.837 163.814 158.224 164.072 157.966 163.9C157.794 163.771 157.622 163.642 157.45 163.513C157.622 163.642 157.364 163.427 157.364 163.427C157.364 163.427 157.192 163.255 157.106 163.169C157.02 163.083 157.063 163.126 157.106 163.169L157.02 163.04C156.934 162.954 156.891 162.868 156.848 162.782C156.805 162.696 156.805 162.61 156.848 162.524C156.934 162.352 157.235 162.309 157.493 162.352C157.622 162.352 157.751 162.395 157.88 162.438C157.751 162.395 158.052 162.524 158.052 162.524L158.353 162.696C158.482 162.782 158.654 162.911 158.783 163.04L158.826 163.083L158.955 163.212C158.998 163.255 159.213 163.513 159.127 163.384C159.342 163.685 160.288 164.545 160.589 163.814C161.019 162.739 160.589 161.664 160.589 160.589C160.546 160.159 160.675 159.686 160.976 159.385C161.105 159.256 161.277 159.17 161.449 159.127C161.492 159.127 161.621 159.084 161.535 159.084L161.621 159.127C161.535 159.084 161.449 159.041 161.363 158.955C161.277 158.869 161.277 158.783 161.32 158.912C161.32 158.826 161.363 159.041 161.363 159.084C161.406 159.342 161.406 159.557 161.449 159.772C161.492 160.331 161.535 160.89 161.535 161.492C161.578 162.61 161.406 163.728 161.019 164.76L162.696 165.878C162.696 164.115 162.395 162.352 161.75 160.718C161.621 160.374 161.363 160.073 161.019 159.901C160.804 159.815 160.417 159.643 160.245 159.858C159.858 160.374 159.643 161.062 159.729 161.707C159.815 162.266 159.772 162.825 159.643 163.341C159.428 163.9 158.955 163.9 158.439 163.728C158.138 163.642 157.88 163.513 157.622 163.341C157.708 163.384 157.579 163.298 157.579 163.298L157.407 163.169C157.278 163.04 157.407 163.169 157.321 163.083L157.149 162.868C156.891 162.61 156.289 162.18 155.945 162.481C155.601 162.782 155.988 163.427 156.203 163.685C156.805 164.373 157.579 164.932 158.439 165.276C159.17 165.577 160.202 165.792 160.847 165.233C161.32 164.717 161.578 164.072 161.492 163.341C161.492 162.696 161.277 161.879 161.707 161.32L160.202 160.503C160.718 161.879 160.976 163.298 160.976 164.76C161.019 165.233 161.277 165.663 161.707 165.921C161.965 166.093 162.524 166.308 162.696 165.878C163.169 164.545 163.341 163.126 163.255 161.707C163.212 160.288 163.255 158.611 162.094 157.622C161.363 156.934 160.245 156.934 159.514 157.665C159.299 157.88 159.17 158.138 159.084 158.439C158.912 159.127 158.912 159.858 159.041 160.546C159.213 161.148 159.17 161.75 158.998 162.352L160.46 162.782C159.729 161.793 158.74 161.019 157.622 160.546C156.891 160.245 155.73 160.202 155.257 161.019C154.698 162.051 155.773 163.427 156.461 164.115C157.235 164.889 158.138 165.534 159.127 165.921C160.202 166.351 161.32 166.48 162.481 166.351C162.653 166.351 162.739 166.093 162.782 165.921C162.782 165.663 162.696 165.448 162.567 165.233C162.266 164.932 161.793 164.674 161.277 164.717Z" fill="white"/>
<path d="M170.351 148.549C170.351 148.549 170.394 148.506 170.394 148.463C170.394 148.42 170.437 148.291 170.48 148.205C170.523 148.033 170.609 147.861 170.695 147.689C170.824 147.388 170.953 147.044 171.125 146.743C171.469 146.098 171.813 145.453 172.243 144.894C172.372 144.679 172.372 144.378 172.286 144.163C172.157 143.905 171.985 143.69 171.727 143.561C171.469 143.432 171.211 143.389 170.91 143.475C170.652 143.561 170.48 143.69 170.308 143.905C169.405 145.195 168.717 146.614 168.244 148.076C168.201 148.334 168.287 148.592 168.416 148.807C168.588 149.022 168.846 149.194 169.104 149.28C169.362 149.323 169.62 149.323 169.878 149.194C170.136 149.022 170.308 148.807 170.351 148.549Z" fill="#1A1916"/>
<path d="M172.243 151.43C173.834 150.441 175.296 149.28 176.629 147.99C176.801 147.861 176.93 147.646 176.973 147.474C176.973 147.302 176.844 147.13 176.715 147.044C176.199 146.872 175.64 147.001 175.253 147.345C174.651 147.947 173.963 148.506 173.318 149.065C172.974 149.323 172.63 149.581 172.286 149.839C172.114 149.968 172.372 149.753 172.286 149.839L172.157 149.925L171.899 150.097L171.34 150.484C171.125 150.613 170.953 150.785 170.867 151C170.781 151.172 170.824 151.387 170.953 151.516C171.168 151.774 171.856 151.645 172.243 151.43Z" fill="#1A1916"/>
<path d="M94.1108 125.071C94.1108 125.071 69.8588 121.072 66.9348 104.775C64.0108 88.478 81.5548 93.595 84.5218 101.077C84.5218 101.077 77.2118 78.631 92.9498 79.19C108.688 79.749 96.4328 120.341 94.1108 125.071Z" fill="url(#paint2_linear_557_7772)"/>
<path d="M94.1119 123.996C91.7469 123.566 89.3819 122.964 87.1029 122.147C82.4159 120.556 77.8149 118.363 73.9879 115.181C71.9239 113.461 70.1609 111.397 68.8279 109.075C68.1829 107.871 67.6669 106.624 67.2799 105.291C67.0649 104.56 66.9359 103.829 66.8069 103.055C66.7639 102.668 66.7209 102.281 66.6779 101.894C66.6779 101.679 66.6349 101.464 66.6349 101.206V100.948C66.5919 100.131 66.5919 102.539 66.6349 101.98C66.7209 99.9162 67.2799 97.7232 68.9999 96.3472C70.4189 95.2292 72.3109 94.9282 74.0739 95.1002C77.8579 95.4442 81.9429 97.6802 83.9639 100.948C84.1789 101.335 84.3939 101.722 84.5659 102.152C84.5229 101.808 84.5229 101.421 84.5659 101.077C84.6089 100.733 84.6089 100.346 84.5659 100.002C84.2219 98.8842 83.9209 97.7232 83.6629 96.5622C83.4049 95.4012 83.2329 94.2402 83.0609 93.0792C82.9749 92.3912 82.9319 91.7032 82.8889 91.0152C82.8889 90.7142 82.8459 90.4132 82.8459 90.1122C82.8459 90.4132 82.8459 90.7142 82.8459 91.0152C82.8459 90.9722 82.8459 90.8862 82.8459 90.8002L82.8889 90.2412C83.0609 87.6612 83.6629 84.9522 85.3829 82.9742C87.3609 80.7382 90.5859 80.0072 93.4669 80.3082C95.5739 80.5232 97.5089 81.6842 98.6269 83.4902C99.9599 85.5972 100.476 88.2202 100.691 90.6712C100.777 91.4022 100.777 92.1762 100.82 92.9072C100.82 93.4662 100.82 92.6922 100.82 92.4772C100.82 92.6062 100.82 92.7782 100.82 92.9072C100.82 93.3372 100.777 93.7672 100.777 94.1972C100.691 95.8742 100.519 97.5512 100.347 99.1852C99.9169 102.539 99.3149 105.807 98.5839 109.118C97.9389 111.999 97.1649 114.88 96.3049 117.718C95.7459 119.567 95.1869 121.459 94.4129 123.265C94.2839 123.523 94.1979 123.738 94.1119 123.996C94.0259 124.34 94.0259 124.684 94.1119 125.028C94.1119 125.286 94.1119 125.544 94.1119 125.802C94.1119 125.888 94.1119 126.017 94.1119 126.103C94.8429 124.512 95.4019 122.878 95.8749 121.201C96.7779 118.363 97.5519 115.482 98.2399 112.601C99.9169 105.506 100.992 98.3682 100.82 91.0582C100.734 86.5432 100.003 79.7922 94.7139 78.3732C93.2519 78.0292 91.7039 77.9862 90.1989 78.2872C88.6939 78.5022 87.3179 79.1042 86.1569 80.0502C84.0499 81.8132 83.1899 84.6082 82.8889 87.2742C82.5879 90.4132 82.7169 93.5952 83.2329 96.7342C83.4909 98.4972 83.9209 100.217 84.4369 101.937L84.5229 102.195V100.045C83.0179 96.3472 78.8469 93.8962 75.1059 93.1652C73.2999 92.8212 71.3219 92.8642 69.6449 93.8102C67.8389 94.8422 66.9359 96.7772 66.6779 98.7982C66.5059 100.475 66.4629 102.152 66.6349 103.829C66.9359 108.172 68.8279 112.3 71.8809 115.396C75.4929 119.223 80.3089 121.803 85.1679 123.652C87.0599 124.383 88.9519 124.985 90.9299 125.458C91.5749 125.63 92.2199 125.802 92.9079 125.931C93.2519 126.06 93.5959 126.103 93.9829 126.146C94.0259 126.146 94.0689 126.146 94.1119 126.146C93.9829 126.146 94.2409 123.996 94.1119 123.996Z" fill="url(#paint3_linear_557_7772)"/>
<path d="M118.707 115.095C118.707 115.095 111.784 96.9492 121.33 90.3272C130.876 83.7052 134.488 97.4652 130.747 101.679C130.747 101.679 142.658 90.2412 148.549 101.464C154.44 112.687 122.749 115.396 118.707 115.095Z" fill="url(#paint4_linear_557_7772)"/>
<path d="M118.707 114.02C118.062 112.3 117.589 110.537 117.202 108.774C116.815 107.054 116.557 105.334 116.385 103.614C116.342 103.141 116.299 102.668 116.299 102.152C116.299 102.023 116.299 101.894 116.299 101.808C116.299 101.163 116.299 103.141 116.299 102.625C116.299 102.367 116.299 102.152 116.342 101.937C116.385 100.948 116.514 99.9592 116.729 99.0132C117.503 95.1432 119.782 91.8322 123.523 90.2412C124.985 89.6392 126.619 89.3812 128.124 90.0262C129.414 90.6282 130.446 91.6602 131.048 92.9072C131.435 93.6812 131.736 94.4982 131.951 95.3152C132.037 95.7452 132.123 96.1752 132.166 96.6052C132.209 96.8202 132.209 97.0782 132.209 97.2932V97.5512C132.252 98.2392 132.252 95.6162 132.209 96.3042C132.123 97.8092 131.779 99.4002 130.747 100.561C130.618 100.69 130.747 101.464 130.747 101.636C130.747 101.894 130.747 102.152 130.747 102.41C130.747 102.496 130.747 102.625 130.747 102.711C131.564 101.937 132.467 101.249 133.37 100.604C135.176 99.2712 137.24 98.3252 139.39 97.7662C141.798 97.2502 144.249 97.6802 146.141 99.3142C147.259 100.303 148.119 101.507 148.721 102.883C148.893 103.27 149.022 103.657 149.108 104.044C149.151 104.216 149.194 104.388 149.194 104.56C149.194 104.646 149.194 104.732 149.237 104.861C149.28 105.291 149.323 102.41 149.237 103.356C148.85 106.796 145.066 108.688 142.271 109.806C138.1 111.526 133.585 112.429 129.113 113.074C125.845 113.633 122.534 113.891 119.223 113.934C119.051 113.977 118.836 113.977 118.707 114.02C118.707 113.977 118.621 116.127 118.707 116.127C119.868 116.17 120.986 116.127 122.147 116.041C124.082 115.912 125.974 115.697 127.866 115.439C132.467 114.837 137.068 113.934 141.411 112.3C143.303 111.655 145.066 110.709 146.657 109.548C147.861 108.602 148.893 107.398 149.194 105.85C149.28 105.334 149.28 104.818 149.28 104.302C149.323 103.614 149.28 102.926 149.237 102.238C149.065 101.249 148.678 100.303 148.119 99.4862C146.657 97.0782 144.421 95.3582 141.54 95.3152C139.175 95.2722 136.853 96.2612 134.832 97.4222C133.456 98.2392 132.166 99.1852 130.962 100.26L130.79 100.432V102.582C131.736 101.507 132.123 100.045 132.252 98.6262C132.467 96.6482 132.338 94.6272 131.865 92.6922C131.005 89.5962 128.64 86.8442 125.2 87.4032C123.093 87.8762 121.158 88.9942 119.696 90.6282C118.363 92.1332 117.417 93.9392 116.944 95.8742C116.342 98.1102 116.342 100.389 116.342 102.711C116.342 104.732 116.514 106.753 116.858 108.731C117.159 110.365 117.503 111.956 117.976 113.547C118.148 114.364 118.406 115.181 118.75 115.998C118.75 116.041 118.793 116.084 118.793 116.127C118.75 115.783 118.75 115.396 118.793 115.052C118.75 114.751 118.75 114.364 118.707 114.02Z" fill="url(#paint5_linear_557_7772)"/>
<path d="M111.912 69.9879C111.912 69.9879 86.4134 52.8739 93.2934 37.8239C100.173 22.7739 111.697 37.0499 109.848 44.8329C109.848 44.8329 116.685 22.2579 129.284 31.6749C141.883 41.0919 116.513 67.4509 111.912 69.9879Z" fill="url(#paint6_linear_557_7772)"/>
<path d="M111.913 68.913C109.978 67.58 108.086 66.118 106.323 64.57C102.625 61.388 99.0989 57.862 96.3899 53.82C94.9279 51.756 93.7669 49.477 92.9499 47.069C92.5629 45.951 92.3479 44.747 92.2189 43.586C92.1759 43.285 92.1759 42.984 92.1759 42.683C92.2619 44.747 92.1329 43.973 92.2189 43.156C92.2619 42.554 92.3479 41.995 92.4769 41.393C93.5089 36.921 97.5509 30.6 102.926 32.707C105.033 33.524 106.71 35.287 107.871 37.179C109.161 39.157 109.892 41.436 110.064 43.758C109.978 41.866 110.107 42.038 110.021 42.984C109.978 43.242 109.935 43.5 109.892 43.758C109.849 44.102 109.849 44.489 109.892 44.833C109.935 45.177 109.935 45.564 109.892 45.908C110.881 42.64 112.343 39.544 114.235 36.706C115.611 34.642 117.331 32.621 119.567 31.417C121.846 30.213 124.555 30.17 126.877 31.288C129.242 32.363 131.392 34.212 132.295 36.749C132.467 37.265 132.596 37.824 132.682 38.383C132.725 38.684 132.768 38.942 132.768 39.243C132.768 39.329 132.768 39.372 132.768 39.458C132.811 39.931 132.639 40.576 132.768 38.211C132.768 38.383 132.768 38.555 132.725 38.727C132.639 40.06 132.381 41.35 131.951 42.597C131.005 45.435 129.758 48.144 128.124 50.638C126.447 53.347 124.598 55.927 122.577 58.378C120.771 60.571 118.879 62.678 116.858 64.699C115.525 66.075 114.106 67.365 112.558 68.526C112.343 68.655 112.128 68.827 111.913 68.913C111.87 69.3 111.87 69.644 111.913 69.988C111.956 70.332 111.956 70.719 111.913 71.063C113.332 70.246 114.579 69.042 115.783 67.924C117.804 65.989 119.696 63.968 121.502 61.861C125.544 57.088 129.457 51.799 131.607 45.865C132.596 43.027 132.983 40.017 132.768 37.05C132.639 34.685 131.521 32.449 129.672 30.944C127.479 29.138 124.598 27.891 121.717 28.536C119.223 29.052 117.202 30.815 115.611 32.75C113.031 35.889 111.225 39.759 109.978 43.586C109.935 43.672 109.935 43.715 109.892 43.801V45.951C110.15 44.489 110.193 43.027 110.064 41.565C109.978 40.361 109.763 39.2 109.376 38.082C108.559 35.717 107.14 33.61 105.248 31.976C103.571 30.557 101.335 29.697 99.1849 30.385C96.2179 31.288 94.3259 34.427 93.2079 37.136C92.0899 39.759 92.0039 42.683 92.2189 45.478C92.4769 48.058 93.2509 50.509 94.4549 52.788C96.9059 57.518 100.604 61.56 104.474 65.129C106.022 66.548 107.57 67.881 109.247 69.128C109.806 69.558 110.365 69.988 110.924 70.375C111.182 70.633 111.483 70.848 111.827 71.02C111.87 71.063 111.913 71.063 111.956 71.106C111.913 70.762 111.913 70.375 111.956 70.031C111.913 69.859 111.999 68.999 111.913 68.913Z" fill="url(#paint7_linear_557_7772)"/>
<path d="M120.428 69.4292V82.2432C120.428 82.7592 121.159 82.8882 121.546 82.7592C122.062 82.6302 122.449 82.2002 122.449 81.6412V68.8272C122.449 68.3112 121.718 68.1822 121.331 68.3112C120.815 68.4402 120.471 68.9132 120.428 69.4292Z" fill="url(#paint8_linear_557_7772)"/>
<path d="M141.669 60.6569C140.766 68.6549 140.035 76.6529 139.433 84.6939C139.261 86.9729 139.089 89.2519 138.96 91.5309C138.917 92.2619 141.067 92.3909 141.11 91.6169C141.626 83.5759 142.271 75.5779 143.088 67.5799C143.303 65.3009 143.561 63.0649 143.819 60.7859C143.862 60.0549 141.755 59.9259 141.669 60.6569Z" fill="url(#paint9_linear_557_7772)"/>
<path d="M77.6413 48.0579C78.6733 56.0989 80.8233 63.9679 84.0913 71.3639C84.4353 72.1809 86.4993 71.4929 86.1553 70.7619C82.8873 63.3229 80.7373 55.4969 79.7053 47.4559C79.6193 46.6389 77.5553 47.1549 77.6413 48.0579Z" fill="url(#paint10_linear_557_7772)"/>
<path d="M71.7075 67.1502C72.2665 71.2352 73.4275 75.2772 75.0615 79.0612C75.2765 79.5772 75.8355 79.8352 76.3945 79.6632C76.8675 79.4482 77.0395 78.8892 76.8245 78.4162C76.8245 78.4162 76.8245 78.3732 76.7815 78.3732C75.1905 74.7612 74.1155 70.8912 73.5995 66.9782C73.4705 66.4192 72.9975 66.0322 72.3955 66.0322C71.8365 66.1182 71.6645 66.6342 71.7075 67.1502Z" fill="url(#paint11_linear_557_7772)"/>
<path d="M104.99 18.4741C104.732 22.3011 104.904 26.1281 105.42 29.9121C105.592 31.0731 107.398 31.3741 107.226 29.9551C106.71 26.3431 106.581 22.6451 106.839 19.0331C106.882 17.9581 105.076 17.0981 104.99 18.4741Z" fill="url(#paint12_linear_557_7772)"/>
<path d="M44.3171 88.908C42.2531 88.22 40.3181 86.457 39.9311 84.221C39.8021 83.619 39.9311 82.974 40.3611 82.544C40.6191 82.2 41.1351 82.114 41.4791 82.372C41.5221 82.415 41.5651 82.415 41.5651 82.458C42.5111 83.404 43.2421 84.522 43.8011 85.769C43.9301 86.113 45.0911 87.188 45.3491 86.457C45.7791 85.21 45.3491 83.963 45.4351 82.673C45.4781 81.942 45.9081 80.738 46.8111 80.695L45.6501 79.792C47.1121 82.415 46.3811 85.941 44.2311 87.962C43.6721 88.478 45.1771 90.026 45.7361 89.51C48.3161 87.059 48.7891 82.974 47.1121 79.921C46.8971 79.534 46.4241 78.975 45.9511 79.018C44.7901 79.061 44.0591 80.007 43.8441 81.082C43.5861 82.458 44.1881 83.877 43.7151 85.21L45.2631 85.898C44.6181 84.522 43.7581 83.232 42.7261 82.071C41.8661 81.082 40.4041 79.921 39.1141 80.867C37.9101 81.727 38.1681 83.447 38.6411 84.608C39.7591 87.403 42.0381 89.553 44.8331 90.542C45.2631 90.671 45.5211 90.413 45.3921 89.983C45.1771 89.51 44.7901 89.08 44.3171 88.908Z" fill="url(#paint13_linear_557_7772)"/>
<path d="M57.1735 63.9681C55.2815 63.7961 53.0455 62.8501 52.6585 60.7861C52.4865 59.8831 52.6155 58.8511 53.4755 58.3781C53.9915 58.1201 54.5935 58.1201 55.1095 58.3781C55.1525 58.3781 55.4535 58.5501 55.4535 58.5501C55.4535 58.5501 55.2385 58.2061 55.4105 58.5501C55.5825 58.8941 55.7115 59.1521 55.8835 59.4531C56.0555 59.7971 56.3135 60.1411 56.5715 60.4421C56.6145 60.4851 57.1735 61.0441 57.2165 60.9151C57.8185 59.7541 57.2595 58.5071 57.3025 57.2601C57.2595 56.6151 57.6465 56.0561 58.2055 55.7981C58.4635 55.7121 58.8075 55.7121 59.0655 55.7981C59.1945 55.8411 59.3235 55.8841 59.4095 55.9271C59.4955 55.9701 59.5815 56.0131 59.6245 56.0561C59.7105 56.1421 59.7105 56.1421 59.6675 56.0561C59.4955 55.8411 59.4525 55.7551 59.5385 55.8841C59.5815 55.9271 59.5815 55.9701 59.6245 56.0561C59.7105 56.2281 59.7535 56.4001 59.7965 56.6151C59.8825 57.0021 59.9255 57.3891 59.8825 57.7761C59.8395 58.6791 59.6675 59.5391 59.3235 60.3561C58.6355 61.9471 57.6895 63.3661 56.4855 64.6561C56.2275 64.9571 57.7325 66.4621 57.8615 66.2901C59.8395 64.0541 61.9035 61.0011 61.0865 57.8621C60.6565 56.4001 59.6675 55.1531 58.3345 54.3361C57.3455 53.7771 56.1415 54.0351 55.8835 55.2391C55.5825 56.5291 56.4425 57.9911 55.7975 59.2381L57.1735 60.7001C56.5285 59.2811 55.6685 57.7761 54.3355 56.8731C53.3895 56.2281 51.9705 56.1421 51.3685 57.3031C50.8955 58.2491 51.1535 59.4531 51.5835 60.3561C52.2715 61.6891 53.2175 62.8501 54.3785 63.7961C55.4965 64.7421 56.8725 65.3011 58.3345 65.4731C58.5925 65.5161 58.0765 64.7851 58.0335 64.7421C57.9475 64.6131 57.5175 63.9681 57.1735 63.9681Z" fill="url(#paint14_linear_557_7772)"/>
<path d="M161.966 68.6553C160.461 68.3543 158.999 67.7953 157.623 67.0643C157.021 66.7633 156.419 66.3763 155.903 65.9033C155.817 65.8173 155.731 65.7313 155.645 65.6453C155.946 66.4193 156.075 66.5913 155.989 66.2043C155.989 66.1183 155.989 66.0753 155.989 65.9893C155.989 65.7313 156.075 65.5163 156.204 65.3013C156.806 64.4843 157.881 64.1403 158.87 64.4413C160.031 64.7853 160.676 65.8603 161.192 66.8493C161.321 67.1073 161.493 67.3223 161.665 67.5373C161.708 67.5803 161.88 67.7953 161.88 67.6233C161.88 66.3333 162.138 65.0433 162.654 63.8823C162.826 63.3233 163.17 62.8503 163.6 62.5063C163.686 62.4203 163.815 62.3773 163.944 62.3773C163.987 62.3343 164.073 62.3343 164.159 62.3773C164.589 62.5063 164.46 62.2053 163.729 61.3883C163.772 61.6463 163.858 61.9043 163.901 62.2053C164.331 64.6563 163.901 67.1933 162.697 69.4293C162.568 69.6873 162.955 70.2463 163.084 70.4613C163.127 70.5473 163.729 71.4073 163.729 71.3213C165.105 68.7843 165.621 65.4733 164.675 62.6783C164.503 62.2053 164.288 61.7753 164.03 61.3453C163.858 61.0013 163.6 60.7433 163.299 60.5283C162.654 60.2273 162.181 60.9153 161.923 61.3883C161.192 62.7643 160.848 64.2693 160.848 65.8173L161.536 66.6343C160.547 64.7423 158.698 61.3883 156.032 62.6783C155.602 62.8933 155.215 63.2373 155.043 63.6673C154.871 64.2263 154.914 64.8283 155.172 65.3443C155.473 66.1613 155.946 66.8923 156.591 67.4943C157.107 67.9673 157.666 68.3543 158.268 68.6983C159.73 69.5153 161.321 70.1173 162.998 70.4613C162.912 70.1173 162.783 69.7733 162.611 69.4293C162.482 69.1713 162.224 68.6123 161.966 68.5693V68.6553Z" fill="url(#paint15_linear_557_7772)"/>
<path d="M179.207 78.717C179.465 77.427 179.121 76.137 179.207 74.847C179.25 74.331 179.379 73.858 179.594 73.428C179.68 73.256 179.895 73.084 179.981 72.869C180.067 72.654 180.024 72.783 179.68 72.955C179.336 73.127 179.25 73.127 179.422 73.084C179.594 73.041 179.68 73.084 179.852 73.127C181.013 73.385 181.615 74.589 181.787 75.664C181.873 76.223 181.916 76.825 181.916 77.384C182.002 77.943 181.873 78.502 181.529 78.975C181.142 79.405 182.432 78.932 182.518 78.889C182.905 78.717 182.389 78.889 182.604 78.846C182.733 78.803 182.862 78.803 182.991 78.76C183.292 78.717 183.593 78.717 183.894 78.76C184.453 78.846 185.012 79.061 185.485 79.362C186.044 79.749 186.216 80.179 185.829 80.824C185.571 81.211 185.27 81.598 184.883 81.856C184.84 81.899 184.496 82.114 184.625 82.028C184.539 82.114 184.41 82.157 184.281 82.157C183.894 82.286 183.464 82.329 183.034 82.329C182.045 82.372 181.056 82.071 180.239 81.512C179.981 81.34 179.422 81.641 179.164 81.77C179.121 81.813 178.132 82.372 178.304 82.458C180.196 83.705 182.475 83.49 184.496 82.63C185.614 82.2 186.646 81.469 187.42 80.523C187.721 80.136 188.151 79.577 187.979 79.061C187.807 78.545 187.119 78.244 186.689 78.029C185.227 77.427 183.636 77.771 182.303 78.416L183.292 78.33C183.722 77.814 183.894 77.169 183.851 76.524C183.851 75.75 183.808 74.976 183.636 74.202C183.292 72.869 182.174 71.751 180.712 72.009C179.25 72.267 177.917 73.17 177.444 74.589C176.928 76.137 177.573 77.771 177.272 79.362C177.229 79.663 177.96 79.362 178.089 79.319C178.347 79.319 179.164 79.018 179.207 78.717Z" fill="url(#paint16_linear_557_7772)"/>
<path d="M99.0553 82.1142L101.377 84.1782C102.108 84.8662 102.882 85.5112 103.742 86.0272C104.043 86.2422 104.473 86.1562 104.688 85.8122C104.731 85.7262 104.774 85.6832 104.774 85.5972C104.817 85.0382 104.516 84.5222 104 84.3072L103.871 84.2212C103.699 84.1352 103.914 84.2642 103.914 84.2642C103.828 84.2212 103.742 84.1352 103.613 84.0492C103.441 83.9202 103.269 83.7912 103.097 83.6192C102.753 83.3182 102.366 82.9742 102.022 82.6732L99.7863 80.7382C99.4853 80.4802 98.7973 80.3512 98.5823 80.8242C98.3673 81.2972 98.7113 81.7702 99.0553 82.1142Z" fill="white"/>
<defs>
<linearGradient id="paint0_linear_557_7772" x1="157.087" y1="128.936" x2="157.087" y2="177.101" gradientUnits="userSpaceOnUse">
<stop stop-color="#A8EBED"/>
<stop offset="1" stop-color="#D7FEFF"/>
</linearGradient>
<linearGradient id="paint1_linear_557_7772" x1="157.041" y1="128.54" x2="157.041" y2="177.481" gradientUnits="userSpaceOnUse">
<stop stop-color="#A8EBED"/>
<stop offset="1" stop-color="#D7FEFF"/>
</linearGradient>
<linearGradient id="paint2_linear_557_7772" x1="83.7266" y1="79.1797" x2="83.7266" y2="125.071" gradientUnits="userSpaceOnUse">
<stop stop-color="#A8EBED"/>
<stop offset="1" stop-color="#D7FEFF"/>
</linearGradient>
<linearGradient id="paint3_linear_557_7772" x1="83.6816" y1="78.0859" x2="83.6816" y2="126.146" gradientUnits="userSpaceOnUse">
<stop stop-color="#A8EBED"/>
<stop offset="1" stop-color="#D7FEFF"/>
</linearGradient>
<linearGradient id="paint4_linear_557_7772" x1="132.779" y1="88.5547" x2="132.779" y2="115.117" gradientUnits="userSpaceOnUse">
<stop stop-color="#A8EBED"/>
<stop offset="1" stop-color="#D7FEFF"/>
</linearGradient>
<linearGradient id="paint5_linear_557_7772" x1="132.798" y1="87.3306" x2="132.798" y2="116.144" gradientUnits="userSpaceOnUse">
<stop stop-color="#A8EBED"/>
<stop offset="1" stop-color="#D7FEFF"/>
</linearGradient>
<linearGradient id="paint6_linear_557_7772" x1="112.437" y1="29.3774" x2="112.437" y2="69.9879" gradientUnits="userSpaceOnUse">
<stop stop-color="#A8EBED"/>
<stop offset="1" stop-color="#D7FEFF"/>
</linearGradient>
<linearGradient id="paint7_linear_557_7772" x1="112.475" y1="28.3638" x2="112.475" y2="71.106" gradientUnits="userSpaceOnUse">
<stop stop-color="#A8EBED"/>
<stop offset="1" stop-color="#D7FEFF"/>
</linearGradient>
<linearGradient id="paint8_linear_557_7772" x1="121.438" y1="68.2646" x2="121.438" y2="82.8057" gradientUnits="userSpaceOnUse">
<stop stop-color="#A8EBED"/>
<stop offset="1" stop-color="#D7FEFF"/>
</linearGradient>
<linearGradient id="paint9_linear_557_7772" x1="141.389" y1="60.1689" x2="141.389" y2="92.1412" gradientUnits="userSpaceOnUse">
<stop stop-color="#A8EBED"/>
<stop offset="1" stop-color="#D7FEFF"/>
</linearGradient>
<linearGradient id="paint10_linear_557_7772" x1="81.9162" y1="47.0474" x2="81.9162" y2="71.7338" gradientUnits="userSpaceOnUse">
<stop stop-color="#A8EBED"/>
<stop offset="1" stop-color="#D7FEFF"/>
</linearGradient>
<linearGradient id="paint11_linear_557_7772" x1="74.3086" y1="66.0322" x2="74.3086" y2="79.7163" gradientUnits="userSpaceOnUse">
<stop stop-color="#A8EBED"/>
<stop offset="1" stop-color="#D7FEFF"/>
</linearGradient>
<linearGradient id="paint12_linear_557_7772" x1="106.054" y1="17.7627" x2="106.054" y2="30.9054" gradientUnits="userSpaceOnUse">
<stop stop-color="#A8EBED"/>
<stop offset="1" stop-color="#D7FEFF"/>
</linearGradient>
<linearGradient id="paint13_linear_557_7772" x1="43.1709" y1="79.0156" x2="43.1709" y2="90.5753" gradientUnits="userSpaceOnUse">
<stop stop-color="#A8EBED"/>
<stop offset="1" stop-color="#D7FEFF"/>
</linearGradient>
<linearGradient id="paint14_linear_557_7772" x1="56.1925" y1="54.0542" x2="56.1925" y2="66.3037" gradientUnits="userSpaceOnUse">
<stop stop-color="#A8EBED"/>
<stop offset="1" stop-color="#D7FEFF"/>
</linearGradient>
<linearGradient id="paint15_linear_557_7772" x1="160.048" y1="60.4546" x2="160.048" y2="71.3273" gradientUnits="userSpaceOnUse">
<stop stop-color="#A8EBED"/>
<stop offset="1" stop-color="#D7FEFF"/>
</linearGradient>
<linearGradient id="paint16_linear_557_7772" x1="182.627" y1="71.9717" x2="182.627" y2="83.3342" gradientUnits="userSpaceOnUse">
<stop stop-color="#A8EBED"/>
<stop offset="1" stop-color="#D7FEFF"/>
</linearGradient>
</defs>
</svg>
