<svg width="18" height="17" viewBox="0 0 18 17" fill="none" xmlns="http://www.w3.org/2000/svg">
<g clip-path="url(#clip0_216_18724)">
<path d="M17.0494 7.43744L12.5697 2.92713C11.3733 1.7331 9.752 1.0625 8.0617 1.0625C6.37139 1.0625 4.75013 1.7331 3.55371 2.92713L3.54773 2.93311L2.63332 3.87807C2.53859 3.97986 2.48756 4.11474 2.49116 4.25375C2.49477 4.39275 2.55273 4.5248 2.65261 4.62155C2.75248 4.71829 2.88631 4.77202 3.02536 4.77121C3.16441 4.77039 3.29759 4.71509 3.39632 4.61717L4.30808 3.67553C4.6749 3.30878 5.09351 2.99779 5.55054 2.75248L8.63843 5.84369L2.26343 12.2187C2.16475 12.3174 2.08646 12.4345 2.03305 12.5634C1.97964 12.6923 1.95215 12.8305 1.95215 12.9701C1.95215 13.1096 1.97964 13.2478 2.03305 13.3767C2.08646 13.5057 2.16475 13.6228 2.26343 13.7215L3.63738 15.0954C3.73604 15.1941 3.85318 15.2724 3.98211 15.3258C4.11103 15.3792 4.24922 15.4067 4.38877 15.4067C4.52832 15.4067 4.6665 15.3792 4.79542 15.3258C4.92435 15.2724 5.04149 15.1941 5.14015 15.0954L11.5152 8.72041L13.6402 10.8454C13.7388 10.9441 13.856 11.0224 13.9849 11.0758C14.1138 11.1292 14.252 11.1567 14.3915 11.1567C14.5311 11.1567 14.6693 11.1292 14.7982 11.0758C14.9271 11.0224 15.0443 10.9441 15.1429 10.8454L17.0481 8.94022C17.1469 8.84164 17.2253 8.72457 17.2788 8.59569C17.3323 8.46681 17.3599 8.32866 17.3601 8.18911C17.3602 8.04956 17.3328 7.91135 17.2795 7.78238C17.2262 7.65341 17.148 7.5362 17.0494 7.43744ZM11.1393 7.59217L9.65578 9.07569L8.28183 7.70307L9.76601 6.21889C9.81541 6.16955 9.85459 6.11096 9.88132 6.04647C9.90806 5.98197 9.92182 5.91284 9.92182 5.84303C9.92182 5.77321 9.90806 5.70408 9.88132 5.63959C9.85459 5.5751 9.81541 5.51651 9.76601 5.46717L6.62234 2.32416C7.5306 2.06836 8.4906 2.05909 9.40363 2.2973C10.3167 2.53551 11.1498 3.0126 11.8173 3.67951L14.7538 6.63526L12.8433 8.54377L11.891 7.59151C11.8417 7.54211 11.7831 7.50293 11.7186 7.47619C11.6541 7.44946 11.585 7.4357 11.5152 7.4357C11.4453 7.4357 11.3762 7.44946 11.3117 7.47619C11.2472 7.50293 11.1886 7.54211 11.1393 7.59151V7.59217ZM14.3932 10.093L13.5963 9.29615L15.4995 7.38764L16.2964 8.18451L14.3932 10.093Z" fill="white"/>
</g>
<defs>
<clipPath id="clip0_216_18724">
<rect width="17" height="17" fill="white" transform="translate(0.359375)"/>
</clipPath>
</defs>
</svg>
