<svg width="20" height="20" viewBox="0 0 20 20" fill="none" xmlns="http://www.w3.org/2000/svg">
<path d="M13.9651 3.125C12.4035 3.125 11.0362 3.81875 10.1839 4.99141C9.33157 3.81875 7.96427 3.125 6.40262 3.125C5.15951 3.12645 3.96773 3.63723 3.08872 4.5453C2.20971 5.45337 1.71527 6.68455 1.71387 7.96875C1.71387 13.4375 9.56299 17.8641 9.89725 18.0469C9.98535 18.0958 10.0838 18.1215 10.1839 18.1215C10.2839 18.1215 10.3824 18.0958 10.4705 18.0469C10.8047 17.8641 18.6539 13.4375 18.6539 7.96875C18.6525 6.68455 18.158 5.45337 17.279 4.5453C16.4 3.63723 15.2082 3.12645 13.9651 3.125ZM10.1839 16.7812C8.80295 15.95 2.92387 12.1633 2.92387 7.96875C2.92507 7.01601 3.29196 6.10265 3.9441 5.42896C4.59623 4.75526 5.48036 4.37624 6.40262 4.375C7.87352 4.375 9.10848 5.18438 9.62424 6.48438C9.66982 6.59901 9.74736 6.69705 9.84701 6.76605C9.94665 6.83505 10.0639 6.8719 10.1839 6.8719C10.3038 6.8719 10.4211 6.83505 10.5207 6.76605C10.6204 6.69705 10.6979 6.59901 10.7435 6.48438C11.2593 5.18203 12.4942 4.375 13.9651 4.375C14.8874 4.37624 15.7715 4.75526 16.4236 5.42896C17.0758 6.10265 17.4427 7.01601 17.4439 7.96875C17.4439 12.157 11.5633 15.9492 10.1839 16.7812Z" fill="#1A1916"/>
</svg>
