<svg width="13" height="16" viewBox="0 0 13 16" fill="none" xmlns="http://www.w3.org/2000/svg">
<path d="M10.0039 3.01401C9.15952 2.03882 8.20916 1.16068 7.17041 0.395843C7.07846 0.331428 6.96891 0.296875 6.85664 0.296875C6.74437 0.296875 6.63482 0.331428 6.54287 0.395843C5.50603 1.161 4.55752 2.03912 3.71484 3.01401C1.83564 5.17211 0.84375 7.44711 0.84375 9.5936C0.84375 11.189 1.47754 12.7191 2.60569 13.8473C3.73383 14.9754 5.26393 15.6092 6.85938 15.6092C8.45482 15.6092 9.98492 14.9754 11.1131 13.8473C12.2412 12.7191 12.875 11.189 12.875 9.5936C12.875 7.44711 11.8831 5.17211 10.0039 3.01401Z" fill="white"/>
</svg>
