<svg width="50" height="51" viewBox="0 0 50 51" fill="none" xmlns="http://www.w3.org/2000/svg">
<path d="M44.0625 18.7084C44.0625 13.4381 40.7929 9.71851 35.5246 9.71851H15.1166C9.86656 9.71851 6.5625 13.4381 6.5625 18.7084V32.9138C6.5625 38.1659 9.84831 41.8855 15.1166 41.8855H35.5065C40.7929 41.8855 44.0625 38.1659 44.0625 32.9138V18.7084Z" stroke="#1A1916" stroke-width="3" stroke-linecap="round" stroke-linejoin="round"/>
<path d="M13.248 34.1686C13.248 32.1436 14.8453 29.624 19.4487 29.624C24.052 29.624 25.6493 32.1255 25.6493 34.1505" stroke="#1A1916" stroke-width="3" stroke-linecap="round" stroke-linejoin="round"/>
<path fill-rule="evenodd" clip-rule="evenodd" d="M23.4098 21.3861C23.4098 23.5733 21.6363 25.3468 19.4491 25.3468C17.2619 25.3468 15.4883 23.5733 15.4883 21.3861C15.4883 19.1989 17.2619 17.4253 19.4491 17.4253C21.6363 17.4253 23.4098 19.1989 23.4098 21.3861Z" stroke="#1A1916" stroke-width="3" stroke-linecap="round" stroke-linejoin="round"/>
<path d="M29.7324 22.3571L36.9668 22.4562M32.4443 30.0693H36.9666" stroke="#1A1916" stroke-width="3" stroke-linecap="round" stroke-linejoin="round"/>
</svg>
