<svg width="50" height="51" viewBox="0 0 50 51" fill="none" xmlns="http://www.w3.org/2000/svg">
<path fill-rule="evenodd" clip-rule="evenodd" d="M20.2928 10.9296C20.2928 9.16089 21.5178 7.72339 23.022 7.72339H28.022C29.5261 7.72339 30.7512 9.16089 30.7512 10.9296V10.9796C29.1553 10.8192 27.4178 10.7401 25.522 10.7401C23.6241 10.7401 21.8866 10.8192 20.2928 10.9796V10.9296ZM5.74284 23.2608C11.1783 26.6108 18.2199 28.4587 25.5637 28.465C32.8928 28.4587 39.9157 26.617 45.347 23.2816C44.247 16.4838 40.7782 12.8671 33.8762 11.4609V10.9296C33.8762 7.43797 31.2491 4.59839 28.022 4.59839H23.022C19.7949 4.59839 17.1678 7.43797 17.1678 10.9296V11.4609C10.2762 12.8651 6.80951 16.4713 5.70117 23.2441C5.71576 23.2525 5.73034 23.2524 5.74284 23.2608Z" fill="black"/>
<path fill-rule="evenodd" clip-rule="evenodd" d="M27.0826 31.6689V36.1751C27.0826 37.0376 26.3826 37.7376 25.5201 37.7376C24.6576 37.7376 23.9576 37.0376 23.9576 36.1751V31.6668C17.1639 31.4397 10.6681 29.7439 5.34102 26.8085C5.30977 27.4731 5.29102 28.1564 5.29102 28.8689C5.29102 42.2564 10.5848 47.0001 25.5201 47.0001C40.4555 47.0001 45.7493 42.2564 45.7493 28.8689C45.7493 28.1731 45.7326 27.5043 45.7034 26.8564C40.368 29.7751 33.8722 31.4543 27.0826 31.6689Z" fill="black"/>
</svg>
