<svg width="50" height="51" viewBox="0 0 50 51" fill="none" xmlns="http://www.w3.org/2000/svg">
<path fill-rule="evenodd" clip-rule="evenodd" d="M29.722 5.5192C28.896 5.4152 28.156 6.0212 28.066 6.8432C27.974 7.6672 28.568 8.4072 29.39 8.4992C36.144 9.2492 41.388 14.4892 42.146 21.2412C42.232 22.0072 42.88 22.5732 43.634 22.5732C43.69 22.5732 43.748 22.5692 43.804 22.5632C44.626 22.4732 45.218 21.7292 45.126 20.9052C44.212 12.7532 37.878 6.4252 29.722 5.5192Z" fill="black"/>
<path fill-rule="evenodd" clip-rule="evenodd" d="M35.0825 21.3825C35.2225 22.0985 35.8505 22.5945 36.5525 22.5945C36.6485 22.5945 36.7445 22.5865 36.8425 22.5685C37.6545 22.4105 38.1865 21.6205 38.0285 20.8085C37.2145 16.6445 34.0005 13.4305 29.8405 12.6225C29.0465 12.4645 28.2405 12.9965 28.0825 13.8105C27.9245 14.6225 28.4565 15.4105 29.2705 15.5685C32.2225 16.1425 34.5065 18.4245 35.0825 21.3825Z" fill="black"/>
<path fill-rule="evenodd" clip-rule="evenodd" d="M31.5518 29.7029C29.5558 30.6749 27.8278 31.5189 23.3338 27.0249C18.8418 22.5309 19.6818 20.8049 20.6558 18.8069C22.0658 15.9109 22.6358 13.2769 16.2318 8.00293C14.7018 6.75293 13.0418 6.27293 11.3078 6.60893C7.64175 7.29493 5.05175 11.3749 5.05575 11.3749C3.43175 13.6469 1.20775 20.4789 15.5418 34.8149C24.9698 44.2449 31.1538 46.5069 34.9058 46.5069C36.8578 46.5069 38.1518 45.8949 38.8998 45.3569C38.9398 45.3329 43.0558 42.7829 43.7518 39.0449C44.0758 37.3069 43.6038 35.6529 42.3518 34.1229C37.0798 27.7249 34.4458 28.2929 31.5518 29.7029Z" fill="black"/>
</svg>
